/* XPM */
static char *_645143488134[] = {
/* columns rows colors chars-per-pixel */
"40 40 184 2 ",
"   c #0E000B",
".  c #050508",
"X  c #12000E",
"o  c #1E140D",
"O  c #1C0216",
"+  c #160413",
"@  c #191714",
"#  c #23001C",
"$  c #280E14",
"%  c #231217",
"&  c #2A1C13",
"*  c #321918",
"=  c #3C281A",
"-  c #270121",
";  c #2D0025",
":  c #290825",
">  c #34002B",
",  c #38012F",
"<  c #330F21",
"1  c #2F162B",
"2  c #33132A",
"3  c #381826",
"4  c #3C0132",
"5  c #380F31",
"6  c #3D1336",
"7  c #371330",
"8  c #1D2122",
"9  c #3C2625",
"0  c #332826",
"q  c #363839",
"w  c #442A18",
"e  c #5C351D",
"r  c #62361B",
"t  c #410035",
"y  c #450139",
"u  c #48073D",
"i  c #44133B",
"p  c #472920",
"a  c #5A3727",
"s  c #533331",
"d  c #6C422E",
"f  c #7B4C34",
"g  c #7D5032",
"h  c #704932",
"j  c #17274A",
"k  c #253D6A",
"l  c #4F0742",
"z  c #510143",
"x  c #530C46",
"c  c #5C014C",
"v  c #560348",
"b  c #4B1F45",
"n  c #56184B",
"m  c #640453",
"M  c #542A4D",
"N  c #51344B",
"B  c #592651",
"V  c #770362",
"C  c #29485F",
"Z  c #394A68",
"A  c #2D4D7D",
"S  c #37547C",
"D  c #4A4645",
"F  c #53464C",
"G  c #575752",
"H  c #634541",
"J  c #685748",
"K  c #78574B",
"L  c #48576C",
"P  c #5E5E60",
"I  c #595C7C",
"U  c #515679",
"Y  c #68656E",
"T  c #766769",
"R  c #76716C",
"E  c #6D6F71",
"W  c #7A6F74",
"Q  c #88563B",
"!  c #865945",
"~  c #926245",
"^  c #8F6B59",
"/  c #A8714D",
"(  c #AD7351",
")  c #B17650",
"_  c #846962",
"`  c #926F6C",
"'  c #8F796A",
"]  c #877977",
"[  c #977874",
"{  c #938072",
"}  c #A9836B",
"|  c #BB8462",
" . c #C2855E",
".. c #C68A62",
"X. c #C8926E",
"o. c #CC9E7F",
"O. c #34598A",
"+. c #31538F",
"@. c #3E699D",
"#. c #495E82",
"$. c #4F638D",
"%. c #416D9D",
"&. c #466595",
"*. c #65708C",
"=. c #737387",
"-. c #63688C",
";. c #456CA0",
":. c #446FAB",
">. c #4775AA",
",. c #4F76AE",
"<. c #8C7980",
"1. c #4E88BE",
"2. c #4E85BA",
"3. c #518ABE",
"4. c #588AB9",
"5. c #5995B9",
"6. c #6891A6",
"7. c #7495BD",
"8. c #6896BC",
"9. c #518CC5",
"0. c #5798C7",
"q. c #5D9BC6",
"w. c #5897C8",
"e. c #7793C1",
"r. c #639CC8",
"t. c #5DA0CC",
"y. c #5DA3D2",
"u. c #62A4CC",
"i. c #6CA6CE",
"p. c #63ABD2",
"a. c #66A9D1",
"s. c #75AFD1",
"d. c #64B0D5",
"f. c #75B7D9",
"g. c #8B8D8F",
"h. c #8E8F91",
"j. c #9D989B",
"k. c #A38F82",
"l. c #AF9381",
"z. c #A1979A",
"x. c #ACA49D",
"c. c #9C9EA0",
"v. c #A2A1B4",
"b. c #B3ACA9",
"n. c #D3A68A",
"m. c #D8AE92",
"M. c #DBB196",
"N. c #D7B199",
"B. c #CFB6A6",
"V. c #C4BDB6",
"C. c #C8C2BA",
"Z. c #88ACCD",
"A. c #9DA3C0",
"S. c #98BBCD",
"D. c #86AED1",
"F. c #88B4D4",
"G. c #91B8D7",
"H. c #8AC2DE",
"J. c #97C3DB",
"K. c #AECAD9",
"L. c #B1C0DB",
"P. c #9BC8E1",
"I. c #A4CCE3",
"U. c #A9CEE5",
"Y. c #B1D3E6",
"T. c #BBD9EA",
"R. c #B3D7E9",
"E. c #A8D2E7",
"W. c #D5CEC7",
"Q. c #C3DDEB",
"!. c #CBDDEB",
"~. c #D2DEEC",
"^. c #CEE1ED",
"/. c #D6E5EF",
"(. c #D9E6EF",
"). c #CDE4F1",
"_. c #D2E5F0",
"`. c #DAE6F1",
"'. c #DDE9F2",
"]. c #E3ECF3",
"[. c #EBF0F6",
"{. c #F3F6F9",
"}. c #F5F8FA",
"|. c None",
/* pixels */
"|.|.|.|.|.|.|.|.|.|.|.|.|.|.|.|.|.|.|.|.|.|.|.|.|.|.|.|.|.|.|.|.|.|.|.|.|.|.|.|.",
"|.|.|.|.|.|.|.|.|.|.|.|.|.|.|.|.|.|.|.|.|.|.|.|.|.|.|.|.|.|.|.|.|.|.|.|.|.|.|.|.",
"|.|.|.|.|.|.|.|.|.|.|.|.|.|.|.|.|.|.|.|.|.|.|.|.|.|.|.|.|.|.|.|.|.|.|.|.|.|.|.|.",
"|.|.|.|.|.|.|.|.|.|.|.|.|.|.|.|.|.|.|.|.|.|.|.|.|.|.|.|.|.|.|.|.|.|.|.|.|.|.|.|.",
"|.|.|.|.|.|.|.|.|.|.|.|.|.|.|.|.|.|.|.|.|.|.|.|.|.|.|.|.|.|.|.|.|.|.|.|.|.|.|.|.",
"|.|.|.|.|.|.|.|.|.|.|.|.|.|.|.|.|.|.|.|.|.|.|.|.|.|.|.|.|.|.|.|.|.|.|.|.|.|.|.|.",
"|.|.|.|.|.|.|.|.|.|.|.|.|.|.|.|.|.|.|.|.|.|.|.|.|.|.|.|.|.|.|.|.|.|.|.|.|.|.|.|.",
"|.|.|.|.|.|.|.|.|.|.|.|.|.|.S.U.I.J.s.q.F.G.Z.7.&.|.|.|.|.|.|.|.|.|.|.|.|.|.|.|.",
"|.|.|.|.|.|.|.|.|.|.|.|.|.K.).T.T.T.Y.E.R.Q.R.U.G.&.|.|.|.|.|.|.|.|.|.|.|.|.|.|.",
"|.|.|.|.|.|.|.|.|.|.|.|.S._.!.^././.(.(.(.Q.Y.Y.H.q.S |.|.|.|.|.|.|.|.|.|.|.|.|.",
"|.|.|.|.|.|.|.|.|.|.|.6.Y.Q.'.[.].].].].].!.I.H.f.p.>.|.|.|.|.|.|.|.|.|.|.|.|.|.",
"|.|.|.|.|.|.|.|.|.|.|.6.I./.{.~.].[.].[.].].`.P.p.p.>.|.|.|.|.|.|.|.|.|.|.|.|.|.",
"|.|.|.|.|.|.|.|.|.|.|.5.H./.~.e.L.{.].{.}.].`.Q.f.y.:.|.|.|.|.|.|.|.|.|.|.|.|.|.",
"|.|.|.|.|.|.|.|.|.|.|.u.a.G.v.z.A.~.Q.`.[.^.E.I.r.t.2.+.|.|.|.|.|.|.|.|.|.|.|.|.",
"|.|.|.|.|.|.|.|.|.|.|.5.9.5.[ o.j.Z.F.D.P.J.i.u.1.t.q.@.|.|.|.|.|.|.|.|.|.|.|.|.",
"|.|.|.|.|.|.|.|.|.|.|.Y :.*.Q Q ! =.3.,.8.y.9.9.,.2.p.@.|.|.|.|.|.|.|.|.|.|.|.|.",
"|.|.|.|.|.|.|.|.|.|.|.^ -.I d e e ! =.] ] U A S U %.t.%.|.|.|.|.|.|.|.|.|.|.|.|.",
"|.|.|.|.|.|.|.|.|.|.|.K T I J @ o f  .../ a . q W &.0.%.|.|.|.|.|.|.|.|.|.|.|.|.",
"|.|.|.|.|.|.|.|.|.|.|.* 0 T x.q D } X...| { 8 G b.$.w.%.|.|.|.|.|.|.|.|.|.|.|.|.",
"|.|.|.|.|.|.|.|.|.|.|.|.|.h l._ k.M.M.m.n.B.T ' } L 9.C |.|.|.|.|.|.|.|.|.|.|.|.",
"|.|.|.|.|.|.|.|.|.|.|.|.|.w ~ | n.M.n.n.N.m.X./ d Z O.|.|.|.|.|.|.|.|.|.|.|.|.|.",
"|.|.|.|.|.|.|.|.|.|.|.|.|.|.w f /  .......) ~ J L O.j |.|.|.|.|.|.|.|.|.|.|.|.|.",
"|.|.|.|.|.|.|.|.|.|.|.|.|.|.|.% w d Q Q f a 9 Z &.C |.|.|.|.|.|.|.|.|.|.|.|.|.|.",
"|.|.|.|.|.|.|.|.|.|.|.|.|.4 m x 7 2 * * 2 1 i m z |.|.|.|.|.|.|.|.|.|.|.|.|.|.|.",
"|.|.|.|.|.|.|.|.|.|.|.|.|.c V c x N F D F M v m V l |.|.|.|.|.|.|.|.|.|.|.|.|.|.",
"|.|.|.|.|.|.|.|.|.|.|.|.> c 4 , v M D q D c u ; z y |.|.|.|.|.|.|.|.|.|.|.|.|.|.",
"|.|.|.|.|.|.|.|.|.|.|.5 i 4 + # z x 7 5 u v 4 X - l 7 |.|.|.|.|.|.|.|.|.|.|.|.|.",
"|.|.|.|.|.|.|.|.|.|.|.6 B 1 . # , t y y y 4 ; O + b b : |.|.|.|.|.|.|.|.|.|.|.|.",
"|.|.|.|.|.|.|.|.|.|.|.* <   O , , , > 4 , , > >   O 3 % |.|.|.|.|.|.|.|.|.|.|.|.",
"|.|.|.|.|.|.|.|.|.|.|.w & |.; > 4 y 4 z 4 y , > |.|.w |.|.|.|.|.|.|.|.|.|.|.|.|.",
"|.|.|.|.|.|.|.|.|.|.|.|.|.|.|.9 ^ ` s 3 K [ H % |.|.|.|.|.|.|.|.|.|.|.|.|.|.|.|.",
"|.|.|.|.|.|.|.|.|.|.|.|.|.|.|.R V.C.] G x.W.j.G |.|.|.|.|.|.|.|.|.|.|.|.|.|.|.|.",
"|.|.|.|.|.|.|.|.|.|.|.|.|.|.|.|.h.c.E |.g.h.P |.|.|.|.|.|.|.|.|.|.|.|.|.|.|.|.|.",
"|.|.|.|.|.|.|.|.|.|.|.|.|.|.|.|.|.|.|.|.|.|.|.|.|.|.|.|.|.|.|.|.|.|.|.|.|.|.|.|.",
"|.|.|.|.|.|.|.|.|.|.|.|.|.|.|.|.|.|.|.|.|.|.|.|.|.|.|.|.|.|.|.|.|.|.|.|.|.|.|.|.",
"|.|.|.|.|.|.|.|.|.|.|.|.|.|.|.|.|.|.|.|.|.|.|.|.|.|.|.|.|.|.|.|.|.|.|.|.|.|.|.|.",
"|.|.|.|.|.|.|.|.|.|.|.|.|.|.|.|.|.|.|.|.|.|.|.|.|.|.|.|.|.|.|.|.|.|.|.|.|.|.|.|.",
"|.|.|.|.|.|.|.|.|.|.|.|.|.|.|.|.|.|.|.|.|.|.|.|.|.|.|.|.|.|.|.|.|.|.|.|.|.|.|.|.",
"|.|.|.|.|.|.|.|.|.|.|.|.|.|.|.|.|.|.|.|.|.|.|.|.|.|.|.|.|.|.|.|.|.|.|.|.|.|.|.|.",
"|.|.|.|.|.|.|.|.|.|.|.|.|.|.|.|.|.|.|.|.|.|.|.|.|.|.|.|.|.|.|.|.|.|.|.|.|.|.|.|."
};
