/* XPM */
static char *_646750160467[] = {
/* columns rows colors chars-per-pixel */
"64 64 122 2 ",
"   c #14222F",
".  c #172331",
"X  c #1B2630",
"o  c #1E2A35",
"O  c #1C2D3B",
"+  c #1F313D",
"@  c #222C35",
"#  c #242E3A",
"$  c #253037",
"%  c #283037",
"&  c #25323C",
"*  c #2A343D",
"=  c #2F383F",
"-  c #30373E",
";  c #30393F",
":  c #1F3340",
">  c #253442",
",  c #2B3642",
"<  c #273844",
"1  c #2D3A44",
"2  c #273848",
"3  c #2D3C4B",
"4  c #303745",
"5  c #323B45",
"6  c #383F47",
"7  c #333D4A",
"8  c #383F4C",
"9  c #393F50",
"0  c #2F404C",
"q  c #34424D",
"w  c #39434D",
"e  c #2E4150",
"r  c #354452",
"t  c #3A4552",
"y  c #374856",
"u  c #3B4955",
"i  c #374A59",
"p  c #3D4C5A",
"a  c #3E505E",
"s  c #3E4F60",
"d  c #3F5261",
"f  c #414B56",
"g  c #414E5C",
"h  c #415057",
"j  c #43515E",
"k  c #4A535E",
"l  c #445462",
"z  c #495663",
"x  c #465965",
"c  c #4A5966",
"v  c #4A5768",
"b  c #465A69",
"n  c #4C5C6A",
"m  c #515B66",
"M  c #515E6B",
"N  c #4C5F70",
"B  c #4E616E",
"V  c #52616E",
"C  c #59646D",
"Z  c #4E6272",
"A  c #4F6877",
"S  c #4E6879",
"D  c #546472",
"F  c #596674",
"G  c #566976",
"H  c #5B6A75",
"J  c #526778",
"K  c #536A7A",
"L  c #5C6C7A",
"P  c #5D717D",
"I  c #626D77",
"U  c #626E7A",
"Y  c #63727D",
"T  c #6A757D",
"R  c #556F80",
"E  c #577182",
"W  c #5C7282",
"Q  c #647582",
"!  c #697681",
"~  c #647984",
"^  c #6B7A84",
"/  c #677D89",
"(  c #6C7E8A",
")  c #727E86",
"_  c #747E89",
"`  c #74828B",
"'  c #788792",
"]  c #768891",
"[  c #7C8993",
"{  c #828C94",
"}  c #888D94",
"|  c #899097",
" . c #86919A",
".. c #8C939B",
"X. c #8F99A2",
"o. c #949EA6",
"O. c #98A0A6",
"+. c #9CA4AB",
"@. c #A1A8AF",
"#. c #A4ACB2",
"$. c #A9AFB4",
"%. c #AAB1B6",
"&. c #ACB3BA",
"*. c #B0B7BD",
"=. c #B2B9BE",
"-. c #B3BCC1",
";. c #B8BEC2",
":. c #BBC1C6",
">. c #BCC3C8",
",. c #C1C6CB",
"<. c #C7CDD1",
"1. c #CCD1D4",
"2. c #D4D7D9",
"3. c #DFE2E4",
"4. c #E2E4E6",
"5. c #EBEDEE",
"6. c #EDEFF0",
"7. c #EEF0F1",
"8. c #F3F4F5",
"9. c #F6F7F8",
"0. c #F7F8F9",
"q. c #FEFEFE",
/* pixels */
"l b Z L K n n r & n S B B A V B B B B B C C C m $ h B m V C H G q V H I C H C C r , u f u p f t 9 9 9 r p r 0 0 > & 0 i p y a j ",
"L L L P R E ( K * P ` ` W ~ P ~ ` ` ` Y ~ ~ ^ ` = a V C I ^ T ` h h C m V C Y ] g g _ W W Q Q Q F M N F D J D P p 0 L L P P P ~ ",
"p p y i s s N N & l B d a j a h j x x B x a h H 1 = = ; u B j V t * = % = = u C i 3 M D F D M v g s p l g l v D c 0 B n Z Z B b ",
"g g p p l d N b + x B d B x x B B x B B B j B P = ; u w p G V Y t = q 0 q q a P s 3 F M M F D v l g g g v x x K j 1 c B c Z B n ",
"l g s s i s l N $ x c x x x x x B B a u a a c P * 0 j k j B D P w ; q w w p k P i 3 F D z M M v v g s s g N v F u > b l n N n c ",
"l l g i s g l v + x B B B B x j j y 1 0 u x B G * w B k B B V Y w ; w w f z c ~ p 3 D D F D v v l v l l l v z v y * l v N N N c ",
"l l l s g l s g $ x x x B B 0 0 0 r p j u a B P * r x x c c k I w 3 t u x c c ^ g 2 D N Z D F Z N l l l l l s l q * g v b N N n ",
"v v l l l i p l + a B c B B h B k B B B u y j L * e j B x B B L r w u h j u h I g 3 N M M D J D M N v v v g p l t * j v v v V N ",
"N v x l l s a l $ j c c B B k G B B c n j B n C * w j c n n B L t w j x a 0 p C y 0 Z B M D K D Z Z N l l g p g h * h n b b D v ",
"b N v s s p a l & x B c V k B B B n c c c n G H & t l B n c n H r w x l i y a H y q F Z V J F F D Z N b l p p v k * j l c n D n ",
"p g l l p i l x & x V B j j B k x h z n x x B I * y j x c n x L w u x a r 0 y P u u K D D N J J D N b v l s r n H & b d v M F V ",
"n v x l s s v c $ B B k a x k j j h B n z l l L * y x x x l a P u p j p r 0 0 P p u K V D H H J D N b l s 9 p N C * n l n Z F F ",
"M v v l d g b x % c V M c j a j h c n n c j j H < p x x p y 3 L a j a e q 0 2 G u y L Z K L K D N v v g i l s D F > N v N F F D ",
"M v l l p l v d * m c c k j j p a c V n c j a C < a x j y e 3 D j a i y r y 0 G p u L A L L L D N v l s g g s V V 4 M v D F L F ",
"M v l s a j z p * H m g h u u u u k B c j a t k = B D a u i r G a B a y i i y Z 0 q L L K K D b c v s y u u u v l 7 F M M J D D ",
"7 3 3 > , , , * @ 5 5 % & % % % = % * * * * * 1 @ 1 0 * < 3 2 e 0 * = & < < 2 0 * + 1 1 < 1 < * 1 , & # & * # > > o > > > 4 3 4 ",
"> > > 4 > 4 > , 5 5 7 7 7 7 q 1 % t q q 0 5 0 5 1 1 0 7 0 1 q 1 # 2 9 9 r y u y y q q q y w q r & = y t u t w p q p j k t w u w ",
"> F D D M v v v z z m m c k H V 1 C C H I I H I ^ ` T Y T ^ ^ ~ < Z / Q Q Q Q W P G K P P P P ( y y L Y Y T T Y T ] ` ` ^ ` ) ` ",
", 9 4 9 8 3 4 4 , , , 5 5 = 1 u * 1 = 5 0 w h k C B j z j C c B , q y y i r r r 0 q r w 1 1 2 x y & 0 1 7 q u p j j j k c k k k ",
"# , 4 4 4 4 4 4 , 4 - ; 7 7 w n 1 q w u w h B B H c j c x G B V < 3 r t y y p s a a a u r q 9 V y % t u u p x c c B n c V m m V ",
"# 4 4 4 4 4 4 4 4 , 4 * 5 5 7 x @ 5 i u h c D H H z p p j n V F > 1 u i p s i e 0 e e 2 7 r t N i 1 z x c B B B n n M m V C m C ",
"# 4 7 7 8 7 4 7 4 5 4 , 5 , m X.T _ { | T c V L G l Y | {  .( V > 7 i i r y D [ O.#.#.X.! p 3 b y < B B V V D V C F V V C V M C ",
"# 4 4 4 4 4 7 4 4 4 , 5 7 @ ..q.q.q.q.q.3.D B Y F u #.q.q.q.*.z 1 3 p 3 V >.0.q.q.q.q.q.q.4.{ l y 1 n B G G G H G F C V V M m m ",
"# 4 4 4 4 7 7 4 5 4 7 7 7 @ ..q.q.q.q.q.q.O.B Y B p #.q.0.q.&.z 1 7 3 Y 8.q.q.q.0.q.0.0.q.q.q.:.r < l n G G G H F M m n m M m m ",
"# , 4 4 4 4 7 6 4 3 8 7 5 @ ..q.q.q.q.q.q.5.L K n t #.q.0.q.*.x 1 2 c 5.q.0.q.q.q.q.q.q.q.q.q.q...O l x C G V G V n c c c c M m ",
"# 4 4 4 4 4 7 4 8 8 8 4 5 o ..q.0.q.q.q.q.q.#.c c q @.q.0.q.&.l 2 > #.q.q.q.q.7.X.L ! ;.q.q.q.q.6.k j n B V B F B l j l k k z m ",
"@ 4 4 4 4 7 7 4 7 7 7 , 5 o ..q.q.q.9.q.q.q.6.C j 7 +.q.0.q.&.l , i 6.q.q.q.q.Y : 2 2 2 >.q.q.0.q.| r B B V V B c z j j z z k m ",
"% 4 4 4 4 4 7 7 4 4 5 , 5 @ ..q.0.q.=.6.q.q.q.@.p r #.q.0.q.%.x > Y q.q.q.q.,.3 9 9 9 2 I q.q.q.q.=.p V V B n l j j l z z l g k ",
"% 4 4 4 7 7 7 4 5 4 5 = 5 o ..q.0.q.o.#.q.q.q.8.C 0 #.q.0.q.@.l : [ q.q.q.q.o.2 r 9 3 3 u 8.q.q.q.2.l n n c l j p g z z j p q u ",
"# 4 4 5 4 8 7 7 4 , * * * o ..q.0.q.#.V 0.q.q.q.&.3 #.q.0.q.+.p : ..q.0.q.q. .3 r 7 9 3 q 4.q.q.q.4.l c c l j p r p l x j 8 , 7 ",
", g t 9 r t t 9 8 5 , 4 6 X | q.0.q.=.0 &.q.0.q.q.V +.q.0.q.@.a : X.q.q.q.q. .r g u u 7 t 4.q.q.q.4.C l j p u p p j c n g r 7 7 ",
"# 4 w 4 , 7 3 7 7 5 5 , 5 X } q.0.q.$.o k 8.q.q.q.+.{ q.0.q.+.3 O ` q.q.q.q...> r 7 2 * 7 5.q.q.q.2.f 7 1 , 1 1 1 7 1 7 1 , 1 , ",
"@ @ & # # & @ $ & @ & , 1 . ..q.0.q.+..   ..q.q.q.5.@.q.0.q.O.. + H q.q.q.q.%.  & * < $ V q.q.q.q.=.@ * * * & * & * q q 0 0 0 1 ",
"Q I C H U U Y C > c M n G D &.q.0.q.-.c V L 8.q.q.q.8.q.q.0.-.B P ' 8.q.q.q.8.` < u P L ,.q.q.q.q.-.P Y Y T Y ] C q Y T T T T U ",
"Q F v V M H M H > l n b V l o.q.q.q.&.j F l o.q.q.q.q.q.q.q.&.a J x :.q.q.q.q.8.` m ` =.q.q.q.q.0.^ n C B B B P P * q q w u j x ",
"H l x x c C c F # r v v b r o.q.0.q.%.y l t c 6.q.q.q.q.q.q.&.a n l Y 0.q.q.q.q.q.8.q.q.q.q.q.q.*.p c x k j u G L * q q w r c B ",
"H c n n C J F U # u x v b 3 X.q.9.q.%.u p x y o.q.0.q.q.0.q.&.a B Z d  .q.q.q.q.q.q.q.0.q.q.q.1.n c c j k a a H V % h j j x D L ",
"G n B V N V F H & i l l v 3 +.q.q.q.;.3 g l g n 5.q.q.q.q.q.-.l G B Z l [ 3.q.q.q.q.q.q.q.9.*.B c n t 5 q p j G j & x x B B C L ",
"V V B V V c F F # i g l g r U #.O.#.) w l s l s ` #.@.#.@.&.[ c B B b Z b Z [ -.>.>.<.=.O.~ p q w w 1 q w h x D a * x B B C V H ",
"V V V B n b V F > y s l l p r 3 3 q 7 j g g s l p r r r r i l C B c x B Z Z d L p 2 B d j B u y i u k x u w p C u * j c B G D Y ",
"B V V B c B D G & i g g l p p g l p p g g g g l z v z z z x c c x k l B B Z Z P a e B B B B j B B B x B j u p B p * a B B V D Y ",
"c l V H c c n V & u l s d l g j f u g g p g g g j j g l j z z z k j a a d B Z Z y y G B B B a B B x x x x x B V y 0 j j B B G P ",
"x j B B x x z L > r l g p g x j u g g g g g s g g g g g j g z k h h p j l c c P a p G B B B j B x h j x c k B C a 1 j j B B V G ",
"n x x x x j k T * q l g g l l u l j g g p s g p g g g g g g g f f u a j x l d P p y Z B a i B B x a j x B j j C h 1 B B B B B B ",
"x x x l g t u T * 7 j g k z f g g g g f 9 g p p f g f g f f f f u f h j a u t V q a B B B a j j j x B x x k a V h 0 j B B B a x ",
"x c l l q * 6 Y * w k g k k f g g f 9 f g g f f g g f f t f w w w f k h u 0 ; h 0 j C B B j j h a h c B c j a B u 0 B B j x a a ",
"l n v j 8 5 5 I * t z k v k f f f 9 8 f k k k k k g f f w w w u w f k k u 0 ; h 1 B G B x k j k k h B V c k h h w p B k B a a a ",
"y u p r 5 5 * C 4 4 8 6 5 4 4 5 8 8 4 4 8 9 9 9 6 5 6 6 - - * 5 6 w w w 5 0 0 f 0 w h y 0 0 0 0 q q u u q w w q = 0 j r q q e r ",
"> & > & # , , 4 * @ @ @ @ % @ @ @ @ @ @ @ @ @ @ @ @ @ X @ @ @ @ % @ o @ # @ # # # @ # > # > > # $ $ @ $ $ $ $ $ $ $ $ & & & > + ",
"> 3 > 2 g Q ^ U U I I U I F U m % k C I M M F M M z z z c z g u O u G J F K L F J L H H L F F U 0 h H B G V V B B j j l l a i a ",
"7 U A Z W Q L Z v v m k k m M U - h z k k f f k g g g j p f z l + l Q L E W W U L N v N v n D L 0 w B k k h u u u y w i p y i l ",
"3 J J J J D N l g u f g g f k I - - - ; 6 6 6 6 6 8 r 6 , 4 1 n 0 q N N N D N N l s p i p p g N 0 % * = ; ; ; = = = 0 = 1 q 0 y ",
"2 A F n N n v x l s p k k k v W - ; 6 6 6 w t u u t t 9 8 8 8 V 0 q B n N D D N l s s p p g p v q % ; ; ; 0 ; 0 7 1 5 5 3 q r p ",
"< Z J Z D b v v v l p s k k v F * ; 6 6 8 9 9 9 9 t t 9 9 9 8 M 0 w n l D N N M v l s s s s 9 v q % ; ; 6 6 6 ; 5 7 5 3 3 7 r i ",
"> Z K K K N V N v v l s l l k W 4 5 6 6 8 w 9 9 9 f t t 9 9 7 x 1 7 l n D J M N b l l l p g g j 6 @ 6 6 ; 0 6 0 5 7 7 1 3 7 r y ",
"> N K K K K K F N b v v l g k F 4 5 6 6 8 9 9 9 u t f 9 9 8 9 y & t c n M Z Z N v v v s g l t f 6 $ ; ; ; ; 6 ; 5 5 3 7 7 q e e ",
": b J K K K K J R v b b l l s J , 5 6 7 8 9 9 g s i 9 9 7 9 9 g , t v v n V Z M N v v v l s t u = * ; ; ; = 5 6 7 7 5 r 7 7 9 e ",
": N K K K A D A R N N s s s g R 1 6 8 8 8 9 t u 9 9 9 9 7 7 4 l , r v n M V D N F N v v g p t t * % 5 ; 5 ; ; 5 5 7 3 q 7 3 3 i ",
"> Z K K K J S S N N s s s s s W 5 7 8 r 9 r f t 9 3 7 4 4 9 4 l > g v v M D F N v M v l g g 9 t * $ ; ; ; 5 ; 5 5 5 q 7 3 3 3 r ",
": N K A K K K R R s b s s g g Q 7 5 r r r r f 7 7 3 4 4 4 4 9 g , l C x M L F F v g l l s i t u * & 5 ; ; ; 6 6 5 7 7 7 3 3 3 r ",
"+ Z S J K S K K S b l l s g l W 1 3 7 , 9 i i 9 7 4 4 4 4 9 9 l > k F v F F F F F v v l g u u g * % 5 = ; ; ; ; 5 5 1 0 5 1 1 r ",
"+ S S S R E E K S N l l s g l R 1 u 7 7 i p 9 9 7 7 2 4 4 9 9 g > k M v M W F F M v l l g u g u & & = = ; ; w 6 0 0 1 1 , 1 1 w ",
"1 W K K E E R R N b v s l g v N , J l r g p 9 i 9 3 9 7 4 4 4 g > v M M F Q W F F N v j g s g p % 0 w ; 0 w w 0 0 ; = 1 1 1 1 0 ",
"+ B G A S R d d b d y i r t i v , c v g p t s i i 9 9 4 4 4 4 9 4 g M k k v v v v v g y u t w f * 6 u w ; 6 w w w w 0 = 1 1 = 1 "
};
