/* XPM */
static char *_646750137987[] = {
/* columns rows colors chars-per-pixel */
"64 64 125 2 ",
"   c #0B1B27",
".  c #172734",
"X  c #1E2B35",
"o  c #1C2D3A",
"O  c #1F313C",
"+  c #232C35",
"@  c #242F3A",
"#  c #253037",
"$  c #283037",
"%  c #25323C",
"&  c #2A343D",
"*  c #2F383F",
"=  c #30373E",
"-  c #30393F",
";  c #253442",
":  c #2B3642",
">  c #263845",
",  c #2D3A44",
"<  c #253849",
"1  c #2D3C4A",
"2  c #303745",
"3  c #323B45",
"4  c #383F47",
"5  c #333D4A",
"6  c #383F4C",
"7  c #2C3F50",
"8  c #393F50",
"9  c #2F404C",
"0  c #34424D",
"q  c #39434D",
"w  c #2E4151",
"e  c #354452",
"r  c #3A4553",
"t  c #364856",
"y  c #3B4955",
"u  c #374A5A",
"i  c #3D4C5A",
"p  c #3E505E",
"a  c #3E4F60",
"s  c #3F5160",
"d  c #414C56",
"f  c #414E5B",
"g  c #415057",
"h  c #43515E",
"j  c #4A535E",
"k  c #445462",
"l  c #495663",
"z  c #465965",
"x  c #4A5966",
"c  c #4A5768",
"v  c #465A69",
"b  c #4C5C6A",
"n  c #515B67",
"m  c #515E6B",
"M  c #4C5F70",
"N  c #4E616E",
"B  c #52626E",
"V  c #59646D",
"C  c #4E6272",
"Z  c #4F6877",
"A  c #4E6879",
"S  c #546472",
"D  c #596674",
"F  c #566976",
"G  c #5B6A75",
"H  c #526778",
"J  c #536A7A",
"K  c #5C6C7A",
"L  c #5D717D",
"P  c #626D77",
"I  c #626E79",
"U  c #64727E",
"Y  c #6A757E",
"T  c #556F80",
"R  c #577182",
"E  c #5C7282",
"W  c #647482",
"Q  c #697782",
"!  c #657985",
"~  c #6C7A84",
"^  c #677D89",
"/  c #6C7E8A",
"(  c #727D87",
")  c #737E89",
"_  c #6F818F",
"`  c #73828C",
"'  c #788691",
"]  c #768891",
"[  c #7E8992",
"{  c #828D95",
"}  c #838E98",
"|  c #86919A",
" . c #8B949C",
".. c #8E9AA3",
"X. c #929BA3",
"o. c #96A2A9",
"O. c #9BA5AC",
"+. c #9CA8AF",
"@. c #A0A7AF",
"#. c #A0A8AF",
"$. c #A4ACB2",
"%. c #A6B0B6",
"&. c #AAB0B6",
"*. c #ADB6BC",
"=. c #B1B6BA",
"-. c #B2B8BE",
";. c #B9BEC4",
":. c #BAC1C5",
">. c #BEC5CA",
",. c #C1C7CC",
"<. c #C7CCD0",
"1. c #CBCDD0",
"2. c #CDD2D5",
"3. c #D2D7DA",
"4. c #D6D9DC",
"5. c #D9DBDE",
"6. c #DADEE1",
"7. c #E0E3E5",
"8. c #E5E8EA",
"9. c #EAECED",
"0. c #EEEFF0",
"q. c #EFF1F2",
"w. c #F4F4F5",
"e. c #F7F8F8",
"r. c #FEFEFE",
/* pixels */
"k v C K K b v e % N Z N N N F N N B B V V B N n # g n n B V G F q B P P G G V F e : y f y y f 8 8 8 8 r i e 0 9 & O 9 u i t i h ",
"K K K L R R _ H % L _ _ L ! L U _ _ ^ ~ ! ~ ~ ` * p N V U ~ Y _ g g B x n V U ] h f ) E W W W W D M b D S S S L i 9 K K L L L ! ",
"i i t u a a M M % s N s p z p g p s N N g g g L * * - - t x z N q * , & * - y V r 7 m S S S m c f a i k k k c H x 9 N N C C N v ",
"h f i i s s M v O z N z N z z N N N j N N z N L * - y y p V N U q * 4 3 0 0 i L i 1 D M m D S c k f f f c c k H h * x N b C C v ",
"k f a i i a k M # z N z z z N z N N i y p h N L > 9 h j h B V L q - 0 q q i j K y 1 D S l m M b c k a f k M c S y & b k b b C x ",
"k k f u a f k c O z x N N z z g h t , 9 y z z F & q N h N N B U 0 - q q d x z ~ a 1 S S S m m c k k k k k k k c t ; k k b C M c ",
"k k k a f f a f # z z z N N 9 9 9 t i h y p N K & 0 N N N z j G q 3 t d z x z Y f < S M S S D S b l k k k k a l 0 & i c b b b b ",
"c c k k k u a k O p N x N N g N j N N N y t h K & 9 h j h N N L q 0 y h g y g U f 2 M m M S S S M M c c c f i k q & k c c b M M ",
"M v c k k i i z # h N j N N j F N N x N h b N V & 0 h x x N m K t y h z p 9 y V e 9 N N m S H S S M M k k f f k g * g c v c C x ",
"b M v s s i p k O N N N N h N N b b x x l N D G & e k N b x x D q q z k u t p K u 0 F C M S H D S H M k k i y k l & h k b b S b ",
"i f k k a u k z # j N N h h N j x h x x z l N K & t h z x b z L q y z p e 9 e L y r K B C S F F H M M k k a e b S % v k c M S S ",
"b c k k s i v c # N N j g h z h h h b b z h z K & t z z z z p L y i h u e 0 9 L i u F S S F K H M M v k a 8 i M G & x k c S D D ",
"m c l k i h v c & x m n x h h g h x b b x h h D & p z z p e 9 L i h p t 9 9 1 F y t F S F K K C M c k f i s s S D ; c c m D D S ",
"M c k k k p c i & x x n l h h g g x B b x h p V > p z h t 9 < S h h u t e e 9 F i y L H K K K C B b k a i k i S B , M c S D K D ",
"M c k f i k k i & P n f d y i y y h N x h g y j & N S p y i e S p N p t u u t N 0 9 L F H F C v c c a r r y y c l 5 D B M D D S ",
"5 1 1 : : : : : + 2 : & $ $ @ & * $ & & & & & , # , 9 & > < 1 9 9 & & & ; > < 9 % % 1 , > 1 , & , : @ ; % % @ : ; X ; : ; 2 < 2 ",
"; ; ; 2 ; 2 ; : 2 3 3 4 5 3 0 , & q 0 0 0 9 4 - 3 , 0 0 , 9 0 1 @ < 8 7 e t t t t 0 0 0 e e 0 e % * t y y y q y 0 g j d t q y q ",
": D S S m c c c l l x B x l D B , V D G G P G P ~ _ U U Y Y ~ ! ; B / W W W W W L C L L L L L / t e K L U U U U Y ] ` ` ( ( ( ` ",
"; 8 2 8 6 5 2 2 : : * 2 2 * , i & , * 3 - y i j V B k l h V x N 1 5 y t u e w e 9 0 t 0 3 , 5 k t & 9 , 9 0 i y h h h x j x j j ",
"@ : 2 2 2 2 2 2 2 2 : = 0 3 q x & 0 q q y g N N G x h l z S N B ; 1 e t y i a a p p i e 0 q 7 B u & q y y p j x x N x n n n x V ",
"; 2 2 5 2 2 2 2 2 : 3 : , 5 6 S , r h y y h N N B i i i k S F S ; , u e 1 w e t 9 t u u t 8 e M t & z z l N N N b m m n V B m D ",
"@ 2 2 2 5 5 5 2 2 : 2 : , 3 5 B , r V { { | |  . .{ { { ` c V F : 1 t Q | } } [ | K u i u t t c t 1 N N B B S B V S B B V B n V ",
"@ 2 2 2 6 2 2 2 2 3 , 2 3 3 5 m 3 e ( r.r.r.r.r.r.r.r.r.3.x x V : < f 9.r.r.r.r.r.>.u p y 8 e c e 1 x N S F F G F S V B V m n n ",
"@ 2 2 2 2 5 2 5 3 3 3 0 3 2 3 m , q ~ r.r.r.r.r.e.r.r.r.2.x b B , % ~ r.r.r.r.e.r.w.k t e r 7 k u & z N S F K K G m b n x m n n ",
"@ : 2 2 2 2 5 6 2 2 6 6 2 , 3 b , 0 Q r.r.r.r.r.r.r.r.r.4.b N V , ; %.r.r.e.w.r.r.r.[ 1 t e 7 k t & h v S S S F B c l l x n n m ",
"@ 2 2 2 2 2 5 2 5 5 6 5 : * 3 S , e ~ r.r.r.r.:.{  . .O.[ x N m ; e 8.r.r.w.-.r.r.r.;.1 t e 7 k e , z x N V N S b x l h h l n x ",
"+ 2 2 2 2 5 5 2 5 6 3 , , , 5 B , 9 ~ r.r.r.r.{ < 0 t i p x N B o I r.r.r.8.W e.r.r.q.f 7 7 5 k y , k N B B V b x l h h j l j l ",
"$ 2 2 2 2 2 5 5 2 : 3 : , , 5 B , q ( r.r.r.r. .l m b C b z z S o +.r.e.r.,.p 7.r.r.r.) ; 8 8 c e , x b N N x z k h k l l l f j ",
"@ 2 2 2 2 5 2 5 2 2 2 * * * 0 B , t ( r.r.r.r.e.w.w.w.r.| e u N 1 6.r.e.r.O.< *.r.e.r.-.; e e x e 1 x b b x k p i g k l k i q r ",
"$ 2 2 2 5 6 5 5 2 : * & & * 0 b 1 t ~ r.r.r.r.r.r.r.r.r.| ; 9 p G r.r.r.r.` 1 } r.r.r.0.i 1 6 h 0 , z x x k h i t i k x h 6 ; 5 ",
": d r r e r r 8 q 3 2 2 , : , b 1 z ` r.r.r.r.r.r.r.r.r. .< i i O.r.e.r.8.p 7 c w.r.r.r.) @ 5 y 0 0 V k h i i i y h x b f e 5 0 ",
"@ 2 6 2 : 5 1 5 5 , , : : & & y & 1 Y r.r.r.r.1.$.&.&.-.G < 9 t 5.r.r.r.6.{ { } 9.r.e.r.=.+ & 3 , & d 0 : : , , , 5 , 5 , : : , ",
"+ + # # # @ # # @ @ @ ; : : ; ; , o n r.r.r.r.Y   X . . o o o b r.r.r.r.r.r.r.r.r.r.r.r.9.0 * , & & % & & & & & # & q 9 , 9 * 9 ",
"W I D G I I U V @ c m m S I W W E m ' r.r.r.r.{ p N z z B F x *.r.r.r.r.r.r.r.r.r.r.r.r.r.o.S Y ! _ Y L U Y U ] F w U Y ` Y U K ",
"W S b m m K n G : h M b M M c k f r Q r.r.r.r.$.Y ` ` ~ U z v 6.r.r.r.r.r.r.r.r.r.r.r.e.r.:.i l B S N S N x x L P & 9 q q y j j ",
"K k k l x S x D ; e k c b f a 8 i e U r.r.r.r.r.r.r.e.r.2.i ~ r.r.r.r.3. ... .+.| 4.r.r.r.9.B h h h z z N h y F L # 0 0 0 9 N N ",
"G x b N B G V K @ r c c k a u f i 7 W r.r.e.r.r.e.r.e.r.3.k $.r.e.e.r.X.u v s E < o.r.e.e.r.[ y N N j g j p h G N & h h h j F L ",
"D b N B B N F K @ u k k k i y i i 8 ~ r.r.r.r.r.r.r.r.r.6.N 8.r.r.r.r.^ C Z C ` t Y r.r.r.r.<.p N j y 0 q p h F h # z x N B S G ",
"S B N B C c D K @ u k k f u y y y i m @.$.@.@.+.$.@.$.$.| B $.&.%.&.O.C N C v ^ p y %.#.$.*.X.t 0 q , 9 q p z V i & z z N V B G ",
"B B B x b b m D @ t a s k u i y f d r 5 7 7 e e e e t e y l p h s i u N N N b ! z 9 s p p v 9 t y y j j y 0 y F t * p N B S S U ",
"N B B N b x S D % y k i k i i i f r y f k k k k k c k c l l x B b x x x N C N L p 9 B B N N h N N N z z h i y N y , p N N B F U ",
"x z B G v x N B % u k i k k f h y y f a f f f f h h h h h k l l h h h z p v C C t u C N N N p N N x x z z j N V y , h p N N B L ",
"z h N N z x x K ; e k f i f k h f f f f f f f f f f f f f j l j g g i h z v z L h p F N N N h N z z z z N h N F p , z z N N F B ",
"b z z k j h j U & 6 k f i k k i k f f f f f i i f f f f f f d d d y g h k z p L i t C N p y N N x y h z z h h B g , z N N N N N ",
"z z x h g r y Y & 0 h h j l f d j f d d 8 f i i f f f d d d d q y d g h f i e S 9 p B N N g h h g h N N N p p B h 9 z N N N p h ",
"k b k k e : 3 U & q f f j l d f f d 8 d f f 8 f f f d d d d q q q d g j y 3 * h 9 h N N N N h j p h N x N j y N g 9 h N N p z p ",
"z b b h 0 2 3 P * q j j c d d d d 8 6 d j j c j j f d d q q q d q d j l t 0 * h , N F N p h h g p j N N j j g g 0 y N j z z p p ",
"e t u q 3 3 - V 2 2 8 6 4 3 2 4 6 2 2 2 6 8 8 8 4 3 4 4 = = = 3 3 q q q 4 0 , y 9 q j q 9 9 0 9 0 q q y q 0 q 0 * 0 j t 9 9 9 0 ",
": % ; ; ; : & 2 : + + + + $ + + + + + + + + + + + + + + + + + + & + X + @ o X @ @ + @ ; ; ; @ @ # # X # # # # # O # O % % % ; O ",
"; 1 ; < h W ~ I I D P I P D I n $ j V P m n D V x l k j x k g u o y F H S D K D H K K D K D D I - z L N B V B B N g j h h p u s ",
"e K C S K W K S n c n j j n m I - g j j j f d f f f f j y d l k o k E K E W W E D S M M c c M E - 0 n h z p y y y t y i y u p s ",
"1 F H H H S M k i y f d f d j P - = - - 4 4 6 4 5 q q 5 2 , 2 b 9 0 M M C S S c k a a 8 y i f m 0 # * * - - - & - * & , , 0 9 t ",
"< C S N b b v c k a i c c j c E - - 4 4 4 6 r r r r r 8 6 6 5 S 0 0 N N M S S M k k a u i f i c 0 $ - - - - 4 4 3 3 3 5 , 0 e i ",
"; C H H C b b c c f a f f j n D & 3 4 4 4 q 8 8 q r r r 8 8 6 m 3 0 b k S S M b k k a a i i i l q $ - 4 4 9 9 - 3 5 , , 9 0 0 u ",
"; C H H H S M b c v a f f k c D = 2 4 4 q q 8 8 8 f r 8 8 8 5 c , 0 k N S S S M c k k k u k d f 9 # - - 4 4 - - 3 5 5 , 1 5 e e ",
"< C H F J J H F M v c c c k j D 2 2 6 4 6 8 8 8 y r d 8 6 5 8 r % r k b M M M M c v c a f f f f 4 # 4 - - - 9 4 3 5 5 1 5 w e w ",
"O C J H J J K F M M M s v k a H , 2 4 5 6 6 8 f a 8 7 8 5 8 8 f ; r c c b B S M M c M k k f r y , & 3 - - - - q 5 5 5 e 5 7 5 t ",
"O C J J H C A C M T M a a a a D 3 3 6 6 6 8 y i 8 8 8 8 2 8 2 k : r c m m B S b D M c c k f r y & $ - - - - - 3 3 3 1 5 5 1 1 t ",
"< C J J J H A A M M a a a a a E 5 5 8 e e 8 y r 8 7 5 2 5 2 5 k ; f c c M D S S c m M k a a 8 r & # - - - 3 q - 3 5 q 0 5 1 1 e ",
"< s J A J J J J T v v a a k f W , 1 q q e r d 5 5 5 2 2 2 8 5 f : k m c m D D D c f f k a 8 8 y & $ - - - 3 - 3 3 5 1 3 , 1 1 e ",
"O C A A A J J R A M k k a f k E , 1 5 , t r t 8 5 2 2 2 2 8 8 k ; j D c m D D D m c c k f y y f & & * * - - - 3 3 - , 0 1 3 , t ",
"> A A Z R R R A M v v k a a k D , y 5 5 8 a 8 8 5 5 < 2 2 8 8 f ; j m c D E D D S c c f f i i y % & * * - - q 3 0 9 , , : : , q ",
"9 E A J R E T T A s k h k a c M , S h t a i f 8 8 7 5 8 2 2 2 f ; c m m E D E D S m k k h i f f $ 0 q - 4 0 q 0 0 - - * , , , 1 ",
"% N J C A A s s M s u t t t y c ; c b a r i y i u 8 8 2 2 2 2 8 2 f m j j n c c M c f y r r q y & 3 d q - 0 q 0 q 0 9 , , , & , "
};
