/* XPM */
static char *_646750149610[] = {
/* columns rows colors chars-per-pixel */
"64 64 127 2 ",
"   c #041726",
".  c #15242F",
"X  c #142330",
"o  c #1E2A35",
"O  c #142838",
"+  c #1E2E3A",
"@  c #1F313C",
"#  c #232C35",
"$  c #242F3A",
"%  c #253037",
"&  c #283037",
"*  c #25323C",
"=  c #2A343D",
"-  c #2F383F",
";  c #30373E",
":  c #30393F",
">  c #253442",
",  c #2B3642",
"<  c #273844",
"1  c #2D3A44",
"2  c #273A4A",
"3  c #2D3C4A",
"4  c #303745",
"5  c #323B45",
"6  c #383F47",
"7  c #333D4A",
"8  c #383F4C",
"9  c #393F50",
"0  c #2E404D",
"q  c #34424D",
"w  c #39434D",
"e  c #2E4151",
"r  c #354452",
"t  c #3A4552",
"y  c #374855",
"u  c #3C4955",
"i  c #364758",
"p  c #374959",
"a  c #3D4C5A",
"s  c #3E505E",
"d  c #3E4F60",
"f  c #3F5261",
"g  c #414C56",
"h  c #414E5B",
"j  c #415057",
"k  c #43515E",
"l  c #4A535E",
"z  c #445462",
"x  c #495663",
"c  c #465966",
"v  c #4A5966",
"b  c #4A5768",
"n  c #465A69",
"m  c #4C5C6A",
"M  c #515B67",
"N  c #515E6B",
"B  c #4C5F70",
"V  c #4E616E",
"C  c #52616E",
"Z  c #59646D",
"A  c #4E6272",
"S  c #4F6877",
"D  c #4E6879",
"F  c #546472",
"G  c #596674",
"H  c #566976",
"J  c #5B6A75",
"K  c #526778",
"L  c #536A7A",
"P  c #5C6C7A",
"I  c #5D717D",
"U  c #616D76",
"Y  c #626D79",
"T  c #63727D",
"R  c #6A757E",
"E  c #556F80",
"W  c #577182",
"Q  c #5C7282",
"!  c #647582",
"~  c #687782",
"^  c #647984",
"/  c #6B7A84",
"(  c #677D89",
")  c #6C7E8A",
"_  c #717E87",
"`  c #727E8A",
"'  c #72818B",
"]  c #78838B",
"[  c #7A8691",
"{  c #768891",
"}  c #7D8A93",
"|  c #848E97",
" . c #859199",
".. c #8A949D",
"X. c #8C97A0",
"o. c #8E98A1",
"O. c #939CA4",
"+. c #9DA5AC",
"@. c #A2A9AE",
"#. c #A5ACB3",
"$. c #A7B0B5",
"%. c #AAB1B6",
"&. c #ADB5BB",
"*. c #B0B6BC",
"=. c #B1B9BD",
"-. c #B4BBC1",
";. c #BABFC3",
":. c #BCC1C6",
">. c #BFC7CC",
",. c #C2C7CC",
"<. c #C4C9CE",
"1. c #C6CCD0",
"2. c #CBCDD0",
"3. c #CED1D4",
"4. c #CDD3D8",
"5. c #D5D8DB",
"6. c #DADDDF",
"7. c #DDE0E3",
"8. c #E2E4E6",
"9. c #E3E6E8",
"0. c #E5E8EA",
"q. c #EAEBED",
"w. c #EDEFF0",
"e. c #EFF0F1",
"r. c #F2F3F4",
"t. c #F7F8F8",
"y. c #FEFEFE",
/* pixels */
"z n A P L m m r * m L V V A S C V C C C Z Z C v & j C v C C Z J y Z J J U J F Z r , i a a t h g 9 t 9 t a r 3 e * * 0 p a y s k ",
"P P P I W W ' D * I ' Q ' I I I ' ' ' I ^ ^ / ' - j C Z T / ~ ' u j Z l C Z T { k k ` ! Y ! ! Q F b m G F F H P s 0 P P I I I ^ ",
"a a i p d d B B * c V f k c j c c c c V c k s U - : : : u V l C w - - = - : u F i 7 N F G F B b h d a z k z b F v 0 V m A A V n ",
"k h a a f f B B @ c V c V c c c c V c V V k c ^ - : u w u H V I w : 7 q 6 w j I a 3 G m N G G b z h h h b b c L j 1 m V b A V m ",
"z h d d a a z n @ c V c k c V c V V s u s k V I = 0 v l k C F T w 4 6 6 w u v I i 3 G F b N N b b k d d k B c G y = m z m B m b ",
"z k h i d h z b % c c V V V c s k y - 0 p c c J = y v c m V C T w 7 q w g c v ~ a 3 G F F F b b z b z k z b x b y > d b m A A b ",
"z z z d k d a k % c c c Z v 0 0 0 y a l u j V J = y c c v v v I w 3 u g c m c ~ h 2 F N F F F F b z z z b k d z w = h c m B m m ",
"b b z z z d d k % s c V C v s V l V V V p p k J = 0 l c c m m U y w u j j u j U a 3 B B N F F K F m b b z d d z t = z c b m m B ",
"B b z z z a a c @ c c v V C l H V V m m k V m H * q j m m m C J q w k c s 0 a H y 0 V V m F L G B F B z z h a k j = j m c m A c ",
"B B n z f a a c % c V V C k V V m m c v v m H J < w c V m m m G y w c z y i a J u q H V F F G F G B B b k h i b l = k z b m F m ",
"a h z f d p z c * v Z V k k V l c k x m l c m U = y k c v m c I y u c s r e y I y y J F F B H L K B n b z d r m J * m z b N F F ",
"b b c z f a n b @ v V l s c l k k k m m c c c J = u c c c k s I u a l p q q 3 I g u L C F H P F F m b z d i a B G * m k b F G G ",
"N b b k z d b v & v C N l k s k k v m m m k l J * s c c s r 0 H u j s 0 0 r 2 P a y P A H P L F B m z d a d d F G > b b B G G G ",
"N b b z a z c a * M v v l k j s j v V m c k s C 1 s c f y q 2 H k k s i e r 2 H u y I A P P P A B b d d k k a F N 3 C b F G K G ",
"N b k d k s x u = U M j g u a u u l m v j j u l 1 C C s i p r H s V s y p p y V w 0 I P L H F m m x d a u u i b x 7 G C N G G F ",
"7 3 3 < < 1 , , # 4 4 = & % % = = = = = = - = - o 1 q * 1 2 2 e 0 = = * < < 0 0 > % 3 1 < 2 1 * , < * $ * & $ > , o > > > 2 3 4 ",
"> > > , , , > , , 5 7 7 q 5 q 5 * w q q q q : q 7 1 7 0 q 1 q 1 $ 2 r 7 r r p r y q r r r w q q * = u u u w u u q u j j t w u w ",
"> G G F N b b b x x m M v l G C 1 Z J J U J Z U / ' T T R R / ~ > C ) ^ ^ ! ! ! I S H P I I I ) y y I U R T T R R { ] ' / ' _ ] ",
"> 8 4 9 9 4 4 4 - 1 = 4 5 - 1 a = 4 - 1 q u s j Z C k x j C m m 1 7 i t a r r r q q t w 3 1 3 c y * 0 1 0 q u u l k l v l v x x ",
"> , 4 4 4 4 4 4 4 4 4 ; 5 q q v = q w w w j C Z J v k c c H C C < 3 i r i a d f s s p y w q r B p * w u u a v v c m m v M M M N ",
"> 4 4 7 7 7 4 4 1 4 4 = 5 7 q C , w x x a s c C m a k x m F G F > 7 p r e 3 e 3 0 e s p i 9 r B p = c c v V V V m C C M C C C Z ",
"$ 4 4 4 7 4 4 4 5 , , 4 , 5 8 C 4 u c k R o.#.&.#.| J c c m F G , < e C } +.#.@...( z 0 i i r m u 3 V m C C F F C Z C C Z C N Z ",
"$ 4 4 4 7 4 7 4 4 5 : 4 7 4 7 m 7 w J <.y.y.y.y.y.y.t.5.[ l v Z $ k :.t.y.y.y.y.y.y.9...3 i 9 b y 1 m V H F H H G F C C Z C M M ",
"$ 4 4 4 4 7 7 4 5 4 7 q 1 5 5 N = v q.y.y.t.y.y.y.y.y.y.O.s C v Z r.y.y.y.t.y.y.t.y.y.y.-.9 3 z u < c m H H J J G C M M M N M M ",
"$ , 4 4 4 4 7 7 7 4 8 8 , 5 7 C * %.y.t.y.y.y.y.y.y.y.q.C m m T q.y.t.y.y.y.y.y.y.y.y.y.y.O.> n y * k v C H C G C m v x v M N M ",
"$ 4 4 4 4 4 4 7 4 8 8 7 , - 7 C q 7.y.y.y.6.[ ` ] +.q.-.k V c &.y.y.y.y.w.o.~ ' :.y.y.y.y.r.k k y 1 c c C F C F N v k z k x M v ",
"# 4 4 4 4 7 7 7 4 7 5 1 1 5 7 C q q.y.y.y.:.r u p q c C c c F q.y.y.y.y.~ 2 a e , ;.y.y.y.y.| i u 1 c m V C C m v k k k x x l x ",
"$ 4 4 4 4 7 4 4 4 1 5 , , = q V , 6.y.y.y.y.,.J a a k z b z / y.y.y.y.:.e f f a < Y y.y.y.y.=.k i 1 m m C V m c k c x l x x h l ",
"& 4 4 4 4 7 7 7 7 4 4 4 - - q Z % %.y.t.y.y.y.y.:.R a c c e | y.y.y.y.X.3 f f p 7 a r.y.y.y.3.v w 0 v m m v c k a g c x k a q u ",
"$ 4 4 4 7 9 7 4 1 4 = = = - 0 m * V 0.y.y.y.y.y.y.y.&.b s >  .y.t.y.y. .e f a p 7 t 8.y.y.y.6.c 0 3 l v v z a a r u c v k 8 , 7 ",
", g g 8 9 t t r 8 5 4 : , , , V 0 v T 2.y.y.y.y.y.y.y.,.p 2 ..y.y.y.y.o.p z f f a a 8.y.t.y.6.j q w C l k a a a a k b m h r 7 7 ",
"$ 4 8 4 , 7 3 7 7 4 , 4 , - = a * u q = R 2.y.y.y.y.y.y.' O } y.y.y.y.o.@ r 3 q q y e.y.y.y.2.7 3 = g q 1 = 1 1 1 7 1 7 1 , , 1 ",
"# # & & * $ % % $ $ $ , , , , > , $ * * X o Z 3.y.y.y.y.+.  G y.y.t.y.%.X * + o . v y.y.y.y.:.* 1 * & * = * * = * * q q 0 0 - 0 ",
"~ P F J U Y T Z > x C N H P ! ! ^ ) m c m N 2 k e.y.y.y.<.m T e.y.y.y.t.' m F I 1 @.y.y.y.y.$.G ~ ' / T T R R { Z y T R R / T P ",
"~ F m N N J N J > k B b m B b d G t.<.O./ J k [ t.y.y.y.$.s f :.y.y.y.y.0. .I { =.y.y.y.y.y.U j V C V C C V V P J - q q q u k l ",
"G c c x v F v G $ r c c b k h 9 F t.y.y.t.r.e.y.y.y.y.y.~ s c ~ t.y.y.y.y.y.t.t.y.y.y.y.y.*.a c l v c c l k u H P = q q q y c Z ",
"G m m m C G F Y $ t b n b d a i G y.y.t.y.y.y.y.y.y.y.-.c F F k ..y.y.y.y.y.y.y.t.t.y.y.1.V l s c V l k l s k H Z * s s l l F I ",
"H m V C C V G P > i z c k a i i x 7.y.y.y.y.y.y.y.t.%.b m C V V n { 7.y.y.y.y.y.y.y.t.=.V V V V v m u 5 q s k H s * l c V V F P ",
"C C V C m m H P $ a k z k i a a a x ] #.;.<.<.;.O.J a c v v m C F z V } &.>.1.4.&...I a V S k y w q 1 q w j c F s = l V V H C J ",
"C C C V m m N G $ p a d k i t a a g 3 q i a a p p a c k k v m N m m n f f n n ! y @ V V V H u y u u k v u q s Z y = k c Z F F T ",
"V C C V V m C H * i k k z a a a h t h h h h z z b z k z l x b m v c c c V S V I s r V V V V k V V V c c k u u V s = j V V V H T ",
"c l C J c v V C * u z a z k h h u a h a h h h h h k k k k z x x l k s c f V V S y y S V V V s V V c c V k c C Z u : k c V V Z I ",
"c k V V c c v J > r z h d d z h g h h h h h d h h h h h k k x l k g u j k c c I j y F V V c V V V s k k V k V Z s < c c V V S Z ",
"m c c c c l l T > 9 k h h k z h k z h h h h h i h a h h h h g g g u g c c c s I s y H V s s l c c s s V V k k C j 0 c c V V V V ",
"c c c c g t u R , 6 k h l x g g h h h g i h 9 h g h h h g g g g u g j l j a y F q s Z V V s k s j k V V V s s C j 0 c V V V c s ",
"z c c k q , 5 T = 6 k k x l h h h g 9 g h h h h h h h g t g w w w g k k u 7 - k 1 k V V V k k j s j V v V l a V j q c V c s f s ",
"c b m k 8 5 5 U = t x l x l g g g 9 8 g l l l l l g g g w w w t w g l l w q - j 0 V H V c k k k j l V V l l j j q u C k c c s s ",
"r y a r 5 5 ; Z 4 4 8 7 6 4 4 6 6 7 4 4 8 9 8 9 6 6 6 6 : : ; 5 5 w w w 0 q 1 u 0 q l q q 0 q q q q u w w q w q = q k r q q 0 r ",
"< > > * > , $ 4 = # # # # # # # # # # & # # # # # # o o # # o # = # o o o $ $ $ $ # $ > $ , $ > % % o % % % % @ % % % * * * @ @ ",
"* 3 > 2 h ! ` Y Y G G U Y U Y M & j U N Z N G N N x x l v c g u + y H L H H P G K H P P P K G P q j P V S Z Z V c k k c z s p f ",
"7 P F F Q ! L F M b M b l M Z Y ; l l l l g l l h g h l u g k z + c ! P Q Q Q Q P F b N b b B Y : q C k l j u u u u u p a p a z ",
"3 L K F G F B z a a g g h g l U : ; : ; 5 6 6 4 8 w q 6 4 4 5 m 3 q m B A F B B d d a i a h h C q % - - : : : - - 1 - 1 2 q 3 y ",
"2 A K B B m m b z d 9 b l l b Q ; ; 6 6 6 8 g t t t t 8 7 8 9 F 0 q C m B G F B k f d d h h i M q & : - : : : 6 7 4 7 1 3 q w a ",
"2 A F F B m n b b b h a l l b G ; 5 6 6 6 8 9 9 9 u t 9 9 9 7 C q q v c B F B b b z d d a a i b q & 6 : 6 q q : 5 7 5 5 7 7 0 p ",
"> A L L L B F m b b z d z z b G ; : 6 6 8 t 9 8 9 u a 9 9 9 9 x 1 7 c m N G F B b z z d i z h h q % : 6 : q 6 : 5 5 3 3 3 3 r i ",
"> B L L L G K K B n b b z h b G 4 5 7 7 8 9 9 t u t t g 8 7 9 t * t x v B F B B b n b k k h a g q % : : : : : q 7 7 7 7 7 q r e ",
"@ V L K K H P L B B B f n f b B - 5 6 7 8 9 9 g i i 9 9 9 9 4 d , t b m m N F N N B b z z h 9 g - = : : : : : : 5 7 4 w q 7 3 i ",
"@ A L L D S S D E B B f f f d P 1 5 8 8 9 8 t a i 9 9 9 7 9 4 b < r b C b F G b F B b z z h t a = & 5 : : : 6 q 5 7 3 q 3 7 3 r ",
"> D L L K K D L B B f d d d d Q 7 7 8 t 9 t u t 9 7 9 4 4 7 4 z , h b b N F G B b N B z z d 9 9 * % : : : 5 q : 5 7 q q 3 3 3 r ",
"@ f L D L L L L E f n d d h d ! 7 3 8 w r r a 7 3 7 4 4 4 4 7 h , z N x F G P K B h h z d 9 9 i = = 5 : : : : 5 5 7 5 3 7 3 3 r ",
"@ A D D D L L L D B n z d h k ! 3 5 7 < 9 i i 7 7 4 4 4 4 9 9 z > l N b G G G G F b b z h u a g = = : - : 6 : 5 : q 1 0 3 3 , r ",
"2 D D D W W W D A B z z d d z L , u q 7 t a t 9 3 4 2 7 4 4 9 z > l N M G G E F F b x h h a h p * & : - : : 6 5 q : 0 : , - 1 w ",
"0 W L W W W E E A f z f z f b B < F k t h h d i 9 9 9 4 4 4 9 h > b G M G Q G G F m x h h a g h & 5 w : 6 q 6 q 5 0 - = - - 1 0 ",
"* V H A D D f f A f a r r t i b < v m h i a a i i 9 9 4 4 4 4 9 4 h M b l M b b N b h a i t t u - q u w : q w q w q 0 - 0 0 = 1 "
};
