/* XPM */
static char *_646750143565[] = {
/* columns rows colors chars-per-pixel */
"64 64 130 2 ",
"   c #02121E",
".  c #0C1C29",
"X  c #1E2B35",
"o  c #152A39",
"O  c #1D2D3A",
"+  c #1F313C",
"@  c #232C35",
"#  c #242E3A",
"$  c #253037",
"%  c #283037",
"&  c #25323C",
"*  c #2A343D",
"=  c #2F383F",
"-  c #30373E",
";  c #30393F",
":  c #243442",
">  c #2C3642",
",  c #273844",
"<  c #2D3A44",
"1  c #273A4A",
"2  c #2D3C4A",
"3  c #303745",
"4  c #323B45",
"5  c #383F47",
"6  c #333D4A",
"7  c #383F4C",
"8  c #2C3F50",
"9  c #393F50",
"0  c #2E404D",
"q  c #35424D",
"w  c #39434D",
"e  c #2E4151",
"r  c #344452",
"t  c #3A4552",
"y  c #374855",
"u  c #3C4955",
"i  c #374758",
"p  c #374959",
"a  c #3D4C5A",
"s  c #3E505E",
"d  c #3E4F60",
"f  c #3F5260",
"g  c #414C56",
"h  c #414D5B",
"j  c #415057",
"k  c #43515E",
"l  c #4A535E",
"z  c #445462",
"x  c #495663",
"c  c #465965",
"v  c #4A5966",
"b  c #4A5768",
"n  c #465A69",
"m  c #4C5C6A",
"M  c #515B67",
"N  c #515E6B",
"B  c #4C5F70",
"V  c #4E616E",
"C  c #52616E",
"Z  c #59646D",
"A  c #4E6272",
"S  c #4F6877",
"D  c #4E6879",
"F  c #546472",
"G  c #596674",
"H  c #566976",
"J  c #5B6A75",
"K  c #526778",
"L  c #536A7A",
"P  c #5C6C7A",
"I  c #5D717D",
"U  c #636D76",
"Y  c #626E79",
"T  c #63727D",
"R  c #6A757D",
"E  c #556F80",
"W  c #577182",
"Q  c #5C7282",
"!  c #647482",
"~  c #687782",
"^  c #657984",
"/  c #6B7A84",
"(  c #677D89",
")  c #6C7E8A",
"_  c #737D86",
"`  c #737E89",
"'  c #74828C",
"]  c #79848D",
"[  c #7C8691",
"{  c #768891",
"}  c #7D8891",
"|  c #828C95",
" . c #848F99",
".. c #85929B",
"X. c #8A949C",
"o. c #92999E",
"O. c #8E99A1",
"+. c #929CA4",
"@. c #959FA8",
"#. c #9AA1A6",
"$. c #9DA5AB",
"%. c #9EA8AF",
"&. c #A0A7AE",
"*. c #A4AAAE",
"=. c #A4ACB3",
"-. c #A9AEB2",
";. c #A6B0B5",
":. c #AAB1B5",
">. c #ACB4BA",
",. c #B1B6BC",
"<. c #B4B8BB",
"1. c #B5BCC1",
"2. c #C0C5CA",
"3. c #C3C8CD",
"4. c #C9CED2",
"5. c #CED2D5",
"6. c #D0D3D6",
"7. c #D3D6DA",
"8. c #D5D9DC",
"9. c #D9DCDE",
"0. c #DBDEE1",
"q. c #DDE0E2",
"w. c #E5E7E9",
"e. c #E7E9EB",
"r. c #EAECED",
"t. c #EFF1F2",
"y. c #F3F4F5",
"u. c #F7F7F8",
"i. c #F7F8F9",
"p. c #FEFEFE",
/* pixels */
"z n A P P n n r & V D V V S V V V V V V Z C N v $ j N M C Z Z H q Z J U Z J Z H r > u u u h h g 9 9 9 r a t 2 e * + 0 p a u u z ",
"P P P I E E ' K & I ' ' ' L I ^ ' ' ' ^ ^ / / ' ; s C Z T / ~ ' a j C M C Z T { h h ) ! Y ! ! Q F N m G K F F I a 0 P P I I I ^ ",
"a a i p d d B B & z V f s c s s k c V v c k s U = = ; ; u m k F w = < % = 4 u Z i 7 N F G F N b h d i x k z b G v 0 V m A A V n ",
"k h a a z f B B + c V f V c v v n V c V V j V I = ; u w a H C I w = q q q q j J i 8 G N B G G b z h h h b z n K k < v V m A A n ",
"z h d d i d z n $ c V c c c c v V V s u a s n I , 0 j l c V Z I w ; q q w a l I i 2 G F z N N m b k h d z B z G t : m z n m F c ",
"z k h i h h n z + c c V V v c c k u < 0 u c V P , w V k V V C T q ; w w j v n R a 2 K F G F b n z b z k z b x n t > k b N A B n ",
"z z z d z k d z $ c c c Z V 0 0 0 q s k u j V J * q V V c c v P w 6 w j l v c / h 1 F B N K G F b z z z z z d x q = h n b B m m ",
"b b z z z i d k + j V c V v s v c V V V u y k P * q s l l V v T w q a j s u s U a 8 N N N F G F A B b b z k d z w * z z n m N B ",
"m b b z z a a c & c V v V V l H C V v V k V V Z * q k v v m m P y u k c s 0 a Z y 0 A V B F K F A N n n z h i z s * k v c n F v ",
"B B n f f a a c + c V v V l V V v V n v v m G J * y z V m m m J w q c z p y a J y q H V C F G F K A B n h h g x l * k z b m F m ",
"a k z z a p z c $ c C V k k V l l s v m l c m P * r l z v v c I w u c s r 0 r I y t P F C F K K K N n b z d 9 B H * n z b B F F ",
"m z c z d d n b $ V V l s k l k k k m m c c c J * y c c c c s I u u c p r 0 0 I a a L C K J J K N B b z d i i F G * n k b F G G ",
"N b b z f k n b % v N N V k k s k v m m v k k G , a n c s r 0 P a j s e 0 r < P a y P A L P P A B b z h p k k A G : b m N G G K ",
"B b z k a z b a * M v v l j j a s v m m v k s Z , s c k y 0 1 F k k p y r r 1 P p u P S P P P A A B z d k h d A N < B n F G G G ",
"N b z h s k z a * Y M k g a g a a k v c k j u l = C C s y a r F k V k r p p y V q 0 I P L L F n m x d i u u u n x 6 P C B G G G ",
"8 2 2 > > > > * @ 4 > & % % % % = % = = * = * < @ , 0 = < 1 1 r < , < * , , 1 e * $ < < : < , = > > : # * # # > : X # : : 3 1 3 ",
": : : 3 : 3 : > 4 4 6 6 6 6 q < * w q q q 4 q ; 4 0 4 0 0 4 0 < O > 6 r r i i i r q q q r q q q & , u u p w u u r u k g u w a w ",
"> G F F N b b b x x v M v x Z C < Z G J J U J U / ' T T R R / ~ > F ) ! ! ! T ! I S P I I I I ) y q P T R R T R R { ' ' / _ _ ' ",
": 9 3 9 7 6 3 3 > > > 3 4 > < a * 4 = < q u a j C C z x k C v V 1 q p p p i r r q q u q 0 < 2 c y * 0 < < q a a l l k v l v l l ",
"# 3 3 3 3 3 3 3 > 3 - - 5 5 t m < q w w w j V C J v k x v H C C : 6 t y y y a a s s a p q w r A a * w u u a c v n v v m M M v Z ",
": > 3 3 3 6 3 3 3 < 3 * 4 3 < v # 4 k l j l Z F V a u k m C G F : & 2 0 e t d i e e r 0 2 3 1 b 0 + v c v V C V m C M m C Z N J ",
"# < 6 6 7 3 3 3 < 4 > 3 = g _ ..R ' C c V V V ' o.| | ` m m C H < T ' ' [ K r F { ' { ' ] ` ` | ] m v V V F C C C F Z C Z C M Z ",
"# 3 3 3 3 3 6 3 3 3 4 4 > l p.p.p.p.} j C V V 3.p.p.p.e.m v m m l p.p.p.p.] , @.p.p.p.p.p.p.p.p.p.*.y F H F H H G F Z C Z N v M ",
"# 3 3 3 3 7 3 6 4 3 6 6 4 > 7.p.i.p.%.s H V J r.p.p.p.i.T c C l _ p.p.p.y.n 1 +.p.p.p.p.i.p.p.i.p.$.y C F P J P G C M m M N M N ",
"# > 3 3 3 3 3 7 6 3 7 7 4 # =.p.i.p.3.v C n ' p.p.p.p.p.X.k G c $.p.i.p.5.a e @.p.p.p.p.p.p.p.p.p.*.q m C G F J C m v x v M M M ",
"# 3 3 3 3 6 6 3 3 7 7 2 4 @ ` p.p.p.r.m m z +.p.p.p.p.p.>.s C m 4.p.i.p.%.e r @.p.p.p.i.+.[ [ O...Z s v C F m F m v k z l x v v ",
"@ 3 3 3 6 3 3 6 4 6 6 < 4 % x i.p.p.p.T c k 1.p.p.p.p.p.8.n b P y.p.p.p.' p e #.p.p.p.u.h O : i , & c m C F Z n v c k k z x l M ",
"# 3 3 3 3 3 6 6 3 > 4 > < < 6 0.p.p.p.o.a v 0.p.p.r.i.p.y.H a { p.p.p.y.n f e O.p.p.p.i.Z t k A c 4 v m V V v c k l k x x z h l ",
"% 3 3 3 3 7 6 3 6 3 3 3 = < < 1.p.i.p.,.y J i.p.p.1.t.p.p.' : #.p.i.p.4.p f e +.p.p.p.p.y.y.y.u.r.Z k m m v c k y h c x l a 9 t ",
"# 3 3 3 6 6 6 3 3 > * = = = : X.p.p.p.8.y [ p.p.p.} r.p.p.+.o 1.p.i.p.%.e f e O.p.p.p.p.p.p.p.p.u.Z s v v c a a u u c v k 7 > 6 ",
"> g g 7 9 t t t 7 4 3 > > > * T p.p.p.i.h $.p.p.y.F 7.p.p.1.r q.p.p.p...p n p @.p.p.p.p.p.p.p.p.p.U v x k a a a a s b m h r 2 q ",
"# 3 7 3 1 6 2 6 6 4 < = > = * a 9.p.p.p.Z <.p.p.6.& -.p.p.9.v u.p.p.y.c 1 r + X.p.p.p.p.<.*.-.-.*.g u q < * < < < 4 < 6 < > > < ",
"# @ % % & @ $ $ # # # > : > < O -.p.i.p.| 5.p.p.&.  ' p.p.r.' p.p.p.5.+ O & . } p.p.p.i.g X * * & * * * * * * * & * q 0 4 < q < ",
"T P F J Y Y T Z : c C M G P ~ P $.p.p.p.4.t.p.p.#.k _ p.p.u.6.p.p.p.1.S P P m ;.p.p.p.i.{ I G P I / ~ I T R T { Z q T ! / R T T ",
"! H m M m P M Y # z B n C B b i J p.p.p.i.p.p.p.I s n e.p.p.i.p.p.p...n V V s %.p.p.p.i.X.' / _ } R V V m V v U J = q q q u k c ",
"G c c c b Z v G # r b b b k d i a 0.p.p.p.p.p.w.k p a 3.p.p.p.p.p.u.J z n V p $.p.p.p.p.p.p.p.p.p.;.p v c z s C I * q q q t v C ",
"P v v V C J F P # t b b z d i h 8 ,.p.i.p.i.p.2.s v s =.p.i.p.i.p.8.V V V A z ;.p.i.p.p.p.p.p.i.p.:.a l l s k H C % k k l c F I ",
"G m V C C C G P : i z c k a a h 6  .p.p.p.p.p.=.a n s | p.p.p.p.p.>.s A F S c ;.p.p.p.p.p.p.p.p.p.,.< q 0 s c H k $ c v n C C P ",
"C C C V V b F P # p f z k i u i t F $.&.&.&.=.Y a z z C %.-.=.-.>.) s V A A f } ;.#.;.%.=.;.%.o.#.U = q w j c Z s = c v C H C J ",
"C C C V n m Z G & i a z z h i u h a > 6 8 8 r a c z z k t a a c s z V V V A V ( e , f s f n 0 * < q z c a q a C y * k c C G F T ",
"m C C V n V C H & p k k z p a a h t h z k z z z z z z z x x v M V c c n V A V Q s r A A V C V V S V k V j u u V u * s V V C H T ",
"v c C J v v V C & p z h z z h k u u h i h h h h h z h z l z x v k j k k f V A A y y A V V A s V V k V c V c V Z u 0 k k V V H I ",
"c k V V c c v P & t z h a h z h a k h h h h h h h h h h h l z l j g s j z c c I j y H V V c c V V s c c c l V H a < k s V V V H ",
"v c v c l l l T > q z h h z z a z k h h h h h i h h h h h h g g g a s l z c s I s y H V s u V c c u k k V k k Z j 0 V V V c V V ",
"c c c k a t u R * 6 k h l x g g l h h h i g g i g h h h g g w g u u k k k u r F q s C V V s z k j c V c c k s C j 0 z V V c c k ",
"c v c c q > 5 T = 7 k h x x g h g g 9 g h h h h h h h g g w g w w g j k u 4 = l 0 j C V V k k k j k V V V l a V a q c V v c z s ",
"z b m k 7 > 4 Y - w x h x l g g h 9 7 9 l l l l h g g g w w w u w g l l w q = j 0 V Z V c j l j a l V V l l j j w u V c n z s s ",
"y y u r 4 4 = Z 3 3 9 7 5 3 3 3 7 5 3 3 7 9 9 9 5 5 7 5 ; - - 4 5 w w w q q < u 0 w k y q 0 0 q w w u w q q w q = 0 l q q q 0 r ",
"> : & : : 3 % 3 > @ @ @ @ % @ @ @ @ @ % @ @ @ @ @ @ @ X @ @ @ @ * @ X O # O # # # @ # : # : # : $ $ X $ $ $ $ $ $ $ X & & & : + ",
": 1 , , h ! _ Y U G U U U G U M % l G Z N Z Z Z m x x l x x h y X u K G F G P G K G P P P G G P 0 j P V S Z C V V k l c z s i f ",
"6 Q F F Q ! P F b x M x l M Z U - g x l l g h k h h h k u g z c + c ! L Q Q Q Q P A B N N b F P 0 w C l l j u u u y y p a i a f ",
"8 K K F F K A z h i g h h h h Y - - - ; 5 4 5 7 6 w w 6 < 3 4 b < q B B F F N B k d i i h i h N q $ = % = ; ; = = = = < < q 0 y ",
"1 B F C B m b z z d h h b h b U - ; 5 5 7 7 t t t t 9 9 7 7 7 F q q C n A K K B z z d i h h h b 0 % ; = ; ; ; 5 4 4 4 2 2 r r p ",
": F K A A m n n b z h d h b b Y - ; 5 5 7 w 9 9 7 g g t 9 9 7 N 0 q v c A N N b z b d d i a i x q % 5 ; 5 q q ; 4 6 4 < < q q p ",
": A K L K C B C b b z d h b l Q - 4 5 5 7 w 9 9 9 u g 9 9 9 6 b < q c m K F N B b z z k i z h h 5 $ ; 5 ; q 5 ; 4 6 2 4 2 6 t y ",
": A L L L K L K B n b b b h h G 3 3 5 7 7 w 9 t u t t t 6 9 6 i & t b b N A A B n b n z d z u g q $ ; ; ; ; ; q 4 6 6 6 6 8 r e ",
": V L K L K L H B B B f n n d A < 4 6 7 7 7 9 g i i 9 9 9 6 9 h : t b b m C C C N b b b z d 9 g < * 4 ; 4 = 4 5 6 6 < r 7 8 6 r ",
"+ A L L K S S S E B B f d d d P < 4 7 7 7 9 t a t 9 9 9 2 9 3 z > t b N N F A b F F B z h h t t * % ; ; = ; ; 4 4 4 6 r 2 6 2 i ",
": A L K L K D D B n b d d d d Q 4 6 7 t 9 t u t 9 6 6 2 3 9 3 z : h v b F G G A b B B z h d 9 g * $ ; ; ; 4 ; 4 4 6 q 6 2 2 8 r ",
"o B L K L L D L E n f d d h h ! 6 < r q r t a 6 6 6 3 3 3 3 9 h > z N b N G G G b h h z d 9 i i * $ ; ; ; 4 5 4 4 6 6 < 2 2 3 r ",
"+ A D D K L L I D n b z d d z Q < 4 6 < t u i 9 6 3 3 3 3 9 9 z 3 h N b F G Q G N b b z h u u h * * = = ; 5 ; ; ; 0 < , 4 < < t ",
", D D D W W W D A n n z d h z P < p q 6 t i t 9 6 3 1 3 1 9 9 h 3 b N b F G G G F b b h h a a u & * = = ; ; q 5 q = q 0 < > < r ",
"0 Q L L W W E E D f c d d k n B , F k i a h h i 9 9 9 6 3 3 3 h # b G M Q G E G F N x z k a a h * 4 w ; ; w w q q = = = < < < < ",
"& V S S D D f n n f p t i t i b < b b k u i i i i 9 8 3 3 3 3 9 3 h M l l M b b m b h u i t w u * 5 g q q ; w q w q q < = < < < "
};
