/* XPM */
static char *_647877009282[] = {
/* columns rows colors chars-per-pixel */
"64 64 230 2 ",
"   c #1C0000",
".  c #2D0100",
"X  c #260000",
"o  c #340200",
"O  c #3B0300",
"+  c #3E0801",
"@  c #430400",
"#  c #4A0500",
"$  c #4E0B00",
"%  c #460901",
"&  c #520600",
"*  c #5B0700",
"=  c #540A00",
"-  c #5C0A00",
";  c #4E1200",
":  c #5C1400",
">  c #551703",
",  c #650D00",
"<  c #6A0D00",
"1  c #710C00",
"2  c #6C1300",
"3  c #6C1C00",
"4  c #641801",
"5  c #731400",
"6  c #7C1C00",
"7  c #771902",
"8  c #5D2204",
"9  c #532012",
"0  c #7B2401",
"q  c #772601",
"w  c #78350A",
"e  c #6C2D0D",
"r  c #784328",
"t  c #851C00",
"y  c #8B1C00",
"u  c #911D00",
"i  c #852401",
"p  c #8D2301",
"a  c #892C02",
"s  c #932600",
"d  c #942D00",
"f  c #9C2C00",
"g  c #9A2200",
"h  c #9A3301",
"j  c #963703",
"k  c #823618",
"l  c #A32C00",
"z  c #A52700",
"x  c #A33200",
"c  c #AA3300",
"v  c #AC3C01",
"b  c #A43901",
"n  c #B33D00",
"m  c #B63A00",
"M  c #9A450A",
"N  c #874519",
"B  c #984612",
"V  c #99511E",
"C  c #8E410D",
"Z  c #AA4604",
"A  c #B34202",
"S  c #BC4201",
"D  c #BA4B03",
"F  c #AF540C",
"G  c #BB5209",
"H  c #B4560C",
"J  c #A75315",
"K  c #B55B15",
"L  c #B86719",
"P  c #BF600A",
"I  c #8B5224",
"U  c #985926",
"Y  c #A56428",
"T  c #B66724",
"R  c #BA793E",
"E  c #AE6731",
"W  c #C24B03",
"Q  c #C94700",
"!  c #D14A01",
"~  c #C55104",
"^  c #CB5503",
"/  c #C95A08",
"(  c #D25303",
")  c #DA5602",
"_  c #D55C04",
"`  c #DB5A03",
"'  c #D35F09",
"]  c #E25902",
"[  c #CC620C",
"{  c #DC6206",
"}  c #DC6B0B",
"|  c #D5640A",
" . c #DC720E",
".. c #C7721C",
"X. c #DA7616",
"o. c #C76B16",
"O. c #EB6A04",
"+. c #E26B0A",
"@. c #E76605",
"#. c #F16A02",
"$. c #EB730B",
"%. c #ED7B0E",
"&. c #E5720D",
"*. c #F47D0B",
"=. c #FB7D09",
"-. c #F97505",
";. c #E57B13",
":. c #C67728",
">. c #CF7825",
",. c #B87E46",
"<. c #DF8A1D",
"1. c #FB830B",
"2. c #F4830D",
"3. c #EB8314",
"4. c #ED8A1A",
"5. c #E7811A",
"6. c #F38312",
"7. c #FB8D13",
"8. c #F58A15",
"9. c #FC9413",
"0. c #FC941B",
"q. c #FB9B1C",
"w. c #F99715",
"e. c #F6890D",
"r. c #FEA51D",
"t. c #FEAC1D",
"y. c #FEA316",
"u. c #FFB11F",
"i. c #C7853D",
"p. c #D68B36",
"a. c #D99030",
"s. c #E58A24",
"d. c #E99429",
"f. c #F79D25",
"g. c #E69838",
"h. c #FCA623",
"j. c #FEAA23",
"k. c #FCAB2A",
"l. c #FCA42A",
"z. c #FEB325",
"x. c #FCB42C",
"c. c #FEBB2C",
"v. c #FFBA26",
"b. c #F7A435",
"n. c #FFBE33",
"m. c #FCBC3C",
"M. c #F7B638",
"N. c #EDA42E",
"B. c #FFC32E",
"V. c #FEC433",
"C. c #FFCC3B",
"Z. c #FED43D",
"A. c #B58650",
"S. c #B39A7B",
"D. c #CA8848",
"F. c #D79448",
"G. c #C79554",
"H. c #D99B58",
"J. c #CB9446",
"K. c #EC9F43",
"L. c #D7A757",
"P. c #D6A74D",
"I. c #E8A448",
"U. c #F9B947",
"Y. c #E6A857",
"T. c #F7B856",
"R. c #EEB153",
"E. c #DDB96D",
"W. c #D3AA72",
"Q. c #D7AE6B",
"!. c #EBB767",
"~. c #F3B961",
"^. c #EAB574",
"/. c #FDCA47",
"(. c #FEDD44",
"). c #FED648",
"_. c #FCC859",
"`. c #FEDA59",
"'. c #FED656",
"]. c #FEE44A",
"[. c #FEE357",
"{. c #FFF35C",
"}. c #EEC368",
"|. c #F4C46A",
" X c #FAC966",
".X c #FED463",
"XX c #FFDB62",
"oX c #FCD96A",
"OX c #E8C677",
"+X c #F7C877",
"@X c #FCD579",
"#X c #FEEC64",
"$X c #FDE768",
"%X c #FFF26D",
"&X c #FEF768",
"*X c #FDE273",
"=X c #FDE17B",
"-X c #FFEC76",
";X c #FFF776",
":X c #E8BE87",
">X c #DAC880",
",X c #FBD988",
"<X c #F9D997",
"1X c #E7D08B",
"2X c #FFED84",
"3X c #FDE78B",
"4X c #FEF38D",
"5X c #FFFA8C",
"6X c #FEF285",
"7X c #FEEC93",
"8X c #FAE69B",
"9X c #FEFC94",
"0X c #FEF799",
"qX c #F9DDA8",
"wX c #FCE9A5",
"eX c #FEFAA8",
"rX c #FEEBB6",
"tX c #FEF4B4",
"yX c #FFFDB2",
"uX c #FFFDBB",
"iX c #FEF0BD",
"pX c #FFFEC5",
"aX c #FFFDCB",
"sX c #FDF4C8",
"dX c #FEFDD4",
"fX c #FEFEDB",
"gX c #FEFFE2",
"hX c #FFFFEC",
"jX c #FEFFF9",
"kX c None",
/* pixels */
"kXkXkXkXkXkXkXkXkXkXkXkXkXkXkXkXkXkXkXkXkXkXkXkXkXkXkXkXkXkXkXkXkXkXkXkXkXkXkXkXkXkXkXkXkXkXkXkXkXkXkXkXkXkXkXkXkXkXkXkXkXkXkXkX",
"kXkXkXkXkXkXkXkXkXkXkXkXkXkXkXkXkXkXkXkXkXkXkXkXkXkXkXkXkXkXkXkXkXkXkXkXkXkXkXkXkXkXkXkXkXkXkXkXkXkXkXkXkXkXkXkXkXkXkXkXkXkXkXkX",
"kXkXkXkXkXkXkXkXkXkXkXkXkXkXkXkXkXkXkXkXkXkXkXkXkXkXkXkXkXkXkXkXkXkXkXkXkXkXkXkXkXkXkXkXkXkXkXkXkXkXkXkXkXkXkXkXkXkXkXkXkXkXkXkX",
"kXkXkXkXkXkXkXkXkXkXkXkXkXkXkXkXkXkXkXkXkXkXkXkXkXkXkXkXkXkXkXkXkXkXkXkXkXkXkXkXkXkXkXkXkXkXkXkXkXkXkXkXkXkXkXkXkXkXkXkXkXkXkXkX",
"kXkXkXkXkXkXkXkXkXkXkXkXkXkXkXkXkXkXkXkXkXkXkXkXkXkXkXkXkXkXkXkXkXkXkX: 8 kXkXkXkXkXkXkXkXkXkXkXkXkXkXkXkXkXkXkXkXkXkXkXkXkXkXkX",
"kXkXkXkXkXkXkXkXkXkXkXkXkXkXkXkXkXkXkXkXkXkXkXkXkX: 4 ; kXkXq : 3 0 M L C kXkXkXkXkXkX3 kXkXkXkXkXkXkXkXkXkXkXkXkXkXkXkXkXkXkXkX",
"kXkXkXkXkXkXkXkXkXkXkXkXkXkXkXkXkXkXkXkXkXkXkXkX: = & $ kXkX2 x _ S 6.r.a kXkXkX& kX: ; kXkXkXkXkXkXkXkXkXkXkXkXkXkXkXkXkXkXkXkX",
"kXkXkXkXkXkXkXkXkXkXkXkXkXkXkXkXkXkXkXkXkXkXkXkX, : 4 i - . # x =.O.%.7.b p Z v a 5 kXkXkXkX& kXkXkXkXkXkXkXkXkXkXkXkXkXkXkXkXkX",
"kXkXkXkXkXkXkXkXkXkXkXkXkXkXkXkXkXkXkXkXkXkXkX$ $ O 0 S m 6 i O.1.=.7.t.%.{ ^ { / kXkXkX@ O - kXkXkXkXkXkXkXkXkXkXkXkXkXkXkXkXkX",
"kXkXkXkXkXkXkXkXkXkXkXkXkXkXkXkXkXkXkXkXkX= $ j a 4 6 A ^ = W y.w.| 6.w.+.x i A j kXkX@ O O * # kXkXkXkXkXkXkXkXkXkXkXkXkXkXkXkX",
"kXkXkXkXkXkXkXkXkXkXkXkXkXkXkXkXkXkXkXkXkXkX@ j } n 7 M } h 2.t.[ 6 h v A } _ s O kXkX- & # # @ % kXkXkXkXkXkXkXkXkXkXkXkXkXkXkX",
"kXkXkXkXkXkXkXkXkXkXkXkXkXkXkXkXkXkXkXkXkXkXkX@ Z ~ kXa 4.r.q.t./ @ ; $ kX[ B.D 2 kXO O @ # O O @ kXkXkXkXkXkXkXkXkXkXkXkXkXkXkX",
"kXkXkXkXkXkXkXkXkXkXkXkXkXkXkXkXkXkXkXkXkXkXkXkX0 H kXkX .0.f.B.G 5 q O kXP.;Xw.S 2 $ O # O O $ @ kXkXkXkXkXkXkXkXkXkXkXkXkXkXkX",
"kXkXkXkXkXkXkXkXkXkXkXkXkXkXkX6 d kXkXkXkXkXkXkXB ..kXkXi F  .;.Z f / o._.;X$Xc.#.( x * * - - # $ kXkXkXkXkXkXkXkXkXkXkXkXkXkXkX",
"kXkXkXkXkXkXkXkXkXkXkX@ O kXkXkXa x i kXkXkXkXq M.o.$ q 2 > H ^ h l k.&X`.c.].Z.7.=.] c y y < O o kXkXkXkXkXkXkXkXkXkXkXkXkXkXkX",
"kXkXkXkXkXkXkXkXkXkXkX@ kXkXkXkXkX5 = kXO 5 p X.h.4. .;.r.H H %. .5.].'.&.3.z.x.t.-.1.-.y * & O kXkXkXkXkXkXkXkXkXkXkXkXkXkXkXkX",
"kXkXkXkXkXkXkXkXkXkXkXkXkXkXkXkXO # @ , f z ( O.4.V.8.8.].4.W v.B.Z.V.z.2.@.#.9.*.` O.=.n < * O kXkXkXkXkXkXkXkXkXkXkXkXkXkXkXkX",
"kXkXkXkXkXkXkXkXkXkXkXkXkXkXkX* s t c { =.) @.7.x.8.` 3.V.5.&.c.u.t.w.w.Z g x 8.&.( ~ $.^ 1 , @ kXkXkXkXkXkXkXkXkXkXkXkXkXkXkXkX",
"kXkXkXkXkXkXkXkXkXkXkXkXkXo @ $ n ! @.9.y.=.1.V.].x.k.r.B.X. .0.1.=.~ 7 * @ i *.f.f.+.( S , , # o kXkXkXkXkXkXkXkXkXkXkXkXkXkXkX",
"kXkXkXkXkXkXkXkXkXkXkXkXkX@ * * - t ~ =.9.1.1.V.c.[.#Xt.n.d.D ) ] c # o @ o j %.c.h.;.m c # @ O O kXkXkXkXkXkXkXkXkXkXkXkXkXkXkX",
"kXkXkXkXkXkXkXkXkXkXkXO kXkX# * @ O 2 Q $.r.7.w.q.V.f.$.j.d.t f l & O o kX: | O.2.f 5 u t @ o @ # o kXkXkXkXkXkXkXkXkXkXkXkXkXkX",
"kXkXkXkXkXkXkXkXkXkXkXkX# O kXO O O # f } v.r.q./.c.h s w.<.* i t 2 2 2 0 Z ) ` -.z 1 6 < & o @ o O kXkXkXkXkXkXkXkXkXkXkXkXkXkX",
"kXkXkXkXkXkXkXkXkXkXkXkXkXkXkXkXo o O v -.9.r.c.(.V.i # / [ j x c f ^ &.W n m ] #.Q y , 2 & o o kXkXkXkXo kXkXkXkXkXkXkXkXkXkXkX",
"kXkXkXkXkXkXkXkXkXkXkXkXkXkXkXkXkX. o n #.@.9.y.t.x.v @ @ B X.n ( l G ^ f l { ) ) -.t * g y 1 = kXkXkXkX. kXkXkXkXkXkXkXkXkXkXkX",
"kXkXkXkXkXkXkXkXkXkXkXkXkXkXkX@ # @ * p ! @.9.-.y.t.` 7 , K g.{ / p s 6 d ` W l +.{ , , g z 5 & o kXkXO O kXkXkXkXkXkXkXkXkXkXkX",
"kXkXkXkXkXkXkXkXkXkXkXkXkXkX@ & @ , * , ! q.r.-.u.(.r.{ | / d.W x c 6 7 A ^ 5 h n , $ # * * $ O + kXO @ O kXkXkXkXkXkXkXkXkXkXkX",
"kXkXkXkXkXkXkXkXkXkXkXo @ O O @ O # @ - _ v.9.9.Z.#X[.q.f.` s.p d v 7 f _ S u W l @ @ & O @ # kXkXO kXkXkXkXkXkXkXkXkXkXkXkXkXkX",
"kXkXkXkXkXkXkXkXkXkXkX@ O o o kXkXo # < } Z.z./.&X%X%Xl.$.0.o.f D W A S 6.%.5.4.] i @ kXkXkX# kXkXo . kXkXkXkXkXkXkXkXkXkXkXkXkX",
"kXkXkXkXkXkXkXkXkXkXkXO kXo o kXo @ O j n.c.B.V.[.].{.N.^  .v D { +.@.` f./.#Xf.=.i O kXkXkXO # o kXkXkXkXkXkXkXkXkXkXkXkXkXkXkX",
"kXkXkXkXkXkXkXkXkXkXkXkXkXkXkXkXO @ @ G u.2.9.9.c.V.(.k.^ [ X.;.f.l.*.$.f.$X$Xj.;.% X kXkXkXo % @ o kXkXkXkXkXkXkXkXkXkXkXkXkXkX",
"kXkXkXkXkXkXkXkXkXkXO O kXkXkXkX@ - * W -.] #.=.v.C.'.6X'.`..X`.l.8.*.6.l.n.oX/.h kXkXkXkXkXO O . o kXkXkXkXkXkXkXkXkXkXkXkXkXkX",
"kXkXkXkXkXkXkXkXkXkXkX& O o . o @ % O D ) m ) -.V.#X5XaX9XoXU.XX5.{ $.+.8.b.,Xs.d o kXo kXkXO O kXo = & o kXkXkXkXkXkXkXkXkXkXkX",
"kXkXkXkXkXkXkXkXkXkXkXkX# o o . X X   J { z #.-.).&X4XuX5XoXT.'.3.%.%.$.=..Xg.( D X O O @ kXkX% kXo $ * # o kXkXkXkXkXkXkXkXkXkX",
"kXkXkXkXkXkXkXkXkXkXkXkXkXkXO + O @ o J +.{ q.=.v.&X-X*X=XwX@X3Xk.k.q.0.n.).} / F . o O @ o kXo . O @ o O @ kXkXkXkXkXkXkXkXkXkX",
"kXkXkXkXkXkXkXkXkXkXkXkXkXkXkXkXkX% O H -.m.(.9.j.%XXX} ,XhX7X$Xn.V./.c.V.k.[ A Z kXkXkX. kXo . o @ @ kXkXkXkXkXkXkXkXkXkXkXkXkX",
"kXkXkXkXkXkXkXkXkXkXkXkXkXkXkXkXkXkXkXJ..X4X6X;X&X[.b.3.iXjXeXC.9.`.5X%Xx.8.| a ; kXkXkXo kXo kXkXkXO O kXkXkXkXkXkXkXkXkXkXkXkX",
"kXkXkXkXkXkXkXkXkXkXkXkXkXkXkXkXkXkXa.=XpXfXuX;X5X$X0.x.pXyXeX`.`.uXfX$X3.c.L # o + o kXkXkXkXkXkXkXkXkXkXkXkXkXkXkXkXkXkXkXkXkX",
"kXkXkXkXkXkXkXkXkXkXkXkXkXkXkXkXkXOX/.oXyXdXeX%X7X1X/.oX<XeXdXgXeXgXrXX.s.`.I kX+ @ $ kXkXkXkXkXkXkXkXkXkXkXkXkXkXkXkXkXkXkXkXkX",
"kXkXkXkXkXkXkXkXkXkXkXkXkXkXkXkXkXoX*XeX9X0X0XsXwX,X2X_.U.tXdXkXkXaXg.D m.$Xr . o kX% O % % kXkXkXkXkXkXkXkXkXkXkXkXkXkXkXkXkXkX",
"kXkXkXkXkXkXkXkXkXkXkXkXkXkXkXkXkX2X2X5X`.].yX,XoXsX3Xf.M.i.p.kXkXkX>.~ k.!.kXkXkXkXkXO kXkXkXkXkXkXkXkXkXkXkXkXkXkXkXkXkXkXkXkX",
"kXkXkXkXkXkXkXkXkXkXkXkXkXkXkXkXY |.,XeX#X_.}._.@XgXrX.X2XT B kXkXkX X;.k.L.kXkXkXkXkXkXkXkXkXkXkXkXkXkXkXkXkXkXkXkXkXkXkXkXkXkX",
"kXkXkXkXkXkXkXkXkXkXkXkXkXkXkXkXkXY.|.4XU.| ^ 8XgXrXsX3XU.L F.kXkXkXeX@XXXE.kXkXkXkXkXkXkXkXkXkXkXkXkXkXkXkXkXkXkXkXkXkXkXkXkXkX",
"kXkXkXkXkXkXkXkXkXkXkXkXkXkXkXkXkXR..X_.l. ._. X<X<X^.<Xa 4 kXkXkXkX8XOX1X1XkXkXkXkXkXkXkXkXkXkXkXkXkXkXkXkXkXkXkXkXkXkXkXkXkXkX",
"kXkXkXkXkXkXkXkXkXkXkXkXkXkXkXkXkXoX_._.*X$X9X'.7X:X>.Y.: e kXkXkXkXR 3 I A.kXkXkXkXkXkXkXkXkXkXkXkXkXkXkXkXkXkXkXkXkXkXkXkXkXkX",
"kXkXkXkXkXkXkXkXkXkXkXkXkXkXkXkXkX=X@XfX2X'./.'.gX^.Z C ; 9 ,XkXkXyXW.kXkXkXkXkXkXkXkXkXkXkXkXkXkXkXkXkXkXkXkXkXkXkXkXkXkXkXkXkX",
"kXkXkXkXkXkXkXkXkXkXkXkXkXkXkXkXkX@XrXjXx.2X7XtXdX=XG.> kXkXOXuXkXtXD.kXkXkXkXkXkXkXkXkXkXkXkXkXkXkXkXkXkXkXkXkXkXkXkXkXkXkXkXkX",
"kXkXkXkXkXkXkXkXkXkXkXkXkXkXkXkXkXG.wXsX@XiXgXjXwX_.eX!.T U 1XdXaXdX:.q kXkXkXkXkXkXkXkXkXkXkXkXkXkXkXkXkXkXkXkXkXkXkXkXkXkXkXkX",
"kXkXkXkXkXkXkXkXkXkXkXkXkXkXkXkXkX= K  XkXfXaXkXkX_.kXkX Xp.T.@XdXkXkXG.kXkXkXkXkXkXkXkXkXkXkXkXkXkXkXkXkXkXkXkXkXkXkXkXkXkXkXkX",
"kXkXkXkXkXkXkXkXkXkXkXkXkXkXkXkX3 > 3 D.kXjXhX+Xa.kXkXkXkX_.g.a.aXhXkXT.1XkXkXkXkXkXkXkXkXkXkXkXkXkXkXkXkXkXkXkXkXkXkXkXkXkXkXkX",
"kXkXkXkXkXkXkXkXkXkXkXkXkXkXkXkXkX$ : k kXhXwX:.F F.kXkXkXkXI.F.aX X,X}.oXQ.kXkXkXkXkXkXkXkXkXkXkXkXkXkXkXkXkXkXkXkXkXkXkXkXkXkX",
"kXkXkXkXkXkXkXkXkXkXkXkXkXkXkXkXkXkXkXkX|.,X!.H B W.<XkXkXkX7XkXU.4.3X0XI.g.I kXkXkXkXkXkXkXkXkXkXkXkXkXkXkXkXkXkXkXkXkXkXkXkXkX",
"kXkXkXkXkXkXkXkXkXkXkXkXkXkXkXkXkXkXkXkX!.p.kXg.J +XkXkXwXkX,XkX~./.%X-XM.X.:.kXkXkXkXkXkXkXkXkXkXkXkXkXkXkXkXkXkXkXkXkXkXkXkXkX",
"kXkXkXkXkXkXkXkXkXkXkXkXkXkXkXkXkXkXkXkXL.H.pX|.w Y E E kX+XkXkXgX.X-X`.m.T.~.kXkXkXkXkXkXkXkXkXkXkXkXkXkXkXkXkXkXkXkXkXkXkXkXkX",
"kXkXkXkXkXkXkXkXkXkXkXkXkXkXkXkXkXkXkXkXi.^.tXi.kXkX> U L.~.I.wXfXdXuX_.b.4X1XkXkXkXkXkXkXkXkXkXkXkXkXkXkXkXkXkXkXkXkXkXkXkXkXkX",
"kXkXkXkXkXkXkXkXkXkXkXkXkXkXkXkXkXkXkXkXH.E kXV kXkXY :.N !.K. XeXfXaX3XU.+XS.kXkXkXkXkXkXkXkXkXkXkXkXkXkXkXkXkXkXkXkXkXkXkXkXkX",
"kXkXkXkXkXkXkXkXkXkXkXkXkXkXkXkXkXkXkXkXkXkXkXI kXkXN :.kXG.K.&.I.aXtX2Xk.~.kXkXkXkXkXkXkXkXkXkXkXkXkXkXkXkXkXkXkXkXkXkXkXkXkXkX",
"kXkXkXkXkXkXkXkXkXkXkXkXkXkXkXkXkXkXkXkXkXkXkX; 8 q k d.> D._.>.d.3XtXb.b.E.kXkXkXkXkXkXkXkXkXkXkXkXkXkXkXkXkXkXkXkXkXkXkXkXkXkX",
"kXkXkXkXkXkXkXkXkXkXkXkXkXkXkXkXkXkXkXkXkXkXkXkXe j e Y.i.H.OXkXT.wX7XT.L.kXkXkXkXkXkXkXkXkXkXkXkXkXkXkXkXkXkXkXkXkXkXkXkXkXkXkX",
"kXkXkXkXkXkXkXkXkXkXkXkXkXkXkXkXkXkXkXkXkXkXkXkXkX8 w R A.kXR kXkX+X~.L.kXkXkXkXkXkXkXkXkXkXkXkXkXkXkXkXkXkXkXkXkXkXkXkXkXkXkXkX",
"kXkXkXkXkXkXkXkXkXkXkXkXkXkXkXkXkXkXkXkXkXkXkXkXkXkXkXkXkXkXD.~.<Xa.g.kXkXkXkXkXkXkXkXkXkXkXkXkXkXkXkXkXkXkXkXkXkXkXkXkXkXkXkXkX",
"kXkXkXkXkXkXkXkXkXkXkXkXkXkXkXkXkXkXkXkXkXkXkXkXkXkXkXkXkXkXkXkXkXkXkXkXkXkXkXkXkXkXkXkXkXkXkXkXkXkXkXkXkXkXkXkXkXkXkXkXkXkXkXkX",
"kXkXkXkXkXkXkXkXkXkXkXkXkXkXkXkXkXkXkXkXkXkXkXkXkXkXkXkXkXkXkXkXkXkXkXkXkXkXkXkXkXkXkXkXkXkXkXkXkXkXkXkXkXkXkXkXkXkXkXkXkXkXkXkX",
"kXkXkXkXkXkXkXkXkXkXkXkXkXkXkXkXkXkXkXkXkXkXkXkXkXkXkXkXkXkXkXkXkXkXkXkXkXkXkXkXkXkXkXkXkXkXkXkXkXkXkXkXkXkXkXkXkXkXkXkXkXkXkXkX",
"kXkXkXkXkXkXkXkXkXkXkXkXkXkXkXkXkXkXkXkXkXkXkXkXkXkXkXkXkXkXkXkXkXkXkXkXkXkXkXkXkXkXkXkXkXkXkXkXkXkXkXkXkXkXkXkXkXkXkXkXkXkXkXkX"
};
