/* XPM */
static char *_647877014442[] = {
/* columns rows colors chars-per-pixel */
"64 64 233 2 ",
"   c #170000",
".  c #2C0100",
"X  c #240000",
"o  c #340100",
"O  c #3B0300",
"+  c #3B0900",
"@  c #430400",
"#  c #4B0500",
"$  c #4D0A00",
"%  c #440900",
"&  c #530600",
"*  c #5A0600",
"=  c #540A00",
"-  c #5C0A00",
";  c #5C1400",
":  c #5A1A03",
">  c #4D1100",
",  c #620600",
"<  c #630C00",
"1  c #6C0E00",
"2  c #720E00",
"3  c #7A0E00",
"4  c #651100",
"5  c #6C1200",
"6  c #6D1A00",
"7  c #651F02",
"8  c #741200",
"9  c #7A1400",
"0  c #7B1A00",
"q  c #721B00",
"w  c #782704",
"e  c #7E360A",
"r  c #68280E",
"t  c #7C441C",
"y  c #820E00",
"u  c #821600",
"i  c #851A00",
"p  c #8B1C00",
"a  c #911E00",
"s  c #9B1D00",
"d  c #852300",
"f  c #8D2200",
"g  c #8D2C02",
"h  c #952300",
"j  c #9B2400",
"k  c #9D2C00",
"l  c #922D00",
"z  c #8A3706",
"x  c #983402",
"c  c #A42B00",
"v  c #AB2D00",
"b  c #A12700",
"n  c #A43301",
"m  c #AC3300",
"M  c #AD3C01",
"N  c #A13A03",
"B  c #B43500",
"V  c #BC3B00",
"C  c #B43A01",
"Z  c #C03F00",
"A  c #99450B",
"S  c #9A4E16",
"D  c #8D4715",
"F  c #AA4D0B",
"G  c #B34202",
"H  c #B94805",
"J  c #BE5B0D",
"K  c #B75107",
"L  c #AA5617",
"P  c #B65D18",
"I  c #BA6319",
"U  c #975627",
"Y  c #A95C22",
"T  c #B66825",
"R  c #BB732B",
"E  c #BB7833",
"W  c #AC6D3A",
"Q  c #C34400",
"!  c #CB4C01",
"~  c #C34D06",
"^  c #D34F01",
"/  c #CC5404",
"(  c #C65709",
")  c #D45402",
"_  c #DB5501",
"`  c #DB5C03",
"'  c #D55B05",
"]  c #E25D02",
"[  c #E65800",
"{  c #C9610C",
"}  c #DB670A",
"|  c #C96918",
" . c #DA6D11",
".. c #DB7717",
"X. c #E46304",
"o. c #EB6C06",
"O. c #E46C0A",
"+. c #E66906",
"@. c #F26D04",
"#. c #E9740B",
"$. c #F47206",
"%. c #F2750A",
"&. c #F47D0C",
"*. c #F97907",
"=. c #E57913",
"-. c #C87326",
";. c #CD7F34",
":. c #D27C26",
">. c #885E42",
",. c #9F6A4B",
"<. c #B47C48",
"1. c #FD8D0D",
"2. c #F8840E",
"3. c #E98316",
"4. c #F48411",
"5. c #FC8D13",
"6. c #F38915",
"7. c #FD9414",
"8. c #FC951A",
"9. c #FD9C1A",
"0. c #F89917",
"q. c #EB941E",
"w. c #FEA41C",
"e. c #FEAB1E",
"r. c #FCA21A",
"t. c #FFB11F",
"y. c #DB8629",
"u. c #C7843A",
"i. c #D68935",
"p. c #DE993C",
"a. c #E58D2E",
"s. c #EB972A",
"d. c #F49B27",
"f. c #E18C34",
"g. c #E89636",
"h. c #F39C34",
"j. c #FCA423",
"k. c #FFAA23",
"l. c #FBA72A",
"z. c #FEB124",
"x. c #FDBA29",
"c. c #F9A737",
"v. c #FEBD34",
"b. c #FBB838",
"n. c #EFA93C",
"m. c #FFC233",
"M. c #FDCD34",
"N. c #FECD3B",
"B. c #FEC53C",
"V. c #FED43D",
"C. c #FDD83B",
"Z. c #FFC22A",
"A. c #AF8055",
"S. c #BF986A",
"D. c #D79445",
"F. c #CB9854",
"G. c #CF914C",
"H. c #E49D44",
"J. c #E49B53",
"K. c #DAA149",
"L. c #DCA359",
"P. c #C5A052",
"I. c #EBA849",
"U. c #F1AB43",
"Y. c #F9BA47",
"T. c #E3AB59",
"R. c #EAB558",
"E. c #F6B957",
"W. c #ECB04C",
"Q. c #D4A86C",
"!. c #EAB367",
"~. c #FCC744",
"^. c #FEDC44",
"/. c #FED94A",
"(. c #FED545",
"). c #FCC857",
"_. c #FEDC55",
"`. c #FED059",
"'. c #FEE34C",
"]. c #FEE355",
"[. c #FEE55B",
"{. c #FEEA58",
"}. c #FFF25F",
"|. c #F9C768",
" X c #FEDB64",
".X c #FCD369",
"XX c #E9C876",
"oX c #F7CA75",
"OX c #FAD677",
"+X c #EDC56C",
"@X c #FEED62",
"#X c #FEE46D",
"$X c #FFED6C",
"%X c #FEE563",
"&X c #FEF567",
"*X c #FDE375",
"=X c #FEEC73",
"-X c #FEED7A",
";X c #FEF475",
":X c #FEF57D",
">X c #FEFB75",
",X c #F6D489",
"<X c #E3D19E",
"1X c #EECC8D",
"2X c #FEF58A",
"3X c #FEF98B",
"4X c #FEF784",
"5X c #FCE997",
"6X c #FEFB93",
"7X c #FEFD9C",
"8X c #FFF598",
"9X c #FCE484",
"0X c #EAD7AE",
"qX c #FCE9A8",
"wX c #FFFCA3",
"eX c #FFFCAC",
"rX c #FEF5A6",
"tX c #F7E3B1",
"yX c #FEFDB3",
"uX c #FEFDBA",
"iX c #FFF4B7",
"pX c #FEFCC3",
"aX c #FFFFCB",
"sX c #FFF4CC",
"dX c #FEFDD4",
"fX c #FDFDDB",
"gX c #FBF4DA",
"hX c #F6EAC8",
"jX c #FFFEE5",
"kX c #FEFEEB",
"lX c #FFFEF5",
"zX c #FEFEFD",
"xX c None",
/* pixels */
"xXxXxXxXxXxXxXxXxXxXxXxXxXxXxXxXxXxXxXxXxXxXxXxXxXxXxXxXxXxXxXxXxXxXxXxXxXxXxXxXxXxXxXxXxXxXxXxXxXxXxXxXxXxXxXxXxXxXxXxXxXxXxXxX",
"xXxXxXxXxXxXxXxXxXxXxXxXxXxXxXxXxXxXxXxXxXxXxXxXxXxXxXxXxXxXxXxXxXxXxXxXxXxXxXxX% xXxXxXxXxXxXxXxXxXxXxXxXxXxXxXxXxXxXxXxXxXxXxX",
"xXxXxXxXxXxXxXxXxXxXxXxXxXxXxXxXxXxXxXxXxXxXxXxXxXxXxXxXxXxXxXxXxXxXxXxXxXxXxXxX% xXxXxXxXxXxXxXxXxXxXxXxXxXxXxXxXxXxXxXxXxXxXxX",
"xXxXxXxXxXxXxXxXxXxXxXxXxXxXxXxXxXxXxXxXxXxXxXxXxXxXxXxXxXxXxXxXxXxXxXxXxXxXxXxXxXxXxXxXxXxXO xXxXxXxXxXxXxXxXxXxXxXxXxXxXxXxXxX",
"xXxXxXxXxXxXxXxXxXxXxXxXxXxXxXxXxXxXO o . xXxXxXxXxXxXxXxXxXxXxXxXxXxXxXxXxXxXxXxXxXxXxXxXxXo O O o xXxXxXxXxXxXxXxXxXxXxXxXxXxX",
"xXxXxXxXxXxXxXxXxXxXxXxXxXxXxXxX5 5 # O xXxXxXxXxXxXxXxXxXxXxXxXxXxXxXxXxXxXxXxXxXxXxXxXxXxXxXo o $ O xXxXxXxXxXxXxXxXxXxXxXxXxX",
"xXxXxXxXxXxXxXxXxXxXxXxXxXxXO = 4 - = # xXxXxXxXxXxXxXxXxXxXxXxX; = xXxXx x ; xXxXxXxXxXxXxXxX- - = # xXxXxXxXxXxXxXxXxXxXxXxXxX",
"xXxXxXxXxXxXxXxXxXxXxXxXxXxXxXO # X O xXxXxXxXxXxXxXxXxXxXxXxX6 n j f n ( } G 6 xXxXo = 8 = 8 9 5 < - xXxXxXxXxXxXxXxXxXxXxXxXxX",
"xXxXxXxXxXxXxXxXxXxXxXxXxXxXxX$ < % xXxX4 = xXxXxXxXxXxXxXxXxX6 G ' ! c 9 h G xXxXxXo 1 p 2 c i 9 9 5 $ xXxXxXxXxXxXxXxXxXxXxXxX",
"xXxXxXxXxXxXxXxXxXxXxXxXxXxXO = , - = 5 q 5 O xXxXxXO xXO xXxXx #.8.4.#.x u d xXxXxX5 p p b m 2 9 a - . xXxXxXxXxXxXxXxXxXxXxXxX",
"xXxXxXxXxXxXxXxXxXxXxXxXxX= . - 8 O 6 a 8 8 6 5 $ = = + % 4 h / 9.k.k.w.G 9 > xXxX$ 9 8 a j a i 9 5 @ - 4 xX5 xXxXxXxXxXxXxXxXxX",
"xXxXxXxXxXxXxXxXxXxXxXxXO 9 q 9 8 9 u 8 h f h m f - 5 d G Q ! ! O.5.l.w.0 = xXxX$ - # 1 j u p b 1 xX% 1 i f < xXxXxXxXxXxXxXxXxX",
"xXxXxXxXxXxXxXxXxXxXxXxXo 8 j 8 2 i - # f B a c Q 0 g ! ) *.@.X.` &.8.J O xXxX- 1 o - v j 9 p a p xXxX5 p h 5 xXxXxXxXxXxXxXxXxX",
"xXxXxXxXxXxXxXxXxXxXxXo X = u 9 8 # % - n O./ v / g 6 ) 3.r.7.z.w.z.s.# xXxX< 1 # o < a h a u i b c 5 j 5 - 0 5 xXxXxXxXxXxXxXxX",
"xXxXxXxXxXxXxXxXxXxXo o % - a c j < = Q ) O.e.' ! q.q.e._._.M.m.x.N.s.g xXxX5 & xXxX1 j j p 2 s c k h j $ xXxX% xXxXxXxXxXxXxXxX",
"xXxXxXxXxXxXxXxXxXO O < p s p 1 u 1 = p p h 7.7.@.(.&X].-X>X{.C.M.b.6.O.x xX& O xXxX< a 9 1 u b B c j p o o xXxXxXxXxXxXxXxXxXxX",
"xXxXxXxXxXxXxXxXxXxX5 i p 9 & @ * @ & = # * { z.0.^.3X6X8X].].'.].d...j.~.K.P w xX# p u i 9 8 9 h j h p = o xXxX# xXxXxXxXxXxXxX",
"xXxXxXxXxXxXxXxXxXxX1 9 2 & O # , * # O O * / z.x./.;X-XuX:X{.@X].q.} s.;XwX-X0.{ g Z V B p , 9 p 8 # 1 < # xX$ $ xXxXxXxXxXxXxX",
"xXxXxXxXxXxXxXxXxX# * 1 9 @ O # @ & 0 k * a [ w./.^.~.[.sXwX;X@X@X(.l.Y.$X.X7X3.d.B.+.v v v p 8 u 5 - % @ xXxXo @ O xXxXxXxXxXxX",
"xXxXxXxXxXxXxXxXxXO # 2 1 @ # O @ # h ^ 3 x *.x.>X[.j. XuXwXeX/.'.>X@X8XrXx.%Xj.B  .*.c p 9 8 i i 8 h 8 # xXxXxXo O xXxXxXxXxXxX",
"xXxXxXxXxXxXxXxXO xX# * 9 u 8 * & & < Z c m j.^.>X&Xb._.7X*XeX`.r._.[.wXwX/.w.N.=.s m B j h i 8 < @ 9 u O % xXxXxX. xXxXxXxXxXxX",
"xXxXxXxXxXxXxXxXxXo o 0 Z p 2 * @ O O * C ! } m.@X@Xv.N.$X2X2X*X6.8.Y.%X-X$Xx.M.{.~ s h _ n 0 5 O # 5 $ % @ xXxXxXxXxXxXxXxXxXxX",
"xXxXxXxXxXxXxXxXxXo 1 Q j p 1 * @ . . O 8 Q 4.7.M.^.7.k.^.{.wXwXv.%.g. X%X'.C.M.>X:.y 8 0 i h - xX- = O xXxXxXxXxXxXxXxXxXxXxXxX",
"xXxXxXxXxXxXxXxXxX. h B u u 3 1 # O % # , 0 #.e.x.z.) +.Z.q.i.eX[.d.h.$X#Xm.'.{.>XY.j k # O - # # % xXxXxXxXxXxXxXxXxXxXxXxXxXxX",
"xXxXxXxXxXxXxXxXxXO c c 2 1 u 1 * # # @ 9 V @.t.r.7.m v %.G y R.yX%Xm.4X=XV.}.^.N.V.V j = O O xXxXxXxXxXxXxXxXxXxXxXxXxXxXxXxXxX",
"xXxXxXxXxXxXxX% @ # c h 8 9 2 2 1 3 # = / [ $.7.1.*.m c m 8 h M W.U.#.s.~.C.^.7.#.( M 9 % O & O O O o xXxXxXxXxXxXxXxXxXxXxXxXxX",
"xXxXxXxXxXxXxX# O xXp i u p 2 , 1 1 * l $._ $.1.7.r.Q c u j ) ] } ' ) X.w.C.(.*.m , 9 9 # # - - - i 5 - < # o xXxXo o xXxXxXxXxX",
"xXxXxXxXxXxXxXxX# O f p 8 p , , & # , H @.] @.2.r.x.X.Q a ! X.o.} +.o.*.1.~.n.v p 9 < 0 = 1 , i < h a 9 9 = o . O & O xXxXxXxXxX",
"xXxXxXxXxXxXxXxXxXxX; i 8 = O * , < , ~ 7.*.o.1.*.7.o.C i +.' ' +.5.&.+.2.j. ., - 8 1 9 # - = , = 9 i & , * O . # - . xXxXxXxXxX",
"xXxXxXxXxXxXxXxXxXxXxXxX5 * # , , # O m j.z.*.2._ o.*.h G *.X.) &.5.} +.9.9.6.< # - < 8 . - = # 1 u p @ # * 1 - & - % $ xXxXxXxX",
"xXxXxXxXxXxXxXxXxXxXxXxXxX& @ O % # # N Y.{.M.x.#.$.7./ ) ! O._ %.+.Q } X.=.z.q o O 9 p # o @ O @ * , @ O = i = # = - = xXxXxXxX",
"xXxXxXxXxXxXxXxXxXxXxXxXo . O @ - , * H ~.N.].&Xk.9.[.9.X. .&._ X.V c m c ( k.N   # 9 a = O o O # @ # & - - , < < = - xXxXxXxXxX",
"xXxXxXxXxXxXxXxXxXxXxXxX# % - 9 8 = & K x./.$X6X_.~.eXc.@.6.4.@.o.Q m c n / 7.K xX. = 2 < # & = = . O # < 5 - & # = 5 xXxXxXxXxX",
"xXxXxXxXxXxXxXxXxXxXxXxXxXxX0 8 < 9 3 { OXyX3X:X;XiXyXj.0.7.7.1.*.[ ` ` / X.w.I xXxXO $ & - 8 1 # o O * = < 8 = % xXxXxXxXxXxXxX",
"xXxXxXxXxXxXxXxXxXxXxXxXxXxXxX- < i p 1XpX4X;X@XyXzX#X1.l.w.Z.r.*.4.1.%.X.2.e.F xXxXo . # - 9 2 # O @ 1 0 - = xXxXxXxXxXxXxXxXxX",
"xXxXxXxXxXxXxXxXxXxXxXxXxXxXxXxXxXxXt dXjX6X:X:XuXlXrX~.k.B.$XC.v.m.t.5.2.2.` h & xX# $ = 1 8 = * # # 8 i % xXxXxXxXxXxXxXxXxXxX",
"xXxXxXxXxXxXxXxXxXxXxXxXxXxXxXxXxXxXD.jXzX4X4XuXpXlXkX2XN.*XpX@X(.(.k.k.4.^ u 9 4 . @ # 5 8 & # - , 5 8 = xXxXxXxXxXxXxXxXxXxXxX",
"xXxXxXxXxXxXxXxXxXxXxXxXxXxXxXxXxXxXu.kXzX-X8XkXzXlXkXI.c._.|.~.l.8.z.v.v.) p p 4 o xXo O o xX@ $ < $ = xXxXxXxXxXxXxXxXxXxXxXxX",
"xXxXxXxXxXxXxXxXxXxXxXxXxXxXxXxXxXK J.aXsXOXuXkXpXjXkX!.g.p.l E.OX0.9.=X X} c h xXxXxXxXxXxXxXxXxXxXxXxXxXxXxXxXxXxXxXxXxXxXxXxX",
"xXxXxXxXxXxXxXxXxXxXxXxXxXxXxXxX:.h.!.dXeX4XeXkXdXjXlXgXR.+XF 5XuX@X-XdXY.G i n xXxXxXxXxXxXxXxXxXxXxXxXxXxXxXxXxXxXxXxXxXxXxXxX",
"xXxXxXxXxXxXxXxXxXxXxXxXxXxXxX| Y..XtXlX8X3XyXkXzXzXjXpX2X|.i.=X3X3X4XfX.XA # 6 xXxXxXxXxXxXxXxXxXxXxXxXxXxXxXxXxXxXxXxXxXxXxXxX",
"xXxXxXxXxXxXxXxXxXxXxXxXxXxXxXoX).c.8XuX#X;XyXlXzXzXjX5X`.f.P W.Y.pX;XdXpXK.xXO xXxXxXxXxXxXxXxXxXxXxXxXxXxXxXxXxXxXxXxXxXxXxXxX",
"xXxXxXxXxXxXxXxXxXxXxXxXxXxXxX<XOXF.E.=X6X3XyXlXzXzX,XF E +XS Y..XpXuXzXfXF.xXxXxXxXxXxXxXxXxXxXxXxXxXxXxXxXxXxXxXxXxXxXxXxXxXxX",
"xXxXxXxXxXxXxXxXxXxXxXxXxXxXxXxX>.o <.uX[.3XfXzXzXlXI T <X,XF OX6XaXkXzXtXxXxXxXxXxXxXxXxXxXxXxXxXxXxXxXxXxXxXxXxXxXxXxXxXxXxXxX",
"xXxXxXxXxXxXxXxXxXxXxXxXxXxXxXxXxXr XXpXyXwXkXzXzXpXp.E.dX!.6 Q.eX9XpXzXhXxXxXxXxXxXxXxXxXxXxXxXxXxXxXxXxXxXxXxXxXxXxXxXxXxXxXxX",
"xXxXxXxXxXxXxXxXxXxXxXxXxXxXxXxXU E.wXpXeX7XrXjXdX7XoXg.oXD.F u.R.f.eXgXQ.xXxXxXxXxXxXxXxXxXxXxXxXxXxXxXxXxXxXxXxXxXxXxXxXxXxXxX",
"xXxXxXxXxXxXxXxXxXxXxXxXxXxXxXxXT.sXlXyXY.`.W.u.y.|.xXxXxXxX:.).| 0XpX0XxXxXxXxXxXxXxXxXxXxXxXxXxXxXxXxXxXxXxXxXxXxXxXxXxXxXxXxX",
"xXxXxXxXxXxXxXxXxXxXxXxXxXxXxXXXiXyXfXOXd.5.{ P s.|.xXxXxXxX).g.l 0XiXqXxXxXxXxXxXxXxXxXxXxXxXxXxXxXxXxXxXxXxXxXxXxXxXxXxXxXxXxX",
"xXxXxXxXxXxXxXxXxXxXxXxXxXxXxX5XuX*X5XW.n.O.I.D.3.`.xXxXxXxXU...-.1Xh.R.0XxXxXxXxXxXxXxXxXxXxXxXxXxXxXxXxXxXxXxXxXxXxXxXxXxXxXxX",
"xXxXxXxXxXxXxXxXxXxXxXxXxXxXxX1X3X`.!.u.a...I.d H d..XxXH.J ;.H.Y S J ;.E.xXxXxXxXxXxXxXxXxXxXxXxXxXxXxXxXxXxXxXxXxXxXxXxXxXxXxX",
"xXxXxXxXxXxXxXxXxXxXxXxXxXxXxXF.oXU.G.xX+XK y.a...h.U.!.!.P T.P 5 ; 7 P T xXxXxXxXxXxXxXxXxXxXxXxXxXxXxXxXxXxXxXxXxXxXxXxXxXxXxX",
"xXxXxXxXxXxXxXxXxXxXxXxXxXxXxXxXxXxXxXxXE | D.wXxX!.z U S.T.E.T = xXxXL S xXxXxXxXxXxXxXxXxXxXxXxXxXxXxXxXxXxXxXxXxXxXxXxXxXxXxX",
"xXxXxXxXxXxXxXxXxXxXxXxXxXxXxXxXxXxXxXxXxXx !.fXxXt   xX= G.xXxXR z   S A xXxXxXxXxXxXxXxXxXxXxXxXxXxXxXxXxXxXxXxXxXxXxXxXxXxXxX",
"xXxXxXxXxXxXxXxXxXxXxXxXxXxXxXxXxXxXxXxXxX= L.pX,.xX= 6 A R F.,XY T D ; r . xXxXxXxXxXxXxXxXxXxXxXxXxXxXxXxXxXxXxXxXxXxXxXxXxXxX",
"xXxXxXxXxXxXxXxXxXxXxXxXxXxXxXxXxXxXxXxXxX> R R.F.S L ;.T z Q.1X;.5XW . > + . xXxXxXxXxXxXxXxXxXxXxXxXxXxXxXxXxXxXxXxXxXxXxXxXxX",
"xXxXxXxXxXxXxXxXxXxXxXxXxXxXxXxXxXxXxXxXxX7 I | T.L N E.1XE.qXtXXXrXI ; 7 e . xXxXxXxXxXxXxXxXxXxXxXxXxXxXxXxXxXxXxXxXxXxXxXxXxX",
"xXxXxXxXxXxXxXxXxXxXxXxXxXxXxXxXxXxXxXxXxXD i.L Y xX<.E <.I qXtX.XU.J z L e $ xXxXxXxXxXxXxXxXxXxXxXxXxXxXxXxXxXxXxXxXxXxXxXxXxX",
"xXxXxXxXxXxXxXxXxXxXxXxXxXxXxXxXxXxXxXxXxXxXxXxXxXH.I.!.<.Q.hX,Xs.x 0 D.T.S xXxXxXxXxXxXxXxXxXxXxXxXxXxXxXxXxXxXxXxXxXxXxXxXxXxX",
"xXxXxXxXxXxXxXxXxXxXxXxXxXxXxXxXxXxXxXxXxXxXxXxXxXD.p.y.,XwXE.f.I F R !.xXxXxXxXxXxXxXxXxXxXxXxXxXxXxXxXxXxXxXxXxXxXxXxXxXxXxXxX",
"xXxXxXxXxXxXxXxXxXxXxXxXxXxXxXxXxXxXxXxXxXxXxXxXxXxXxXL u..X|.I.-.-.-.xXxXxXxXxXxXxXxXxXxXxXxXxXxXxXxXxXxXxXxXxXxXxXxXxXxXxXxXxX",
"xXxXxXxXxXxXxXxXxXxXxXxXxXxXxXxXxXxXxXxXxXxXxXxXxXxXxXxXL -.L.E I z xXxXxXxXxXxXxXxXxXxXxXxXxXxXxXxXxXxXxXxXxXxXxXxXxXxXxXxXxXxX",
"xXxXxXxXxXxXxXxXxXxXxXxXxXxXxXxXxXxXxXxXxXxXxXxXxXxXxXxXxXxXe w e xXxXxXxXxXxXxXxXxXxXxXxXxXxXxXxXxXxXxXxXxXxXxXxXxXxXxXxXxXxXxX",
"xXxXxXxXxXxXxXxXxXxXxXxXxXxXxXxXxXxXxXxXxXxXxXxXxXxXxXxXxXxXxXxXxXxXxXxXxXxXxXxXxXxXxXxXxXxXxXxXxXxXxXxXxXxXxXxXxXxXxXxXxXxXxXxX",
"xXxXxXxXxXxXxXxXxXxXxXxXxXxXxXxXxXxXxXxXxXxXxXxXxXxXxXxXxXxXxXxXxXxXxXxXxXxXxXxXxXxXxXxXxXxXxXxXxXxXxXxXxXxXxXxXxXxXxXxXxXxXxXxX"
};
