/* XPM */
static char *_647877017969[] = {
/* columns rows colors chars-per-pixel */
"64 64 219 2 ",
"   c #2D0100",
".  c #340100",
"X  c #3B0200",
"o  c #440300",
"O  c #4B0500",
"+  c #4C0900",
"@  c #440D01",
"#  c #530600",
"$  c #5B0700",
"%  c #540900",
"&  c #5C0A00",
"*  c #4A1405",
"=  c #5A1C04",
"-  c #640C00",
";  c #6B0E00",
":  c #620700",
">  c #641100",
",  c #6C1200",
"<  c #631E00",
"1  c #6D1900",
"2  c #741200",
"3  c #7C1400",
"4  c #7C1A00",
"5  c #721E00",
"6  c #760F00",
"7  c #5F2305",
"8  c #642806",
"9  c #792300",
"0  c #78310C",
"q  c #753818",
"w  c #6F3011",
"e  c #7C421F",
"r  c #7F4F33",
"t  c #841600",
"y  c #841A00",
"u  c #8A1D00",
"i  c #921E00",
"p  c #842300",
"a  c #8B2300",
"s  c #8C2801",
"d  c #942400",
"f  c #9B2300",
"g  c #942C00",
"h  c #9D2A00",
"j  c #9D3300",
"k  c #993A03",
"l  c #863B0C",
"z  c #A22600",
"x  c #A32C00",
"c  c #AB2D00",
"v  c #A53300",
"b  c #AC3200",
"n  c #A43A02",
"m  c #AE3A00",
"M  c #B43400",
"N  c #B93600",
"B  c #B43A00",
"V  c #BC3C00",
"C  c #B02E00",
"Z  c #C23E00",
"A  c #CB3E00",
"S  c #88410C",
"D  c #964408",
"F  c #88491B",
"G  c #974C14",
"H  c #9C571E",
"J  c #A94503",
"K  c #BB4301",
"L  c #B54703",
"P  c #B15B12",
"I  c #B1661D",
"U  c #9D5729",
"Y  c #AE5F21",
"T  c #9D652B",
"R  c #A36126",
"E  c #BA6A22",
"W  c #BA712C",
"Q  c #B67738",
"!  c #C54300",
"~  c #CB4500",
"^  c #C24902",
"/  c #CC4B01",
"(  c #D24C00",
")  c #CE5203",
"_  c #C65808",
"`  c #D45402",
"'  c #DC5401",
"]  c #D45A05",
"[  c #DC5C03",
"{  c #C65F11",
"}  c #E35C01",
"|  c #E95D01",
" . c #E15601",
".. c #C9640B",
"X. c #D86307",
"o. c #D87615",
"O. c #CA6514",
"+. c #E36304",
"@. c #EB6403",
"#. c #E26A06",
"$. c #EC6C05",
"%. c #E46C08",
"&. c #F16B04",
"*. c #F56704",
"=. c #EC720A",
"-. c #EB7609",
";. c #F47406",
":. c #F47904",
">. c #F97A07",
",. c #F37C0B",
"<. c #FB7D09",
"1. c #F67507",
"2. c #E67812",
"3. c #D27824",
"4. c #C67C33",
"5. c #9E744B",
"6. c #B07B4A",
"7. c #D28C1D",
"8. c #F5830D",
"9. c #FC850B",
"0. c #FD8C0C",
"q. c #FB8606",
"w. c #FD970E",
"e. c #EB8817",
"r. c #F38A13",
"t. c #FB8D11",
"y. c #F38914",
"u. c #FB9314",
"i. c #FE9C13",
"p. c #F7971A",
"a. c #FDA41A",
"s. c #FEA819",
"d. c #FDB71F",
"f. c #DB8627",
"g. c #D28C37",
"h. c #E99825",
"j. c #F69E28",
"k. c #E6993A",
"l. c #E6A628",
"z. c #FAA826",
"x. c #FEB323",
"c. c #FFB728",
"v. c #E7A53B",
"b. c #F7A933",
"n. c #FCB835",
"m. c #EAB23D",
"M. c #FEC728",
"N. c #FECD36",
"B. c #FFC938",
"V. c #FED737",
"C. c #AC8153",
"Z. c #A88463",
"A. c #D49848",
"S. c #C5924D",
"D. c #D7A35A",
"F. c #E4A648",
"G. c #FBB847",
"H. c #E9AC56",
"J. c #F1AF4A",
"K. c #D39D6E",
"L. c #D0A370",
"P. c #E7B665",
"I. c #F2BF6A",
"U. c #E1B37F",
"Y. c #FECB44",
"T. c #FDC84B",
"R. c #FED848",
"E. c #FFCC5C",
"W. c #F7C755",
"Q. c #FED956",
"!. c #FEE24A",
"~. c #FEE35B",
"^. c #FFEC5C",
"/. c #FAC56A",
"(. c #FEDC69",
"). c #FCDB74",
"_. c #F0CB72",
"`. c #FEEE64",
"'. c #FEEC6C",
"]. c #FFE668",
"[. c #FFF16B",
"{. c #FEED7D",
"}. c #FEE671",
"|. c #FEF475",
" X c #FEF878",
".X c #CAAD8C",
"XX c #D8C181",
"oX c #FDDC86",
"OX c #F6CC85",
"+X c #FEE583",
"@X c #FDE58F",
"#X c #FFEC8C",
"$X c #FFF788",
"%X c #FEED9C",
"&X c #FDE597",
"*X c #FFF593",
"=X c #FEFA9A",
"-X c #F9DBB9",
";X c #FCE6A7",
":X c #FEF4A4",
">X c #FEFBAD",
",X c #FEF8A8",
"<X c #FCEBB5",
"1X c #FFE5BD",
"2X c #FFFEB3",
"3X c #FFFEBB",
"4X c #FFF7B3",
"5X c #FFFDC3",
"6X c #FEFFCC",
"7X c #FFF5C6",
"8X c #FDFCDD",
"9X c #FDFAD3",
"0X c #F5E7D0",
"qX c #FEFEE2",
"wX c #FDFDED",
"eX c #FEF7E0",
"rX c #FDFDF3",
"tX c #FEFEFE",
"yX c None",
/* pixels */
"yXyXyXyXyXyXyXyXyXyXyXyXyXyXyXyXyXyXyXyXyXyXyXyXyXyXyXyXyXyXyXyXyXyXyXyXyXyXyXyXyXyXyXyXyXyXyXyXyXyXyXyXyXyXyXyXyXyXyXyXyXyXyXyX",
"yXyXyXyXyXyXyXyXyXyXyXyXyXyXyXyXyXyXyXyXyXyXyXyXyXyXyXyXyXyXyXyXyXyXyXyXyXyXyXyXyXyXyXyXyXyXyXyXyXyXyXyXyXyXyXyXyXyXyXyXyXyXyXyX",
"yXyXyXyXyXyXyXyXyXyXyXyXyXyXyXyXyXyXyXyXyXyXyXyXyXyXyXyXyXyXyXyXyXyXyXyXyXyXyXyXyXyXyXyXyXyXyXyXyXyXyXyXyXyXyXyXyXyXyXyXyXyXyXyX",
"yXyXyXyXyXyXyXyXyXyXyXyXyXyXyXyXyXyXyXyXyXyXyXyXyXyXyXyXyXyXyXyXyXyXyXyXyXyXyXyXyXyXyXyXyXyXyXyXyXyXyXyXyXyXyXyXyXyXyXyXyXyXyXyX",
"yXyXyXyXyXyXyXyXyXyXyXyXyXyXyXyXyXyXyXyXyXyXyXyXyXyXyXyXyXyXyXyXyXyXyXyXyXyXyXyXyXyXyXyXyXyXyXyXyXyXyXyXyXyXyXyXyXyXyXyXyXyXyXyX",
"yXyXyXyXyXyXyXyXyXyXyXyXyXyXyXyXyXyXyXyXyXyXyXyXyXyXyXyXyXyXyXyXyXyXyXyXyXyXyXl.o.g k n yXyXyXyXyXyXyXyXyXyXyXyXyXyXyXyXyXyXyXyX",
"yXyXyXyXyXyXyXyXyXyXyXyXyXyXyXyXyXyXyXyXyXyXyXyXyXyXyXyXyXp yXyXyXyXyXyXyXyXyXh.s.+.! s % % + yXyXyXyXyXyXyXyXyXyXyXyXyXyXyXyXyX",
"yXyXyXyXyXyXyXyXyXyXyXyXyXyXyXyXyXyXyXyXyXyXyX# . yXyXyX% 1 g yXyXyXyXyXyXyXn v $.X.y y 3 , % > yXyXyXyXyXyXyXyXyXyXyXyXyXyXyXyX",
"yXyXyXyXyXyXyXyXyXyXyXyXyXyXyXyXyXyXyXyXO o $ u L yXyX. O , L 4 yXyXyXyXyXyX) ] 9.X.3 ] K u 6 h yXyXyXyXyXyXyXyXyXyXyXyXyXyXyXyX",
"yXyXyXyXyXyXyXyXyXyXyXyXyXyXyXyXyXyX+ yXX o n %.9...k L K g v u # yXyXyXyXyX..0.9.[ ! u.1.M M [ yXJ 9 yXyXyXyXyXyXyXyXyXyXyXyXyX",
"yXyXyXyXyXyXyXyXyXyXyXyXyXyXyXyXyXyXyXyXyXP d.0.&.<.w.0.=.+.` x ; & % y 2 + K 1.0.9.&.1.| Z ' +.^ n & yXyXyXyXyXyXyXyXyXyXyXyXyX",
"yXyXyXyXyXyXyXyXyXyXyXyXyXyXo yXyXyXyXD 7.c.:.8.0.0.a.=.V X.:./ N ! X.) 2 ; s ' +.9.<.&.&.+.x ` ^ u & yXyXyXyXyXyXyXyXyXyXyXyXyX",
"yXyXyXyXyXyXyXyXyXyXyXyXyX- & yXyXyXk 8.x.u.r.X._ -.X.M ..a.>.^ z [ >.p > 4 d ' | @.9.8.@.X.m ` c 3 o yXyXyXyXyXyXyXyXyXyXyXyXyX",
"yXyXyXyXyXyXyXyXyXyXyXyXyX; ; o yXD #.@.s.0.:.@.X.( ( ` =.%.$./ B c p yXyX; m | ( ( =.9. .-.&./ z 3 yX. yXyXyXyXyXyXyXyXyXyXyXyX",
"yXyXyXyXyXyXyXyXyXyXyXyX; 3 ; & , ` &.>.i.i.;.$.i.$./ #.=.B h 2 4 3 & yXyXyXB | ` Z ( Z ! 1.@.c u - yXyXyXyXyXyXyXyXyXyXyXyXyXyX",
"yXyXyXyXyXyXyXyXyXyXyXyXu t + # ^ >.$.>.>.9.i.9.<.&.^ ! } ^ g > n K ] p yXyX_ 0.@. .! i N $.,.c 3 & @ X + yXyXyXyXyXyXyXyXyXyXyX",
"yXyXyXyXyXyXyXyXyXyXyXyXd y O y / +.t.9.>.0.9.@. .| ,.A ,.Y._ ^ $.w.a.9 % , 2.a.' ( M ! / ;.1.V 3 # O % + yXyXyXyXyXyXyXyXyXyXyX",
"yXyXyXyXyXyXyXyXyXyXyXyXd $ - d  .<.,.*.1.$.~ c N ( 9.2.Q.$X..^ &.-.r., v ' $.X.z M / ) Z 1.( ` N 2 O & % O yXyXyXyXyXyXyXyXyXyX",
"yXyXyXyXyXyXyXyXyXyXyXyX4 O f ! ,.<.|  . .Z f i M [ q.n. X^.k.#.8.( L p [ %.,./ z t ^ ` V  .[ [ @.u o O O o yXyXyXyXyXyXyXyXyXyX",
"yXyXyXyXyXyXyXyXyXyXyXyX2 & h ] y.@.| ~ ! ! z u M @.E.Q.}.{.^.R.a.1.j ..X.K =.] N x X.u.K h V ! ` 2 O O + & % yXyXyXyXyXyXyXyXyX",
"yXyXyXyXyXyXyXyXyXyXyXd 2 & i e.1.' |  .Z N z c ^ :.@X>X3X8X X X`.c.n L s u } } ! Z @.` a - , & f h % # % O X yXyXyXyXyXyXyXyXyX",
"yXyXyXyXyXyXyXyXyXyXyX2 - - y u.$.( | | N z M ` ' >.Y.2X5X,X[.'.,X$Xv.K ^ m.=.~ ` ~ ' B u 4 4 + ; 3 3 ; , # X yXyXyXyXyXyXyXyXyX",
"yXyXyXyXyXyXyXyXyXyXyX> O # d <.@.' ' ( N i B 9.:.u.V.^.`. X[.|.,X,X|.~.Q.'.q.*.[ ! ( v v h s ; - & f f % o % 4 B yXyXyXyXyXyXyX",
"yXyXyXyXyXyXyXyXyXyXyXyX- X d @.| N N V V c M ^ p.s.d.R.!.R.=X5X5X2X~.$X6X6X/.} ~ c B @.$.; % , 4 ; z d . o 3 f x yXyXyXyXyXyXyX",
"yXyXyXyXyXyXyXyXyXyXyXyX> % o v ` c f i N V Z c ] u.r.V.V.M.$X6X8X2X{.*X:X3X/.=.N t # a 5 o > ; - 6 2 ; , - 3 - g yXyXyXyXyXyXyX",
"yXyXyXyXyXyXyXyXyXyXyXyXX O . u ( ( z i i B ( / ) i.,.c.c.'.$X[.>X).j.y.r.a.c.i.M - 2 & o 4 , % 3 3 ; - ; - & % k yXyXyXyXyXyXyX",
"yXyXyXyXyXyXyXyXyXyXyXyXyXX . - ! @.N t 3 6 / @.o.N.:.q.q.).|.R.B.y.%.p.p.z.x.` d O - f - - # 4 C 3 2 ; & 3 & 4 yXyXyXyXyXyXyXyX",
"yXyXyXyXyXyXyXyXyXyXyXyXyXyXX X , B [ c i i b ~ o.V.t.<.y.).R.j.B.p.,.c.R.N.e.N 2 & # a a & - t u & - t 4 s % p yXyXyXyXyXyXyXyX",
"yXyXyXyXyXyXyXyXyXyXyXyXyXyXyX- # : ] ( f c c ~ y.d.x.p.j.{.b.o.B.p.[ y.z.y.z.p # - $ u f 2 : o o # $ d v > O > yXyXyXyXyXyXyXyX",
"yXyXyXyXyXyXyXyXyXyXyXyXyXyXyXyXO ; 1 K ` V h / t.a.N.Y.n.{.p.e.~.p.] 2.p.x.l.@   O $ 3 i ; $ O # & d u m y % yXyXyXyXyXyXyXyXyX",
"yXyXyXyXyXyXyXyXyXyXyXyXyXyXyXyXyXyXyX+ g d - N ,.B.`.].#X,Xe.#.m.t.e.Q.n.c.e.8 yX  X - u 6 ; 6 - % x - d v yXyXyXyXyXyXyXyXyXyX",
"yXyXyXyXyXyXyXyXyXyXyXyXyXyXyXyXyXyXyXyXO u u ` z.$X=X(.$X<X{ K O.n.2.n.c.u.2.S yXyX  - ; 2 d 3 # # y 2 g yXyXyXyXyXyXyXyXyXyXyX",
"yXyXyXyXyXyXyXyXyXyXyXyXyXyXyXyXyXyXyXyXyX# L 0./.8X,X(.'.;X2.) [ b.p.T.T.n.8.S . o X & 3 - c f & , - & % yXyXyXyXyXyXyXyXyXyXyX",
"yXyXyXyXyXyXyXyXyXyXyXyXyXyXyXyXyXyXyXyXyXg v.R.%XtXwX}.%XOXu.b.,.n.`.6X:X!.c.S o , % & ; - c y % - . X yXyXyXyXyXyXyXyXyXyXyXyX",
"yXyXyXyXyXyXyXyXyXyXyXyXyXyXyXyXyXyXyXyXyX2.#X{.{.tXtX:XH.3.I.2X}.z.W.qX).c.}.q o yXyX& o % - O + % yXyXyXyXyXyXyXyXyXyXyXyXyXyX",
"yXyXyXyXyXyXyXyXyXyXyXyXyXyXyXyXyXyXyXyXyXE :Xk.H.tXtXK._ W 9XrX%Xq.G.$XE.b.;XF   + yXyXyXyXyX. X yXyXyXyXyXyXyXyXyXyXyXyXyXyXyX",
"yXyXyXyXyXyXyXyXyXyXyXyXyXyXyXyXyXyXyXyXyXR k._ &XwXtXU.D D.tXrXE.Y.f.F.9XoX&X6.yXyXyXyXyXyXyXyXyXyXyXyXyXyXyXyXyXyXyXyXyXyXyXyX",
"yXyXyXyXyXyXyXyXyXyXyXyXyXyXyXyXyXyXyXyXyXyXo.m /.>XwXyX.X0XtX,X^.6XL.A.@XoX7X.XyXyXyXyXyXyXyXyXyXyXyXyXyXyXyXyXyXyXyXyXyXyXyXyX",
"yXyXyXyXyXyXyXyXyXyXyXyXyXyXyXyXyXyXyXyXyXyXE 4 o.*XwXyXtX7X(.|.$XqXtX_.J H.7X-XyXyXyXyXyXyXyXyXyXyXyXyXyXyXyXyXyXyXyXyXyXyXyXyX",
"yXyXyXyXyXyXyXyXyXyXyXyXyXyXyXyXyXyXyXyXyXyX3.f H.3XwXrXtX6X/.{.6XrXtX0XD.).9X-XyXyXyXyXyXyXyXyXyXyXyXyXyXyXyXyXyXyXyXyXyXyXyXyX",
"yXyXyXyXyXyXyXyXyXyXyXyXyXyXyXyXyXyXyXyXyXyXk.k.4X8XtXwXrXtX;XeXtXrXtXtX9X*X8XyXyXyXyXyXyXyXyXyXyXyXyXyXyXyXyXyXyXyXyXyXyXyXyXyX",
"yXyXyXyXyXyXyXyXyXyXyXyXyXyXyXyXyXyXyXyXyXyXP.7X8X+X8X8XwXtXqX8XrX;XrXtX%XQ.;XyXyXyXyXyXyXyXyXyXyXyXyXyXyXyXyXyXyXyXyXyXyXyXyXyX",
"yXyXyXyXyXyXyXyXyXyXyXyXyXyXyXyXyXyXyXyXyXw &X+X&X+X<XtXyXU.R F.0XeX8XrX>XY.k.yXyXyXyXyXyXyXyXyXyXyXyXyXyXyXyXyXyXyXyXyXyXyXyXyX",
"yXyXyXyXyXyXyXyXyXyXyXyXyXyXyXyXyXyXyXyX* 9 P.4X%XJ.h.I.yXP.* H C.rX8X,X2XE.k.yXyXyXyXyXyXyXyXyXyXyXyXyXyXyXyXyXyXyXyXyXyXyXyXyX",
"yXyXyXyXyXyXyXyXyXyXyXyXyXyXyXyXyXyXyXyX0 f.J.3.<X@Xz.o.yXyXU < C.tX9XT.@XoXyXyXyXyXyXyXyXyXyXyXyXyXyXyXyXyXyXyXyXyXyXyXyXyXyXyX",
"yXyXyXyXyXyXyXyXyXyXyXyXyXyXyXyXyXyXyXyXG H.e # Q +XW.l S.*XyX4.1XqX4XI A.Q yXyXyXyXyXyXyXyXyXyXyXyXyXyXyXyXyXyXyXyXyXyXyXyXyXyX",
"yXyXyXyXyXyXyXyXyXyXyXyXyXyXyXyXyXyXyXyX< = yXyX0 @XS.9 P./.yXF Y g.Y P C.* yXyXyXyXyXyXyXyXyXyXyXyXyXyXyXyXyXyXyXyXyXyXyXyXyXyX",
"yXyXyXyXyXyXyXyXyXyXyXyXyXyXyXyXyXyXyXyXyXyXyXyXyXL._.W _.z.D.yXyXyXyX4.W yXyXyXyXyXyXyXyXyXyXyXyXyXyXyXyXyXyXyXyXyXyXyXyXyXyXyX",
"yXyXyXyXyXyXyXyXyXyXyXyXyXyXyXyXyXyXyXyXyXyXyXyXyXyXXX}.+XI.q yXyXyXyXD.E yXyXyXyXyXyXyXyXyXyXyXyXyXyXyXyXyXyXyXyXyXyXyXyXyXyXyX",
"yXyXyXyXyXyXyXyXyXyXyXyXyXyXyXyXyXyXyXyXyXyXyXyXyXX * 5.C.5.F = @ yX8 Q F yXyXyXyXyXyXyXyXyXyXyXyXyXyXyXyXyXyXyXyXyXyXyXyXyXyXyX",
"yXyXyXyXyXyXyXyXyXyXyXyXyXyXyXyXyXyXyXyXyXyXyXyXyXyX8 yXyXyXyXyX. * yXw 7 yXyXyXyXyXyXyXyXyXyXyXyXyXyXyXyXyXyXyXyXyXyXyXyXyXyXyX",
"yXyXyXyXyXyXyXyXyXyXyXyXyXyXyXyXyXyXyXyXyXyXyXyXyXyXyXyXyXyXyXyXyX7 H R yXyXyXyXyXyXyXyXyXyXyXyXyXyXyXyXyXyXyXyXyXyXyXyXyXyXyXyX",
"yXyXyXyXyXyXyXyXyXyXyXyXyXyXyXyXyXyXyXyXyXyXyXyXyXyXyXyXyXyXyXyXyXyX7 yXyXyXyXyXyXyXyXyXyXyXyXyXyXyXyXyXyXyXyXyXyXyXyXyXyXyXyXyX",
"yXyXyXyXyXyXyXyXyXyXyXyXyXyXyXyXyXyXyXyXyXyXyXyXyXyXyXyXyXyXyXyXyXyXyXyXyXyXyXyXyXyXyXyXyXyXyXyXyXyXyXyXyXyXyXyXyXyXyXyXyXyXyXyX",
"yXyXyXyXyXyXyXyXyXyXyXyXyXyXyXyXyXyXyXyXyXyXyXyXyXyXyXyXyXyXyXyXyXyXyXyXyXyXyXyXyXyXyXyXyXyXyXyXyXyXyXyXyXyXyXyXyXyXyXyXyXyXyXyX",
"yXyXyXyXyXyXyXyXyXyXyXyXyXyXyXyXyXyXyXyXyXyXyXyXyXyXyXyXyXyXyXyXyXyXyXyXyXyXyXyXyXyXyXyXyXyXyXyXyXyXyXyXyXyXyXyXyXyXyXyXyXyXyXyX",
"yXyXyXyXyXyXyXyXyXyXyXyXyXyXyXyXyXyXyXyXyXyXyXyXyXyXyXyXyXyXyXyXyXyXyXyXyXyXyXyXyXyXyXyXyXyXyXyXyXyXyXyXyXyXyXyXyXyXyXyXyXyXyXyX",
"yXyXyXyXyXyXyXyXyXyXyXyXyXyXyXyXyXyXyXyXyXyXyXyXyXyXyXyXyXyXyXyXyXyXyXyXyXyXyXyXyXyXyXyXyXyXyXyXyXyXyXyXyXyXyXyXyXyXyXyXyXyXyXyX",
"yXyXyXyXyXyXyXyXyXyXyXyXyXyXyXyXyXyXyXyXyXyXyXyXyXyXyXyXyXyXyXyXyXyXyXyXyXyXyXyXyXyXyXyXyXyXyXyXyXyXyXyXyXyXyXyXyXyXyXyXyXyXyXyX",
"yXyXyXyXyXyXyXyXyXyXyXyXyXyXyXyXyXyXyXyXyXyXyXyXyXyXyXyXyXyXyXyXyXyXyXyXyXyXyXyXyXyXyXyXyXyXyXyXyXyXyXyXyXyXyXyXyXyXyXyXyXyXyXyX",
"yXyXyXyXyXyXyXyXyXyXyXyXyXyXyXyXyXyXyXyXyXyXyXyXyXyXyXyXyXyXyXyXyXyXyXyXyXyXyXyXyXyXyXyXyXyXyXyXyXyXyXyXyXyXyXyXyXyXyXyXyXyXyXyX",
"yXyXyXyXyXyXyXyXyXyXyXyXyXyXyXyXyXyXyXyXyXyXyXyXyXyXyXyXyXyXyXyXyXyXyXyXyXyXyXyXyXyXyXyXyXyXyXyXyXyXyXyXyXyXyXyXyXyXyXyXyXyXyXyX",
"yXyXyXyXyXyXyXyXyXyXyXyXyXyXyXyXyXyXyXyXyXyXyXyXyXyXyXyXyXyXyXyXyXyXyXyXyXyXyXyXyXyXyXyXyXyXyXyXyXyXyXyXyXyXyXyXyXyXyXyXyXyXyXyX",
"yXyXyXyXyXyXyXyXyXyXyXyXyXyXyXyXyXyXyXyXyXyXyXyXyXyXyXyXyXyXyXyXyXyXyXyXyXyXyXyXyXyXyXyXyXyXyXyXyXyXyXyXyXyXyXyXyXyXyXyXyXyXyXyX"
};
