/* XPM */
static char *_647877005662[] = {
/* columns rows colors chars-per-pixel */
"64 64 232 2 ",
"   c #1F0000",
".  c #2D0100",
"X  c #240000",
"o  c #340200",
"O  c #3C0300",
"+  c #430400",
"@  c #4B0500",
"#  c #4C0A01",
"$  c #440A00",
"%  c #520600",
"&  c #540B00",
"*  c #5B0B00",
"=  c #590400",
"-  c #551401",
";  c #5C1301",
":  c #640C00",
">  c #6A0E00",
",  c #631200",
"<  c #6A1300",
"1  c #671B02",
"2  c #731500",
"3  c #741A00",
"4  c #7B1A00",
"5  c #5E2205",
"6  c #6C2706",
"7  c #742301",
"8  c #7A2200",
"9  c #762905",
"0  c #7B3309",
"q  c #7F3910",
"w  c #821A00",
"e  c #8B1E00",
"r  c #921E00",
"t  c #822300",
"y  c #8B2300",
"u  c #832A01",
"i  c #862B05",
"p  c #942400",
"a  c #942900",
"s  c #9B2B00",
"d  c #992700",
"f  c #8A3A08",
"g  c #943201",
"h  c #9A3400",
"j  c #973A06",
"k  c #833B10",
"l  c #A12A00",
"z  c #A72C00",
"x  c #A33500",
"c  c #AD3500",
"v  c #AB3B01",
"b  c #A43D07",
"n  c #B13400",
"m  c #B33B00",
"M  c #BA3B00",
"N  c #C53E00",
"B  c #9B470C",
"V  c #8D4413",
"C  c #854618",
"Z  c #964A17",
"A  c #AA4606",
"S  c #BE4A02",
"D  c #B74704",
"F  c #B9540B",
"G  c #A7581A",
"H  c #B55D1C",
"J  c #A65012",
"K  c #BA671A",
"L  c #955924",
"P  c #A2562B",
"I  c #BC7429",
"U  c #B67637",
"Y  c #A76E2E",
"T  c #C24400",
"R  c #CC4D01",
"E  c #C54A02",
"W  c #C35105",
"Q  c #CB5C09",
"!  c #CB5605",
"~  c #D15402",
"^  c #D95E05",
"/  c #D35B04",
"(  c #CB5509",
")  c #C8630D",
"_  c #DB6306",
"`  c #DA670C",
"'  c #DA710F",
"]  c #C86A17",
"[  c #D66E13",
"{  c #C9741A",
"}  c #D77618",
"|  c #E56B07",
" . c #E66D09",
".. c #E9740A",
"X. c #F47C0B",
"o. c #EB7E14",
"O. c #C4782C",
"+. c #D47C25",
"@. c #C26F29",
"#. c #A6764A",
"$. c #E3841C",
"%. c #EC8619",
"&. c #F48412",
"*. c #F48B15",
"=. c #FB8B13",
"-. c #F38A1B",
";. c #F4941C",
":. c #FB951C",
">. c #FC9A1D",
",. c #FA9618",
"<. c #FEA81D",
"1. c #FFA21D",
"2. c #CA8328",
"3. c #DC8227",
"4. c #CC8B3A",
"5. c #D48936",
"6. c #DC963B",
"7. c #E78824",
"8. c #EA9428",
"9. c #F69724",
"0. c #E5983B",
"q. c #EF9735",
"w. c #FBA325",
"e. c #FDAB24",
"r. c #FCA42B",
"t. c #FEAB2C",
"y. c #F5A228",
"u. c #FEB42D",
"i. c #FFBA2B",
"p. c #EDA63A",
"a. c #FBAB34",
"s. c #FBAE3A",
"d. c #F5A735",
"f. c #FDB233",
"g. c #FDBA35",
"h. c #FEBC3B",
"j. c #F9B63C",
"k. c #FDC23C",
"l. c #FECA3D",
"z. c #FFC435",
"x. c #FFC62C",
"c. c #C98B47",
"v. c #D28D42",
"b. c #D59344",
"n. c #D39857",
"m. c #C68F51",
"M. c #E69945",
"N. c #DBA858",
"B. c #D7A94B",
"V. c #E7A748",
"C. c #F3AE47",
"Z. c #EDB445",
"A. c #F8B847",
"S. c #EAAB57",
"D. c #EBB957",
"F. c #F9BE5C",
"G. c #E0B06A",
"H. c #F7BD62",
"J. c #F5BB76",
"K. c #D1A569",
"L. c #FECB43",
"P. c #FEC44C",
"I. c #FECD4A",
"U. c #FDC642",
"Y. c #FED245",
"T. c #FED34C",
"R. c #FED94E",
"E. c #FAC757",
"W. c #FED453",
"Q. c #FFDB52",
"!. c #FED45A",
"~. c #FEDD5A",
"^. c #F6D55B",
"/. c #EDCB55",
"(. c #FEE759",
"). c #FAC76A",
"_. c #FDD463",
"`. c #FEDB64",
"'. c #FFDC6D",
"]. c #FED16A",
"[. c #F8CC7A",
"{. c #FED472",
"}. c #FBDB78",
"|. c #FEEB62",
" X c #FEE46C",
".X c #FEE867",
"XX c #FEE473",
"oX c #FFEC74",
"OX c #FFEE79",
"+X c #FEE47C",
"@X c #FEF274",
"#X c #FEF47D",
"$X c #FEFA7E",
"%X c #DBBF92",
"&X c #E8C784",
"*X c #F9D685",
"=X c #F4D899",
"-X c #F4CB89",
";X c #FEEC8B",
":X c #FEE786",
">X c #FFF582",
",X c #FEFB83",
"<X c #FEF28E",
"1X c #FFFD8C",
"2X c #FDEC93",
"3X c #F8E295",
"4X c #FEF693",
"5X c #FFFB95",
"6X c #FEFB9B",
"7X c #FDF29B",
"8X c #FCECAA",
"9X c #FDE9A5",
"0X c #FEFBA5",
"qX c #FEFDAC",
"wX c #FEF5AA",
"eX c #FEFCB4",
"rX c #FEFCBB",
"tX c #FDF3B7",
"yX c #F6E7B7",
"uX c #FDEDC7",
"iX c #FEFEC3",
"pX c #FFFECA",
"aX c #FFF5CC",
"sX c #FEFDD4",
"dX c #FEFEDD",
"fX c #FDEDD3",
"gX c #FFFEE5",
"hX c #FFFFED",
"jX c #FDF5E0",
"kX c #FEFEF5",
"lX c #FEFEFD",
"zX c None",
/* pixels */
"zXzXzXzXzXzXzXzXzXzXzXzXzXzXzXzXzXzXzXzXzXzXzXzXzXzXzXzXzXzXzXzXzXzXzXzXzXzXzXzXzXzXzXzXzXzXzXzXzXzXzXzXzXzXzXzXzXzXzXzXzXzXzXzX",
"zXzXzXzXzXzXzXzXzXzXzXzXzXzXzXzXzXzXzXzXzXzXzXzXzXzXzXzXzXzXzXzXzXzXzXzXzXzXzXzXzXzXzXzXzXzXzXzXzXzXzXzXzXzXzXzXzXzXzXzXzXzXzXzX",
"zXzXzXzXzXzXzXzXzXzXzXzXzXzXzXzXzXzXzXzXzXzXzXzXzXzXzX1 zXzXzXzXzXzXzXzXzXzXzXzXzXzXzXzXzXzXzXzXzXzXzXzXzXzXzXzXzXzXzXzXzXzXzXzX",
"zXzXzXzXzXzXzXzXzXzXzXzXzXzXzXzXzXzXzXzXzXzXzXzX0 0 q Z 0 k f k zXzXzXzXzXzXf { @.Z P H 7 9 zXzXzXzXzXzXzXzXzXzXzXzXzXzXzXzXzXzX",
"zXzXzXzXzXzXzXzXzXzXzXzXzXzXzXzXzXzXzXzXzXzXA F ) ) [ b h F g i 7 zXzXzXzXC Z.t.-.q.A.+.a j zXzXzX- & zXzX$ zXzXzXzXzXzXzXzXzXzX",
"zXzXzXzXzXzXzXzXzXzXzXzXzXzXzXzXzXzXzXzX, g _ | | | ~ e y h zX$ $ zXzXzXb D.d.v h A *.D & zXzXzX8 3 $ zXO zXzXzXzXzXzXzXzXzXzXzX",
"zXzXzXzXzXzXzXzXzXzXzXzXzXzXzXj h x , & 2 w m ~ M l p 4 w t zXa , < y D 9.8.d < zXzXu 1 o * # 0 c 2 + o O zXzXO zXzXzXzXzXzXzXzX",
"zXzXzXzXzXzXzXzXzXzXzXzXzXzXu v g v v x y e S =.~ n ~ S z d 3 M R } %.` D a 3 zXzXzXzXzXzXO , v e p 3 & + O + + zXzXzXzXzXzXzXzX",
"zXzXzXzXzXzXzXzXzXzXzXzXzXzX# < ; # g ~ m p %.R.>.&.*.R c x c c &.a.` y 4 s 3 * zXzXzX$ zX# ) 6 : n , % & @ + zXzXzXzXzXzXzXzXzX",
"zXzXzXzXzXzXzXzXzXzXzXzXzX@ 2 ; zXzXzX) R  .g..XT.i.u.' S Q .._ *.W c 3 3 _ ^ v + zXzXzX@ ) ] % @ 2 @ + & + zXzXzXzXzXzXzXzXzXzX",
"zXzXzXzXzXzXzXzXzXzXzXzXzX+ @ zXzXzXzXS R :.9.:.l.l.U.Q.>.E.+Xw.X.D a ; 7 ,.1.$.t # # : ) =.m r @ @ + + O O zXzXzXzXzXzXzXzXzXzX",
"zXzXzXzXzXzXzXzXzXzXzXzXzXo o zXzXzXzXg  .o.~  .i.T.|.5X|.2XiX;.X.' 3 zXzX%.>.-.S d 2 c  .w d r : @ + zXzXzXzXO zXzXzXzXzXzXzXzX",
"zXzXzXzXzXzXzXzXzXzXzXzXzX+ zXzXzXzXzX, p S ` t.T.oX>XeX}.f.XX;.` A ; zXzXu g D t < 2 m 3 @ d r e O . zXzXzXzXzXzXzXzXzXzXzXzXzX",
"zXzXzXzXzXzXzXzXzXzXzXzXzXzXzXzXzXO . + > m ,.Q.@X5XQ..X[.X.1.%.3 O zXzXzXzXO g g 2 * < % 2 z n d + @ o zXzXzXzXzXzXzXzXzXzXzXzX",
"zXzXzXzXzXzXzXzXzXzXzXzXzXzXzXzXO o O p E ^ e.g.l.@XT.a.E. ...! # zXzXzXzXzX8 D S t zX+ @ c N T c = @ o o zXzXzXzXzXzXzXzXzXzXzX",
"zXzXzXzXzXzXzXzXzXzXzXzXzXzXzXzXO X 1 :.&._ L.Y.l.(.L.,.a.X.! E 8 zXzXzXzXzXh ~ x zXzX& 2 c l M R 2 + o zXzXzXzXzXzXzXzXzXzXzXzX",
"zXzXzXzXzXzXzXzXzXzXzXzXzXzXzXzXzXX - '.y./ I.`.|.Y.i.e.>.w.*.W < zXzXzXu 8 E ~ h O zX, w 2 @ y ~ 2 O O zXX zXzXzXzXzXzXzXzXzXzX",
"zXzXzXzXzXzXzXzXzXzXzXzXzXzXzXzXO O O 2.P.Z.W.~..XL.<.Q.f.k.x.2.  zXzXzX) _ M n m 8 zXzXo + + a T > . . O o zXzXzXzXzXzXzXzXzXzX",
"zXzXzXzXzXzXzXzXzXzXzXzXzXzXzXzXo O o & Q XXqX<X|.Y.1.Q.R.~..Xp.u 7 # zXF S l l S A zXzXO & % p D % + zXzXzXzXzXzXzXzXzXzXzXzXzX",
"zXzXzXzXzXzXzXzXzXzXzXzXzXzXzXzXzX. zX9 Q h.7X:X(.z.<.z.T.@X5X^.m m x { ' m l e ] zXzXzX& * o A f O % zXzXzXzXzXzXzXzXzXzXzXzXzX",
"zXzXzXzXzXzXzXzXzXzXzXzXzXzXzXzXzXzXzXF w.r.A.d.T.*.i.x.(.,X,XT.Q E ;.Q.e._ S Q 2.zXzXzXzXzXzXj zX@ * zXzXzXzXzXzXzXzXzXzXzXzXzX",
"zXzXzXzXzXzXzXzXzXzXzXzXzXzXzXzXO zXzXA :.w.U.%.,. .Z.5X#X5XoXL.W.:.x.|.w.R ) r.J zXzXzXzXzXzXzXzX+ @ zXzXzXzXzXzXzXzXzXzXzXzXzX",
"zXzXzXzXzXzXzXzXzXzXzXzXzXzXzXzXo zXzXD X.f.w._ | 1.I.sXiXeX;XL.6XW.l.u.=.%.p.a.K zXzXzXzXzXzXzXzXzXzXzXzXzXzXzXzXzXzXzXzXzXzXzX",
"zXzXzXzXzXzXzXzXzXzXzXzXzXzXzXzXzXzXzXA &.$.W  .~ ;.oXdXgXpXtXW.zX1XT.t.A.r.s.r.} u t + zXzXzXzXzXzXzXzXzXzXzXzXzXzXzXzXzXzXzXzX",
"zXzXzXzXzXzXzXzXzXzXzXzXzXzXzXzXzXzXzXA &.x b &.N |  XiXeXdXsX5XzXzX_.!.q.9.}.P.9.9.8.zXzXzXzXzXzX. zXzXzXzXzXzXzXzXzXzXzXzXzXzX",
"zXzXzXzXzXzXzXzXzXzXzXzXzXzXzXzXzXzXzX- S c D o.~  .U.,XqXrXgXhXzXzX5X>Xt.E.iX<XY.L.^.C zXzXzXzXo zXzXzXzXzXzXzXzXzXzXzXzXzXzXzX",
"zXzXzXzXzXzXzXzXzXzXzXzXzXzXzXzXzXzXzX  8 _ ! d.t.,.k.T.L.~.rXdXzXzXzXzXOXeXiX1X>X|.I.Z zXzXzX@ o zXzXzXzXzXzXzXzXzXzXzXzXzXzXzX",
"zXzXzXzXzXzXzXzXzXzXzXzXzXzXzXzXzXzXzXzX- W ` j.g.e.h.i.!.6XiXpX5XzXzXzXzXkXiX5XeX0X6.- zXzXo $ zXzXzXzXzXzXzXzXzXzXzXzXzXzXzXzX",
"zXzXzXzXzXzXzXzXzXzXzXzXzXzXzXzXzXzXzXzXo 8 $.`.!.e.h.Y.<XiX0XqXzXq.zXzXzXzX5XdXpX2XY zXzXzXO . zXO zXzXzXzXzXzXzXzXzXzXzXzXzXzX",
"zXzXzXzXzXzXzXzXzXzXzXzXzXzXzXzXzXzXzX$ o g w.wX#Xi.L.(.eXiX~.>X&XE [ 8.zX,X0XdXwXj.Y zXzXzXo zXo zXzXzXzXzXzXzXzXzXzXzXzXzXzXzX",
"zXzXzXzXzXzXzXzXzXzXzXzXzXzXzXzXzXzXzXO ; F ^ j.$XR.(.1XkXuXk.rX=Xs 2 A W.,XwX:X:X8.zXzXzXzXzXzXzXzXzXzX+ zXzXzXzXzXzXzXzXzXzXzX",
"zXzXzXzXzXzXzXzXzXzXzXzXzXzXzXzXo o o zXzXD E y.R.T.#X5XdXfXj.2XtX+.8 3 ' $.8.8.@X/.zXzXzXzXzXzXzXzXzXzXzXzXzXzXzXzXzXzXzXzXzXzX",
"zXzXzXzXzXzXzXzXzXzXzXzXzXzXzXzXzXzXzXzXzXv { .Xl.e.|.@X5XgX2Xa.4XF.v w a w Q Q XX8.zXzXzXzXzXzXzXzXzXzXzXzXzXzXzXzXzXzXzXzXzXzX",
"zXzXzXzXzXzXzXzXzXzXzXzXzXzXzXzXzXzXzXzXzXc V.pX~.Q.XX'.,XsX-X-.:X_.[ ) A F o.Q U.A + o zXzXzXzXzXzXzXzXzXzXzXzXzXzXzXzXzXzXzXzX",
"zXzXzXzXzXzXzXzXzXzXzXzXzXzXzXzXzXzXzXzXI 5.3XhXqX0X8XE.>XiXM.8.oX,X Xs.).s.&.o.9.8 O zXzXzXzXzXzXzXzXzXzXzXzXzXzXzXzXzXzXzXzXzX",
"zXzXzXzXzXzXzXzXzXzXzXzXzXzXzXzXzXzXzXzXY 8XgXsXrXiXwX_.'.7XP.a.XXrXXXA.rXP.&.-.} zXzXzXzXzXzXzXzXzXzXzXzXzXzXzXzXzXzXzXzXzXzXzX",
"zXzXzXzXzXzXzXzXzXzXzXzXzXzXzXzXzXzXzXzXzXyX7X5XgXgXwXeX9X0X!.d.;XiX:X X;X@Xp.o.G zXzXzXzXzXzXzXzXzXzXzXzXzXzXzXzXzXzXzXzXzXzXzX",
"zXzXzXzXzXzXzXzXzXzXzXzXzXzXzXzXzXzXzXzXzXrXOXtXlXkXeXgXhXeX0.} iX6XqXrX(.4Xp.{ zXzXzXzXzXzXzXzXzXzXzXzXzXzXzXzXzXzXzXzXzXzXzXzX",
"zXzXzXzXzXzXzXzXzXzXzXzXzXzXzXzXzXzXzXzXU zX_.jXlXlXdXkXlXuXo.M.hXwX XpXqXwXC.L zXzXzXzXzXzXzXzXzXzXzXzXzXzXzXzXzXzXzXzXzXzXzXzX",
"zXzXzXzXzXzXzXzXzXzXzXzXzXzXzXzXzXzXzXzX0.zXd.9XgXkXkXlXlXJ. .9XkXiXoXpXlXzXK zXzXzXzXzXzXzXzXzXzXzXzXzXzXzXzXzXzXzXzXzXzXzXzXzX",
"zXzXzXzXzXzXzXzXzXzXzXzXzXzXzXzXzXzXzXY q.zX:X+XaXlXlXkXH.o.p.*XlXgXpXsXzXzX+.zXzXzXzXzXzXzXzXzXzXzXzXzXzXzXzXzXzXzXzXzXzXzXzXzX",
"zXzXzXzXzXzXzXzXzXzXzXzXzXzXzXzXzXzXzXf @.=XzXzXuXlXlXlX).d.].zXzXkXkXiXzXzXV.zXzXzXzXzXzXzXzXzXzXzXzXzXzXzXzXzXzXzXzXzXzXzXzXzX",
"zXzXzXzXzXzXzXzXzXzXzXzXzXzXzXzXzXzX$ V *X4X).zXsXkXlXlXzXzXzXzXzXzXzXzXzX`.1XN.zXzXzXzXzXzXzXzXzXzXzXzXzXzXzXzXzXzXzXzXzXzXzXzX",
"zXzXzXzXzXzXzXzXzXzXzXzXzXzXzXzXzXzXX #.iXiX8XzXzXlXlXlXzXzXzXzX'.zXzXzXP.9.9.P.N.zXzXzXzXzXzXzXzXzXzXzXzXzXzXzXzXzXzXzXzXzXzXzX",
"zXzXzXzXzXzXzXzXzXzXzXzXzXzXzXzXzXzX+ m.pX}.).F.zXlXlXlXzXzXzXzXzXzXzXzX9.r.C.=.E.zXzXzXzXzXzXzXzXzXzXzXzXzXzXzXzXzXzXzXzXzXzXzX",
"zXzXzXzXzXzXzXzXzXzXzXzXzXzXzXzXzXzXzXb.tX).A.zXzXkXlXkXzXzXzXzXzXzXzX{.r.9.;X_.W.&XzXzXzXzXzXzXzXzXzXzXzXzXzXzXzXzXzXzXzXzXzXzX",
"zXzXzXzXzXzXzXzXzXzXzXzXzXzXzXzXzXzXzXzXK.).Z.zXzXkXkXzXzXzXzXzXzXzXzX].P.&.s.@XW.OXB.zXzXzXzXzXzXzXzXzXzXzXzXzXzXzXzXzXzXzXzXzX",
"zXzXzXzXzXzXzXzXzXzXzXzXzXzXzXzXzXzXzXzXzX*X).6.zXzXsXzXzXzXzXzXzXzXzXE.h.9.y.f.k.#X;XzXzXzXzXzXzXzXzXzXzXzXzXzXzXzXzXzXzXzXzXzX",
"zXzXzXzXzXzXzXzXzXzXzXzXzXzXzXzXzXzXzXzXzXzX%X).zXzXzXzXzXzXzXzXzXzXzX>X`.j.E.u.U.t.[.zXzXzXzXzXzXzXzXzXzXzXzXzXzXzXzXzXzXzXzXzX",
"zXzXzXzXzXzXzXzXzXzXzXzXzXzXzXzXzXzXzXzXzXzXzXc.zXzXzXzXzXzXzXV.3.zXzX7X+X6X6X.Xt. .7.I zXzXzXzXzXzXzXzXzXzXzXzXzXzXzXzXzXzXzXzX",
"zXzXzXzXzXzXzXzXzXzXzXzXzXzXzXzXzXzXzXzXzXzXV Z zXzXzXH 5.zXzXzX7.zX}.{.V.*X0X'.,.9.7.Z.zXzXzXzXzXzXzXzXzXzXzXzXzXzXzXzXzXzXzXzX",
"zXzXzXzXzXzXzXzXzXzXzXzXzXzXzXzXzXzXzXzXzXzXf G zXzXzXi H ].zXzXzXzXV.b._.9XG.g.i.R.W.D.zXzXzXzXzXzXzXzXzXzXzXzXzXzXzXzXzXzXzXzX",
"zXzXzXzXzXzXzXzXzXzXzXzXzXzXzXzXzXzXzXzXzXf G N.zXzXzX6 6 L zXzXzX}.+.I 9XqXN.B.~.z./.zXzXzXzXzXzXzXzXzXzXzXzXzXzXzXzXzXzXzXzXzX",
"zXzXzXzXzXzXzXzXzXzXzXzXzXzXzXzXzXzXzXzXzXf v.*XzXzXzX6 V q zXzXM.H.E.S.-XtXaX-XA.a.B.zXzXzXzXzXzXzXzXzXzXzXzXzXzXzXzXzXzXzXzXzX",
"zXzXzXzXzXzXzXzXzXzXzXzXzXzXzXzXzXzXzXzXzXzXc.v.zXzX@.6 G I 6 zXS.@.n.&X*XuXaXS.Q &.$.zXzXzXzXzXzXzXzXzXzXzXzXzXzXzXzXzXzXzXzXzX",
"zXzXzXzXzXzXzXzXzXzXzXzXzXzXzXzXzXzXzXzXzXzXzXzXU S.M.U 0 4.G O.zX3.l G.iXyX).+.Q $.{ zXzXzXzXzXzXzXzXzXzXzXzXzXzXzXzXzXzXzXzXzX",
"zXzXzXzXzXzXzXzXzXzXzXzXzXzXzXzXzXzXzXzXzXzXzXzXH zX[.).5.B V {.{.-.C.rX8XtXzXF A 5.zXzXzXzXzXzXzXzXzXzXzXzXzXzXzXzXzXzXzXzXzXzX",
"zXzXzXzXzXzXzXzXzXzXzXzXzXzXzXzXzXzXzXzXzXzXzXzXzXzXP L B 6 # 5.F.F.tXjX:XzX}.Z # zXzXzXzXzXzXzXzXzXzXzXzXzXzXzXzXzXzXzXzXzXzXzX",
"zXzXzXzXzXzXzXzXzXzXzXzXzXzXzXzXzXzXzXzXzXzXzXzXzXzXzXzXq Y zXC m.&X8Xb.H.N.@.zXzXzXzXzXzXzXzXzXzXzXzXzXzXzXzXzXzXzXzXzXzXzXzXzX",
"zXzXzXzXzXzXzXzXzXzXzXzXzXzXzXzXzXzXzXzXzXzXzXzXzXzXzXzXzXC 5 - zXzX4.[.b.6 zXzXzXzXzXzXzXzXzXzXzXzXzXzXzXzXzXzXzXzXzXzXzXzXzXzX",
"zXzXzXzXzXzXzXzXzXzXzXzXzXzXzXzXzXzXzXzXzXzXzXzXzXzXzXzXzXzXzXzXzXzXzXzXzXzXzXzXzXzXzXzXzXzXzXzXzXzXzXzXzXzXzXzXzXzXzXzXzXzXzXzX",
"zXzXzXzXzXzXzXzXzXzXzXzXzXzXzXzXzXzXzXzXzXzXzXzXzXzXzXzXzXzXzXzXzXzXzXzXzXzXzXzXzXzXzXzXzXzXzXzXzXzXzXzXzXzXzXzXzXzXzXzXzXzXzXzX",
"zXzXzXzXzXzXzXzXzXzXzXzXzXzXzXzXzXzXzXzXzXzXzXzXzXzXzXzXzXzXzXzXzXzXzXzXzXzXzXzXzXzXzXzXzXzXzXzXzXzXzXzXzXzXzXzXzXzXzXzXzXzXzXzX",
"zXzXzXzXzXzXzXzXzXzXzXzXzXzXzXzXzXzXzXzXzXzXzXzXzXzXzXzXzXzXzXzXzXzXzXzXzXzXzXzXzXzXzXzXzXzXzXzXzXzXzXzXzXzXzXzXzXzXzXzXzXzXzXzX"
};
