/* XPM */
static char *_647884626978[] = {
/* columns rows colors chars-per-pixel */
"64 64 117 2 ",
"   c #706C6F",
".  c #DDBA0E",
"X  c #E1B703",
"o  c #E3BC00",
"O  c #E78D39",
"+  c #EB9635",
"@  c #EC9932",
"#  c #EE933D",
"$  c #ED9F3D",
"%  c #DDAE2C",
"&  c #DDB32A",
"*  c #F0A72A",
"=  c #E0B526",
"-  c #E1B02D",
";  c #EDA33B",
":  c #F5A330",
">  c #F0A53B",
",  c #ECB331",
"<  c #E4B935",
"1  c #D8CB03",
"2  c #D6CC09",
"3  c #DFD601",
"4  c #DFD900",
"5  c #DBD508",
"6  c #DFC012",
"7  c #D2C916",
"8  c #D9C31A",
"9  c #DCD317",
"0  c #DED01D",
"q  c #E3C302",
"w  c #E2C900",
"e  c #E8C801",
"r  c #E9C508",
"t  c #E6CD0F",
"y  c #E5D503",
"u  c #E2D609",
"i  c #E2D014",
"p  c #BAA057",
"a  c #BE9676",
"s  c #B69974",
"d  c #B5987F",
"f  c #BB987C",
"g  c #C8995E",
"h  c #CA955C",
"j  c #E69447",
"k  c #EA9345",
"l  c #EC9B47",
"z  c #E4904B",
"x  c #EA9B4D",
"c  c #F29749",
"v  c #E79754",
"b  c #E89957",
"n  c #DBAD44",
"m  c #DEB443",
"M  c #C99564",
"N  c #C79867",
"B  c #CD9968",
"V  c #C09873",
"C  c #907B8E",
"Z  c #977C94",
"A  c #858485",
"S  c #898789",
"D  c #8C8C8C",
"F  c #938D93",
"G  c #988F97",
"H  c #959595",
"J  c #979897",
"K  c #989598",
"L  c #96999A",
"P  c #9B9B9B",
"I  c #AC9985",
"U  c #A59B97",
"Y  c #A29D9A",
"T  c #A99F9D",
"R  c #AFA196",
"E  c #AAA29C",
"W  c #B0A399",
"Q  c #B4AF9D",
"!  c #B7B796",
"~  c #B6BA94",
"^  c #BCBA97",
"/  c #BBB69F",
"(  c #BCB998",
")  c #A58FA3",
"_  c #A894A5",
"`  c #A39EA3",
"'  c #9FA1A2",
"]  c #A5A5A5",
"[  c #A9A6A4",
"{  c #A7A8A7",
"}  c #ACA8A6",
"|  c #A3A7AA",
" . c #A8A7A8",
".. c #A6A8AA",
"X. c #ABABAB",
"o. c #B3ABA4",
"O. c #B3ADAC",
"+. c #BAAFA9",
"@. c #AFB0AF",
"#. c #B5B6A5",
"$. c #BAB4A6",
"%. c #B3B1AD",
"&. c #B8B3AC",
"*. c #ADAFB1",
"=. c #B3A7B2",
"-. c #B2AFB2",
";. c #AEB1B2",
":. c #B3B3B3",
">. c #B8B7B3",
",. c #B2B5B9",
"<. c #BBBBBB",
"1. c #C7AD97",
"2. c #C5AE9C",
"3. c #C1ABA2",
"4. c #C2C2C2",
"5. c #CACACA",
"6. c None",
/* pixels */
"6.6.6.6.6.6.6.6.6.6.6.6.6.6.6.6.6.6.6.6.6.6.6.6.6.6.6.6.6.6.6.6.6.6.6.6.6.6.6.6.6.6.6.6.6.6.6.6.6.6.6.6.6.6.6.6.6.6.6.6.6.6.6.6.",
"6.6.6.6.6.6.6.6.6.6.6.6.6.6.6.6.6.6.6.6.6.6.6.6.6.6.6.6.6.6.6.6.6.6.6.6.6.6.6.6.6.6.6.6.6.6.6.6.6.6.6.6.6.6.6.6.6.6.6.6.6.6.6.6.",
"6.6.6.6.6.6.6.6.6.6.6.6.6.6.6.6.6.6.6.6.6.6.6.6.6.6.6.6.6.6.6.6.6.6.6.6.6.6.6.6.6.6.6.6.6.6.6.6.6.6.6.6.6.6.6.6.6.6.6.6.6.6.6.6.",
"6.6.6.6.6.6.6.6.6.6.6.6.6.6.6.6.6.6.6.6.6.6.6.6.6.6.6.6.6.6.6.6.6.6.6.6.6.6.6.6.6.6.6.6.6.6.6.6.6.6.6.6.6.6.6.6.6.6.6.6.6.6.6.6.",
"6.6.6.6.6.6.6.6.6.6.6.6.6.6.6.6.6.6.6.6.6.6.6.6.6.6.6.6.6.6.6.6.6.6.6.6.6.6.6.6.6.6.6.6.6.6.6.6.6.6.6.6.6.6.6.6.6.6.6.6.6.6.6.6.",
"6.6.6.6.6.6.6.6.6.6.6.6.6.6.6.6.6.6.6.6.6.6.6.6.6.J P 6.6.6.6.6.6.6.6.6.6.6.6.6.6.6.6.6.6.6.6.6.6.6.6.6.6.6.6.6.6.6.6.6.6.6.6.6.",
"6.6.6.6.6.6.6.6.6.6.6.6.6.6.6.6.6.6.6.6.6.6.6.6.6.P X.] 6.6.6.6.6.6.6.6.6.6.6.6.6.6.6.6.6.6.6.6.6.6.6.6.6.6.6.6.6.6.6.6.6.6.6.6.",
"6.6.6.6.6.6.6.6.6.6.6.6.6.6.6.6.6.6.6.6.6.6.6.6.6.6.:.@.D 6.6.6.6.6.6.6.6.6.6.6.6.6.6.6.6.6.6.6.6.6.6.6.6.6.6.6.6.6.6.6.6.6.6.6.",
"6.6.6.6.6.6.6.6.6.6.6.6.6.6.6.6.6.6.6.6.6.6.6.6.6.6.:.:.] 6.6.6.6.6.6.6.6.6.6.6.6.6.6.6.6.6.6.6.6.6.6.6.6.6.6.6.6.6.6.6.6.6.6.6.",
"6.6.6.6.6.6.6.6.6.6.6.6.6.6.6.6.6.6.6.6.6.6.6.6.6.6.:.:.:.6.6.6.6.:.6.6.6.6.6.6.6.6.6.6.6.6.6.6.6.6.6.6.6.6.6.6.6.6.6.6.6.6.6.6.",
"6.6.6.6.6.6.6.6.6.6.6.6.6.6.6.6.6.6.6.6.6.6.6.6.] 6.:.:.:.:.6.6.6.X.] 6.6.6.6.6.6.6.6.6.6.6.6.6.6.6.6.6.6.6.6.6.6.6.6.6.6.6.6.6.",
"6.6.6.6.6.6.6.6.6.6.6.6.6.6.6.6.6.6.6.6.6.6.6.6.:.6.:.:...;.@.H 6.:.@.6.6.6.6.6.6.6.6.6.6.6.6.6.6.6.6.6.6.6.6.6.6.6.6.6.6.6.6.6.",
"6.6.6.6.6.6.6.6.6.6.6.6.6.6.6.6.6.6.6.6.6.6.6.:.:.6.:.O.a o.:.| X. .X.J 6.6.6.6.6.6.6.6.6.6.6.6.6.6.6.6.6.6.6.6.6.6.6.6.6.6.6.6.",
"6.6.6.6.6.6.6.6.6.6.6.6.6.6.6.6.6.6.6.6.6.6.6.:.:.6.X.[ v 2.%.a o.*. .:.6.6.6.6.6.6.6.6.6.6.6.6.6.6.6.6.6.6.6.6.6.6.6.6.6.6.6.6.",
"6.6.6.6.6.6.6.6.6.6.6.6.6.6.6.6.6.6.6.6.6.6.6.:.:.H ] N n / %.b R ;.X.%.6.6.6.6.6.6.6.6.6.6.6.6.6.6.6.6.6.6.6.6.6.6.6.6.6.6.6.6.",
"6.6.6.6.6.6.6.6.6.6.6.6.6.6.6.6.6.6.6.6.6.6.6.:.:. .` l 6 ~ &.n g }  .X.{ 6.P ] 6.6.6.6.6.6.6.6.6.6.6.6.6.:.6.6.6.6.6.6.6.6.6.6.",
"6.6.6.6.6.6.6.6.6.6.6.6.6.6.6.6.6.6.6.6.6.6.6.{ ;.%.M - i ( #.8 $ T ] ] X.X. .6.6.6.6.6.6.6.6.6.6.6.6.6.6.:.J 6.6.6.6.6.6.6.6.6.",
"6.6.6.6.6.6.6.6.6.6.6.6.6.6.6.6.6.6.6.6.6.6.6.6.....x q 5 ( $.0 & M E P X.:.6.6.6.6.6.6.6.6.6.6.6.6.6.6.6.6.Y 6.6.6.6.6.6.6.6.6.",
"6.6.6.6.6.6.6.6.:.6.6.6.6.6.6.6.6.6.6.6.6.6.6.6.X.B % y u ( $.9 1 l U J ] X.6.6.6.6.6.6.6.6.6.] 6.6.6.6.6.6.J { 6.6.6.6.6.6.6.6.",
"6.6.6.6.6.6. .] :.6.6.6.:. .P 6.6.6.6.6.6.6.6.6.:.k o 4 2 ! $.9 y & h Y P P 6.6.6.6.:.6.6.6.6.] :.:.6.6.6.6.6.X... .6.6.6.6.6.6.",
"6.6.6.6.6.:.:.<...6.6.:.:.:.<.6.6.K 6.6.6.6.6.6.:.j X y < $.#.7 y w + E J H 6.6.6.6.:.6.6.6.6.6.<.:.:.6.6.6.S  .:.-.H 6.6.6.6.6.",
"6.6.6.6.D :.<.<.%.H F :.:.] 6.6.] X...6.6.6.6.6.:.k * t : 3.&.m 1 e + E ] H 6.6.6.6. .:.6.6.6.6.4.<.,.*.X.:.{ X.:.:.] 6.6.6.6.6.",
"6.6.6.6.] <.<.<.:.@...,.3.,.]  . .<.<.>.6.6.6.6.:.f # . p O.$.c , r + o...P D 6.6.6. .:.6.6.6.X.<.3.4.;.*.:.:.:.:.:.:.6.6.6.6.6.",
"6.6.6.:.<.4.4.5.<.;.@.,.<.5.<.:.:.<.4.<.<.D ] >.:.| O ; Q ,.>.a + X + +...X.X.6.6.6.H :.:.X.*.%.<.4.4.,.X. .:.:.:.:.:.6.6.6.6.6.",
"6.6.6.:.:.<.<.4.<.:.{ X.,.4.<.:.X.:.<.4.<. .X.<.4.:.I k 2.,.<.| s ; # $.*. . . .:.X.X.:.:.X.;.:.>.,.>.:. .| :.:.:.:.:.6.6.6.6.6.",
"6.6.6. .X. .:.:.:.:.X. .;.>.:.{  .X.:.:.:.:.:.<.4.<.:.I o.:.>.;.E j f X.X. .X.X.:.:.<.<.<.:.] :.:.:.:.:.X.E X.:.:.:.H 6.6.6.6.6.",
"6.6.6.6.{ { X.:.:.:.:.] | .. .] X.X. .:.%.;.:.:.<.4.>.....X.:.:.o.I ] :. . .X.:.X.:.>.4.5.<. . .X. ...@.X.] X.:.:.:.6.6.6.6.6.6.",
"6.6.6.6.6.{  . .X.:.X.] E { X.:.:.@. .X.X. . .@.:.:.:.:.%. . .X. .| ] X.@.{  .:.-.X.:.<.4.<.X. .] ] ' { ' ] :.:.:.J 6.6.6.6.6.6.",
"6.6.6.6.6.H ] P  . . .] P ] ] X.:.:.:.X. .{ ] @.:.:.:.:.>.-. . .{ { { {  .] P X.*.{ X.:.>.<.:.X. .] ] P J ] X.:.:.6.6.6.6.6.6.6.",
"6.6.6.6.6.6. .] { P P J H P ] ]  . . .{ ] @.:.:.X.:.<.,.:.:.:. .{ {  .:.;.{ ] P P ] X.:.>.<.>.<.:.X.] J ] X.X.@.6.6.6.6.6.6.6.6.",
"6.6.6.6.6.6.6.:.X.] ] H J H P P P P ' P ] X.:.:.:.:.>.:.X.:.:.X. .{  .:.:.:.%.] J P ]  .*.,.<.<.:.X.P P ] X. . .6.6.K 6.6.6.6.6.",
"6.6.6.6.H 6.6.:.>.;.] ] P H H H J H H H H D P :.:.:.<.:.-. .:.:. .{ .. .:.:.:.X.] H H K P X.:.:.X. .P P X.X. .] D 6.H 6.6.6.6.6.",
"6.6.6.6.D ] ' 4.<.:. . .] P H P H D D A 6.6.H X.:.<.4.,.:. . .%. . . .{ X.:.:.:.] H D S J E .. .] P H P ] ] ] P H H A 6.6.6.6.6.",
"6.6.6.6.6.;.;.3.<.:.:. .] P H D D D 6.6.6.6.H  .:.4.5.4.:.:.X. . . . .] { X.:.X.] F 6.6.6.H K J P S 6.F J P P H P H 6.6.6.6.6.6.",
"6.6.6.6.6.] :.,.:.>.:.] 6.6.6.S S 6.6.6.6.A H { :.<.5.4.>.:.:. . .X.%.{  . .@. .] J 6.6.6.6.J D 6.6.6.6.D H H H H 6.6.6.6.6.6.6.",
"6.6.6.6.6.6.:.X.X.X.6.6.6.6.6.6.6.6.6.:.6.=.' ] :.,.4.5.4.>.:.:.X. .;.:. .{ { { X.] A 6.6.6.6.6.6.6.6.6.6.D P A 6.6.6.6.6.6.6.6.",
"6.6.6.6.6.6.6.P H 6.6.6.6.6.6.6.6.6.6.:.:.:.X.P  .:.,.5.5.<.<.:.:. . .:.:. .X. .X.:.] S 6.6.6.6.6.6.6.6.6.6.6.6.6.6.6.6.6.6.6.6.",
"6.6.6.6.6.6.6.6.6.6.6.6.6.6.6.6.6.6.6.6.:.:.:.] E ;.:.4.4.4.<.:.:. . .:.:.:.%.:.X.:.,.X.P 6.6.6.6.6.6.6.6.6.6.6.6.6.6.6.6.6.6.6.",
"6.6.6.6.6.6.6.6.6.6.6.6.6.6.6.6.6.6.6.6.6.:.:.@.]  .:.<.4.4.<.:.:.{  .:.:.@.X.:.:.<.4.<.X.K 6.6.6.6.6.6.6.6.6.6.6.6.6.6.6.6.6.6.",
"6.6.6.6.6.6.6.6.6.6.6.6.6.6.6.6.6.6.6.6.6.6.:.:. .{ @.:.<.<.:.:.@.{ ] { :.@...:.:.4.<.<.>.P 6.6.6.6.6.6.6.6.6.6.6.6.6.6.6.6.6.6.",
"6.6.6.6.6.6.6.6.6.6.6.6.6.6.6.6.6.6.6.6.6.6.]  .;.{ { X.:.:.:.:. . .X.X. .@...] X.@.:.>.:. .J 6.6.6.6.6.6.6.6.6.6.6.6.6.6.6.6.6.",
"6.6.6.6.6.6.6.6.6.6.6.6.6.6.6.6.6.>.] 6.6.6.S ] >.X.{  .:.X.:.:.:.X.:.:.X.X.X.P P ] ] :.:.] 6.6.6.6.6.6.6.6.6.6.6.6.6.6.6.6.6.6.",
"6.6.6.6.6.6.6.6.6.6.6.6.6.6.6.6.6.X.P S 6.6.P X.:.:.X...X.:.X.:.:.X.:.:.%.X.:. .P H P ] ] P 6.6.6.6.6.6.6.6.6.6.6.6.6.6.6.6.6.6.",
"6.6.6.6.6.6.6.6.6.6.6.6.6.6.6.6.6.6.X.] Y D D ] X.:.:.@.{ -.X.:.:.:.@.:.:.;.:.:.` G J H H 6.6.6.6.6.6.6.6.6.6.6.6.6.6.6.6.6.6.6.",
"6.6.6.6.6.6.6.6.6.6.6.6.6.6.6.6.6.6...>.,.] H H ] X.:.:. .:.:. .X.:.X.:.<.:.X.;.) 6.J P 6.6.6.6.6.6.6.6.6.6.6.6.6.6.6.6.6.6.6.6.",
"6.6.6.6.6.6.6.6.6.6.6.6.6.6.6.6.6.6.P :.:.:.] P P ] X.X. .X.:.X.{ X.;.<.4.<.:.:.` Z H S 6.6.6.6.6.6.6.6.6.6.6.6.6.6.6.6.6.6.6.6.",
"6.6.6.6.6.6.6.6.6.6.6.6.6.6.6.6.6.6.] :.:.:. .] ' P {  . . .:.:. .{ X.>.<.>.:.X.P P H 6.6.6.6.6.6.6.6.6.6.6.6.6.6.6.6.6.6.6.6.6.",
"6.6.6.6.6.6.6.6.6.6.6.6.6.6.6.6.6.6.6.:.:.:.X.] X.%.X. .{ { X.-. . . .:.:.:.X.P K K ] 6.6.6.6.6.6.6.6.6.6.6.6.6.6.6.6.6.6.6.6.6.",
"6.6.6.6.6.6.6.6.6.6.6.6.6.6.6.6.6.6.6.6.:.:.O. .X.:.:.X.X.X.X.:.X.X. .:.:.;.] J K 6.6.6.6.6.6.6.6.6.6.6.6.6.6.6.6.6.6.6.6.6.6.6.",
"6.6.6.6.6.6.6.6.6.6.6.6.6.6.6...P P P 6.6.:.:.X...X.:.<.<.:.-.X. .:. .@.:.O.] J P 6.6.6.6.6.6.6.6.6.6.6.6.6.6.6.6.6.6.6.6.6.6.6.",
"6.6.6.6.6.6.6.6.6.6.6.6.6.6.:.=.=.>.:.H   ] :.X. .X.X.>.<.<.:.*. .X.X. .:.:.] ] P 6.6.H 6.6.6.6.6.6.6.6.6.6.6.6.6.6.6.6.6.6.6.6.",
"6.6.6.6.6.6.6.6.6.6.6.6.6...:.6.] :.:. .P X.,.:. .X.*.:.<.<.<.:.@.X.:.X.X.:.X. .] P  . .X.P 6.6.6.6.6.6.6.6.6.6.6.6.6.6.6.6.6.6.",
"6.6.6.6.6.6.6.6.6.6.6.6.6.] :.6.P X.:.:.>.,.>.:.:.{  .:.:.<.4.:.:.@.X. . .X.:.:.] ]  .:.>.X.' S 6.6.6.6.6.6.6.6.6.6.6.6.6.6.6.6.",
"6.6.6.6.6.6.6.6.6.6.6.6.6.] :.` 6.P :.P ] >.P  .:.-.*.X.:.<.>.:.:.X... .X.] X.X.] P  .X.X.X._ C 6.6.6.6.6.6.6.6.6.6.6.6.6.6.6.6.",
"6.6.6.6.6.6.6.6.6.6.6.6.6.P  .] 6.6.' H 6.,.6.6.:.:.:.:.:.:.:.:.X.P ' { :.:.] P P P J D 6.P K G 6.6.6.6.6.6.6.6.6.6.6.6.6.6.6.6.",
"6.6.6.6.6.6.6.6.6.6.6.6.6.6.X.{ 6.6.6.6.6.6.6.6.] >.:.J  .:.:.:.{ J J P X.] P H H A 6.6.6.6.H J 6.6.6.6.6.6.6.6.6.6.6.6.6.6.6.6.",
"6.6.6.6.6.6.6.6.6.6.6.6.6.6.6. .6.6.6.6.6.6.6.] X.:.6.6.D X.X.H 6.6.S H P P J H A 6.6.6.6.6.6.6.6.6.6.6.6.6.6.6.6.6.6.6.6.6.6.6.",
"6.6.6.6.6.6.6.6.6.6.6.6.6.6.6.] 6.6.6.6.6.6.6.>.:.H 6.6.{ X.H 6.6.6.6.6.J J D A 6.6.6.6.6.6.6.6.6.6.6.6.6.6.6.6.6.6.6.6.6.6.6.6.",
"6.6.6.6.6.6.6.6.6.6.6.6.6.6.6.6.6.6.6.6.6.6.6.:.:.D D 6.6.:.6.6.6.6.6.6.6.6.6.6.6.6.6.6.6.6.6.6.6.6.6.6.6.6.6.6.6.6.6.6.6.6.6.6.",
"6.6.6.6.6.6.6.6.6.6.6.6.6.6.6.6.6.6.6.6.6.6.6.6.>. .D 6.6.6.6.6.6.6.6.6.6.6.6.6.6.6.6.6.6.6.6.6.6.6.6.6.6.6.6.6.6.6.6.6.6.6.6.6.",
"6.6.6.6.6.6.6.6.6.6.6.6.6.6.6.6.6.6.6.6.6.6.6.6.6.F 6.6.6.6.6.6.6.6.6.6.6.6.6.6.6.6.6.6.6.6.6.6.6.6.6.6.6.6.6.6.6.6.6.6.6.6.6.6.",
"6.6.6.6.6.6.6.6.6.6.6.6.6.6.6.6.6.6.6.6.6.6.6.6.6.6.6.6.6.6.6.6.6.6.6.6.6.6.6.6.6.6.6.6.6.6.6.6.6.6.6.6.6.6.6.6.6.6.6.6.6.6.6.6.",
"6.6.6.6.6.6.6.6.6.6.6.6.6.6.6.6.6.6.6.6.6.6.6.6.6.6.6.6.6.6.6.6.6.6.6.6.6.6.6.6.6.6.6.6.6.6.6.6.6.6.6.6.6.6.6.6.6.6.6.6.6.6.6.6.",
"6.6.6.6.6.6.6.6.6.6.6.6.6.6.6.6.6.6.6.6.6.6.6.6.6.6.6.6.6.6.6.6.6.6.6.6.6.6.6.6.6.6.6.6.6.6.6.6.6.6.6.6.6.6.6.6.6.6.6.6.6.6.6.6."
};
