/* XPM */
static char *_647884614273[] = {
/* columns rows colors chars-per-pixel */
"64 64 137 2 ",
"   c #5F5F5F",
".  c #646464",
"X  c #6D6D6D",
"o  c #737373",
"O  c #7C7C7C",
"+  c #7A807B",
"@  c #DEAC1A",
"#  c #E6AC06",
"$  c #F1A708",
"%  c #ECB703",
"&  c #EEBB05",
"*  c #E1AB16",
"=  c #E8AB16",
"-  c #E3AA1F",
";  c #F3AB10",
":  c #F2AB18",
">  c #ECBF17",
",  c #E0BA1B",
"<  c #F1B812",
"1  c #FA9726",
"2  c #F79C3B",
"3  c #E2A324",
"4  c #E6BC22",
"5  c #EEBB21",
"6  c #EEBC28",
"7  c #F2B926",
"8  c #F2BC2D",
"9  c #F7A035",
"0  c #F9A237",
"q  c #F3BD31",
"w  c #DDCD02",
"e  c #DCCB0A",
"r  c #DCD302",
"t  c #DEDA00",
"y  c #E2D600",
"u  c #E3DA00",
"i  c #E6C71D",
"p  c #EEC61A",
"a  c #E8CE1C",
"s  c #BAA744",
"d  c #B5AA5C",
"f  c #BFB96F",
"g  c #DB8C50",
"h  c #D28F59",
"j  c #D89053",
"k  c #DE985C",
"l  c #E08C46",
"z  c #EA954C",
"x  c #E69350",
"c  c #E39957",
"v  c #C4BE4F",
"b  c #D2A259",
"n  c #C6B95A",
"m  c #CD9E6A",
"M  c #D49765",
"N  c #D59D62",
"B  c #DD9C63",
"V  c #D69D6B",
"C  c #DA9C6B",
"Z  c #CD9E74",
"A  c #C79A79",
"S  c #D29D74",
"D  c #E09C61",
"F  c #DEA262",
"G  c #DEA16C",
"H  c #D5AE76",
"J  c #DFA57A",
"K  c #DCA978",
"L  c #D3A37B",
"P  c #C0B775",
"I  c #EBA06A",
"U  c #CDC64D",
"Y  c #CFC84E",
"T  c #C5C16C",
"R  c #9B198E",
"E  c #932588",
"W  c #9C2C8F",
"Q  c #914F8A",
"!  c #8E6089",
"~  c #8B7188",
"^  c #848484",
"/  c #868886",
"(  c #8D8D8D",
")  c #8E918E",
"_  c #9E849B",
"`  c #949494",
"'  c #989698",
"]  c #9C9C9C",
"[  c #A89684",
"{  c #A79A8C",
"}  c #A09F9F",
"|  c #BCA883",
" . c #B8A28D",
".. c #B4A495",
"X. c #BDA894",
"o. c #B3A599",
"O. c #A19EA1",
"+. c #A5A5A5",
"@. c #A9A4A1",
"#. c #AFA9A4",
"$. c #A3A7AA",
"%. c #AAA4A9",
"&. c #A6A8A9",
"*. c #ABABAB",
"=. c #B6AAA6",
"-. c #B4AEA8",
";. c #B1B0AF",
":. c #BAB2AA",
">. c #AAAFB2",
",. c #AEB2B6",
"<. c #AFB6BA",
"1. c #B3B3B3",
"2. c #BFB7B0",
"3. c #B8B8B7",
"4. c #B1B5BC",
"5. c #B5B9BC",
"6. c #BBBBBB",
"7. c #CAA086",
"8. c #CAA882",
"9. c #CCAF8B",
"0. c #D2A482",
"q. c #DCAA85",
"w. c #D0AB8B",
"e. c #DAAC8B",
"r. c #DDB090",
"t. c #C0B7AD",
"y. c #C7BBB0",
"u. c #C0C0BF",
"i. c #B1B1C0",
"p. c #B4BBC1",
"a. c #BDBFC0",
"s. c #BDC1C4",
"d. c #C3C3C3",
"f. c #C1C5C9",
"g. c #CBCBCB",
"h. c #D1D1D1",
"j. c None",
/* pixels */
"j.j.j.j.j.j.j.j.j.j.j.j.j.j.j.j.j.j.j.j.j.j.j.j.j.j.j.j.j.j.j.j.j.j.j.j.j.j.j.j.j.j.j.j.j.j.j.j.j.j.j.j.j.j.j.j.j.j.j.j.j.j.j.j.",
"j.j.j.j.j.j.j.j.j.j.j.j.j.j.j.j.j.j.j.j.j.j.j.j.j.j.6.j.j.j.j.j.j.j.j.j.j.j.j.j.j.j.j.j.j.j.j.j.j.j.j.j.j.j.j.j.j.j.j.j.j.j.j.j.",
"j.j.j.j.j.j.j.j.j.j.j.j.j.j.j.j.j.j.j.j.j.j.j.j.j.6.3.1.j.j.j.j.j.j.j.6.j.j.j.j.j.j.j.j.j.j.j.j.j.j.j.j.j.j.j.j.j.j.j.j.j.j.j.j.",
"j.j.j.j.j.j.j.j.j.j.j.j.j.j.j.j.j.j.j.j.j.j.j.j.j.6.1.+.' j.j.j.j.j.3.j.j.j.j.j.j.j.j.j.j.j.j.j.j.j.j.j.j.j.j.j.j.j.j.j.j.j.j.j.",
"j.j.j.j.j.j.j.j.j.j.j.j.j.j.j.j.j.j.j.j.j.j.j.j.6.d.3.] ` j.j.j.j.3.;.j.j.j.j.j.j.j.j.j.j.j.j.j.j.j.j.j.j.j.j.j.j.j.j.j.j.j.j.j.",
"j.j.j.j.j.j.j.j.j.j.j.j.j.j.j.j.j.j.j.j.j.j.j.j.6.f.5.-.} j.j.j.j.6.*.j.j.j.j.j.j.j.j.j.j.j.j.j.j.j.j.j.j.j.j.j.j.j.j.j.j.j.j.j.",
"j.j.j.j.j.j.j.j.j.j.j.j.j.j.j.j.j.j.j.j.j.j.j.j.j.d.f.6.1.j.j.j.6.6.1.1.' j.j.j.j.j.j.j.j.j.j.j.j.j.j.j.j.j.j.j.j.j.j.j.j.j.j.j.",
"j.j.j.j.j.j.j.j.j.j.j.j.j.j.j.j.j.j.j.j.j.j.j.j.j.u.d.y.2.a.d.6.a.a.3.*.] j.j.j.j.j.j.j.j.j.j.j.j.j.j.j.j.j.j.j.j.j.j.j.j.j.j.j.",
"j.j.j.j.j.j.j.j.j.j.j.j.j.j.j.j.j.j.j.j.j.j.6.d.j.u.4.B 0.s.d.d.t.:.1.*.+.j.j.j.j.j.j.j.j.j.j.j.j.j.j.j.j.j.j.j.j.j.j.j.j.j.j.j.",
"j.j.j.j.j.j.j.j.j.j.j.j.j.j.j.j.j.j.j.j.j.j.d.d.d.a.=.F 8.5.u.5.V Z >.1.j.j.j.j.j.j.j.j.j.j.j.j.j.j.j.j.j.j.j.j.j.j.j.j.j.j.j.j.",
"j.j.j.j.j.j.j.j.j.j.j.j.j.j.j.j.j.j.j.j.j.6.6.u.6.s.c * d *.3.@.N m +.1.j.j.j.j.j.j.j.j.j.j.j.j.j.j.j.j.j.j.j.j.j.j.j.j.j.j.j.j.",
"j.j.j.j.j.j.j.j.j.j.j.j.j.j.j.j.j.j.j.j.j.j.6.+.;.5.x % - 7.4.S @ 3 A >.1.j.j.j.j.j.j.j.j.j.j.j.j.j.j.j.j.j.j.j.j.j.j.j.j.j.j.j.",
"j.j.j.j.j.j.j.j.j.j.j.j.j.j.j.j.j.j.j.j.j.j.u.` *.-.F p 7 w.,.K > 5 S *.3.j.j.6.j.j.j.j.j.j.j.j.j.j.j.j.j.j.j.j.j.j.j.j.j.j.j.j.",
"j.j.j.j.j.1.j.j.j.j.j.j.j.j.j.j.1.1.j.j.j.j.j.&.,.c @ e e P 4.n w e 3 S 3.6.3.1.3.j.j.j.j.j.j.j.d.j.j.j.j.j.j.j.j.j.j.j.j.j.j.j.",
"j.j.j.3.3.1.1.3.j.j.j.j.j.j.6.1.*.*.*./ j.j.j.j.3.z % t y T i.U y r $ C 4.3.3.j.j.j.j.j.j.j.j.j.j.j.j.j.j.j.6.j.j.j.j.j.j.j.j.j.",
"j.j.3.3.j.j.1.*.*.j.j.j.j.j.3.*.+.` ^ ^ j.j.j.j.6.z p t u P 4.Y u u ; C 4.1.1.j.j.j.j.j.j.j.j.j.j.j.j.j.j.6.3.3.j.j.j.j.j.j.j.j.",
"j.j.6.j.6.3.1.*.&.j.j.j.j.3.1.*.+.` o o / j.j.j.j.z & t r f i.Y y u 7 q.1.1.j.j.j.j.j.j.j.j.j.j.j.j.j.j.j.j.6.6.3.j.j.j.j.j.j.j.",
"j.j.j.6.6.3.6.6.*.*.j.j.j.1.6.1.%.) O o O j.j.j.j.z & u 6 9.<.Y u u q r.,.;.j.j.j.j.j.j.j.j.j.j.j.j.j.j.j.j.6.6.3.j.j.j.j.j.j.j.",
"j.j.j.j.j.1.6.f.6.1.3.j.j.3.6.3.*.} ( o o j.j.j.j.z 0 a : 0.4.v r y 8 e.1.*.;.j.j.j.j.j.j.u.j.j.j.j.j.j.j.5.a.y.1.j.j.j.j.j.j.j.",
"j.j.j.j.j.*.>.y.u.3.1.1.3.6.f.g.3.%.+.] ` j.j.j.d.X.I 4 s =.5.H , r q e.,.*.;.j.j.j.j.j.j.3.6.u.j.j.j.j.j.d.h.f.1.j.j.j.j.j.j.j.",
"j.j.j.j.j.+.} *.1.1.1.1.1.6.g.h.d.1.;.*.+.&.3.6.u.5.c 9 | 4.5.G 2 i 8 e.3.;.*.j.j.j.j.j.j.d.d.d.6.j.j.3.6.h.h.h.d.3.3.j.j.j.j.j.",
"j.j.j.j.j.j.} ] &.*.*.*.1.3.d.d.y.6.3.1.*.&.;.6.f.h.X.l L s.d...g < 8 r.5.1.;.>.j.j.j.6.d.g.h.g.6.3.3.3.d.h.g.h.h.d.3.1.*.j.j.j.",
"j.j.j.j.j.j.j.] &.+.&.%.*.;.6.u.s.5.1.1.*.&.;.6.g.h.,.[ o.u.g.4.h # = J d.d.3.;.;.1.3.5.d.h.g.d.6.1.1.-.d.g.f.d.d.g.5.1.+.*.j.j.",
"j.j.j.j.j.j.j.+.%.*.*.;.>.*.1.5.3.3.*.*.&.*.1.6.d.g.6.$.*.3.3.6...b 1 G s.g.u.*.&.*.;.1.u.s.d.u.3.>.*.1.d.a.3.3.6.f.6.3.*.*.+.j.",
"j.j.j.j.j.j.j.1.>.3.d.g.5.&.*.*.*.1.&.+.@.*.1.1.6.g.6.1.;.*.*.6.,.M j o.5.6.6.1.*.+.*.1.1.1.1.1.1.,.;.3.3.1.&.*.1.3.6.1.*.@.} j.",
"j.j.j.j.j.3.3.3.6.d.h.h.y.1.&.} ] ] +.*.&.&.*.;.6.d.f.6.*.@.;.1.5. .{ &.*.3.3.1.1.*.+.+.;.1.1.;.&.;.1.1.1.#.&.&.*.1.1.*.%.+.' j.",
"j.j.j.j.j.1.1.6.3.3.6.6.6.6.&.( ( ' +.*.;.&.@.&.1.3.u.6.*.&.&.,.6.>.&.#.*.*.+.] +.&.} ` +.*.&.} } ;.1.1.*.&.&.&.*.;.*.&.&.' ` j.",
"j.j.1.3.3.1.3.3.*.%.*.*.1.6.*.( o ( +.1.3.;.;.&.&.;.1.1.;.&.%.*.3.6.f.6.*.+.+.` ] ] ` ) ) ' ] ' &.1.1.;.+.` ) } %.*.&.@.] ` ` j.",
"j.j.1.1.1.1.3.*.&.*.*.*.*.*.1.+.X O ' &.1.1.1.,.*.&.*.;.1.*.+.*.-.d.h.d.1.*.+.] ` ) ! E Q ) ` ] *.3.;.*.] X X / ] %.+.] ` ) ' j.",
"j.j.j.3.1.1.*.*.*.j.j.j.*.*.1.*.( ^ ( } ,.;.*.;.1.#.&.*.1.1.*.*.*.6.g.d.6.*.*.+.` / ~ W R j.] ] ;.j.j.*./   X ~ ` ] ] ) ` ` j.j.",
"j.j.j.j.>.*.*.j.j.j.j.j.j.*.3.+.] ` ( } *.&.&.;.1.*.+.1.1.1.*.;.*.*.1.3.1.3.3.*.+./ + _ j.j.j.*.3.j.j.j./ X O / ( ( ) ) j.j.j.j.",
"j.j.j.j.j.j.j.j.j.j.j.j.j.*.1.*.+.' ( ' } ] @.*.1.;.*.*.;.1.*.*.*.&.&.*.*.1.1.,.*.) ~ j.j.j.j.*.j.j.j.j.j.^ / ) ( ) j.j.j.j.j.j.",
"j.j.j.j.j.j.j.j.j.j.j.j.j.*.1.j.+.' ( O o ( ] +.*.;.1.*.*.;.*.*.1.*.+.*.*.*.1.1.;.} ' j.j.j.j.j.j.j.j.j.j.j.j.j.j.j.j.j.j.j.j.j.",
"j.j.j.j.j.j.j.j.j.j.j.j.j.3.j.j.+.' ( X . o ( +.&.;.6.1.&.&.*.*.1.1.*.*.3.*.&.>.*.&.j.j.j.j.j.j.j.j.j.j.j.j.j.j.j.j.j.j.j.j.j.j.",
"j.j.j.j.j.j.j.j.j.j.j.j.j.j.j.j.j.] ` o . o ) +.&.;.6.3.;.*.&.*.*.6.1.*.*.1.#.*.*.&.+.} j.j.j.j.j.j.j.j.j.j.j.j.j.j.j.j.j.j.j.j.",
"j.j.j.j.j.j.j.j.j.j.j.j.j.j.j.j.j.j.` ( O ( ` +.&.-.6.6.3.*.@.%.*.6.6.*.*.;.1.*.;.*.} ' ] j.j.j.j.j.j.j.j.j.j.j.j.j.j.j.j.j.j.j.",
"j.j.j.j.j.j.j.j.j.j.j.j.j.j.j.j.j.j.j.j.] ' } +.&.*.6.f.d.1.&.&.*.5.y.1.*.*.*.>.3.;.+.} ] ] j.j.j.j.j.j.j.j.j.j.j.j.j.j.j.j.j.j.",
"j.j.j.j.j.j.j.j.j.j.j.j.j.j.j.j.j.j.j.j.j.$.*.,.*.*.1.g.g.d.1.&.*.1.d.f.3.*.%.*.*.&.&.} ' ` ] j.j.j.j.j.j.j.j.j.j.j.j.j.j.j.j.j.",
"j.j.j.j.j.j.j.j.j.j.j.j.j.j.j.j.j.j.j.j.j.y.3.1.*.&.#.6.g.h.u.,.*.*.6.g.d.3.;.*.>.*.;.' O / } j.j.j.j.j.j.j.j.j.j.j.j.j.j.j.j.j.",
"j.j.j.j.j.j.j.j.j.j.j.j.j.j.j.j.j.j.f.g.h.f.6.3.*.+.+.*.3.g.d.3.1.*.;.6.g.f.6.3.1.;.+./ . ^ +.} j.j.j.j.j.j.j.j.j.j.j.j.j.j.j.j.",
"j.j.j.j.j.j.j.j.j.j.j.j.j.j.j.j.j.3.g.1.} &.6.6.;.*.+.&.*.u.3.;.3.*.*.1.u.g.g.6.1.*.] O X ) +.] j.j.j.j.j.j.j.j.j.j.j.j.j.j.j.j.",
"j.j.j.j.j.j.j.j.j.j.j.j.j.j.j.j.j.6.d.' o ^ ;.s.6.;.&.%.;.6.1.*.,.*.+.*.3.u.g.6.3.&.( O / ' } j.j.j.j.j.j.j.j.j.j.j.j.j.j.j.j.j.",
"j.j.j.j.j.j.j.j.j.j.j.j.j.j.j.j.j.d.y.' X O &.6.u.3.;.&.*.3.6.*.*.1.*.*.*.1.6.d.p.$.A o ' ' ' j.j.j.j.j.j.j.j.j.j.j.j.j.j.j.j.j.",
"j.j.j.j.j.j.j.j.j.j.j.j.j.j.j.j.3.6.s.,.] +.;.6.u.3.1.*.*.1.3.1.*.*.1.;.&.*.*.1.i.$.' ' +.' ' ] j.j.j.j.j.j.j.j.j.j.j.j.j.j.j.j.",
"j.j.j.j.j.j.j.j.j.j.j.j.j.j.j.3.3.6.6.d.d.6.3.6.6.1.1.*.} &.;.1.*.+.&.&.+.&.*.&.>.<.*.&.@.' ] } ] j.j.j.j.j.j.j.j.j.j.j.j.j.j.j.",
"j.j.j.j.j.j.j.j.j.j.j.j.j.j.3.3.3.1.3.5.6.6.6.6.;.;.;.&.] ] *.,.*.@.} ] } ;.;.&.&.>.*.&.} ` ] %.} ] j.j.j.j.j.j.j.j.j.j.j.j.j.j.",
"j.j.j.j.j.j.j.j.j.j.j.j.j.j.6.1.*.*.&.*.1.*.*.*.@.&.&.] ` ' ] +.*.+.' ' } *.3.;.&.&.+.] ` ` ' } j.j.j.j.j.j.j.j.j.j.j.j.j.j.j.j.",
"j.j.j.j.j.j.j.j.j.j.j.j.j.j.j.1.*.+.+.+.-.1.*.&.&.&.*.+.} ] ] +.&.+.] } +.;.1.1.*.&.} ' ] ] ' ] j.j.j.j.j.j.j.j.j.j.j.j.j.j.j.j.",
"j.j.j.j.j.j.j.j.j.j.j.j.j.j.j.1.+.' ] ] &.1.*.*.*.1.1.;.*.*.*.*.*.*.&.*.*.3.1.1.;.*.} ] ' j.} ' ' j.j.j.j.j.j.j.j.j.j.j.j.j.j.j.",
"j.j.j.j.j.j.j.j.j.j.j.j.j.j.j.*.] ' } } &.&.&.*.6.6.1.1.1.1.1.*.1.*.*.+.*.*.;.1.;.*.} j.j.j.j.' ' j.j.j.j.j.j.j.j.j.j.j.j.j.j.j.",
"j.j.j.j.j.j.j.j.j.j.j.j.j.j.*.+.+.+.j.j.j.*.*.1.g.f.3.1.;.;.*.&.*.1.*.*.*.+.*.&.} ] j.j.j.j.j.j.] j.j.j.j.j.j.j.j.j.j.j.j.j.j.j.",
"j.j.j.j.j.j.j.j.j.j.j.j.j.j.*.+.j.j.j.3.1.*.*.3.d.s.3.-.*.+.+.+.+.*.1.3.*.*.*.] ) ) j.j.j.j.j.j.} j.j.j.j.j.j.j.j.j.j.j.j.j.j.j.",
"j.j.j.j.j.j.j.j.j.j.j.j.j.j.j.j.j.j.3.3.+.` ( +.6.6.3.*.+.' ' ] +.*.*.3.1.1.*.+.` ) j.j.j.j.j.j.j.j.j.j.j.j.j.j.j.j.j.j.j.j.j.j.",
"j.j.j.j.j.j.j.j.j.j.j.j.j.j.j.j.j.j.3.1.] ^ o ^ +.1.1.*.} ' j.j.j.j.*.1.1.1.*.*.+.` ( ( j.j.j.j.j.j.j.j.j.j.j.j.j.j.j.j.j.j.j.j.",
"j.j.j.j.j.j.j.j.j.j.j.j.j.j.j.j.j.j.j.*.*.( o O ` *.3.*.@.j.j.j.j.j.j.*.*.*.*.%.] ` ( ( j.j.j.j.j.j.j.j.j.j.j.j.j.j.j.j.j.j.j.j.",
"j.j.j.j.j.j.j.j.j.j.j.j.j.j.j.j.j.j.j.j.+.] ] ] ] *.1.*.j.j.j.j.j.j.j.*.+.+.+.] ` ) ( j.j.j.j.j.j.j.j.j.j.j.j.j.j.j.j.j.j.j.j.j.",
"j.j.j.j.j.j.j.j.j.j.j.j.j.j.j.j.j.j.j.j.j.+.+.j.j.j.3.*.j.j.j.j.j.j.j.j.] ` ` ` ` ) j.j.j.j.j.j.j.j.j.j.j.j.j.j.j.j.j.j.j.j.j.j.",
"j.j.j.j.j.j.j.j.j.j.j.j.j.j.j.j.j.j.j.j.j.j.j.j.j.j.3.*.j.j.j.j.j.j.j.j.j.` ( ( j.j.j.j.j.j.j.j.j.j.j.j.j.j.j.j.j.j.j.j.j.j.j.j.",
"j.j.j.j.j.j.j.j.j.j.j.j.j.j.j.j.j.j.j.j.j.j.j.j.j.j.3.1.3.j.j.j.j.j.j.j.j.j.j.j.j.j.j.j.j.j.j.j.j.j.j.j.j.j.j.j.j.j.j.j.j.j.j.j.",
"j.j.j.j.j.j.j.j.j.j.j.j.j.j.j.j.j.j.j.j.j.j.j.j.j.j.j.3.j.j.j.j.j.j.j.j.j.j.j.j.j.j.j.j.j.j.j.j.j.j.j.j.j.j.j.j.j.j.j.j.j.j.j.j.",
"j.j.j.j.j.j.j.j.j.j.j.j.j.j.j.j.j.j.j.j.j.j.j.j.j.j.j.j.j.j.j.j.j.j.j.j.j.j.j.j.j.j.j.j.j.j.j.j.j.j.j.j.j.j.j.j.j.j.j.j.j.j.j.j.",
"j.j.j.j.j.j.j.j.j.j.j.j.j.j.j.j.j.j.j.j.j.j.j.j.j.j.j.j.j.j.j.j.j.j.j.j.j.j.j.j.j.j.j.j.j.j.j.j.j.j.j.j.j.j.j.j.j.j.j.j.j.j.j.j.",
"j.j.j.j.j.j.j.j.j.j.j.j.j.j.j.j.j.j.j.j.j.j.j.j.j.j.j.j.j.j.j.j.j.j.j.j.j.j.j.j.j.j.j.j.j.j.j.j.j.j.j.j.j.j.j.j.j.j.j.j.j.j.j.j.",
"j.j.j.j.j.j.j.j.j.j.j.j.j.j.j.j.j.j.j.j.j.j.j.j.j.j.j.j.j.j.j.j.j.j.j.j.j.j.j.j.j.j.j.j.j.j.j.j.j.j.j.j.j.j.j.j.j.j.j.j.j.j.j.j."
};
