/* XPM */
static char *_647884622352[] = {
/* columns rows colors chars-per-pixel */
"64 64 101 2 ",
"   c #5F5F5F",
".  c #676767",
"X  c #6C6C6C",
"o  c gray45",
"O  c #7B7B7B",
"+  c #DFB501",
"@  c #E5B800",
"#  c #E3B90D",
"$  c #F89C30",
"%  c #FB973D",
"&  c #C9B826",
"*  c #F3A627",
"=  c #E2BE2D",
"-  c #E0B53D",
";  c #D2CC0B",
":  c #D5D307",
">  c #DDD60B",
",  c #C8C514",
"<  c #D1CE10",
"1  c #DEC11E",
"2  c #EDC100",
"3  c #ECC30F",
"4  c #EDC809",
"5  c #F0C100",
"6  c #E4CE16",
"7  c #EACB15",
"8  c #EACE1A",
"9  c #EAD019",
"0  c #B9A255",
"q  c #BD9673",
"w  c #B9997C",
"e  c #D88D4E",
"r  c #DE914C",
"t  c #DA8F50",
"y  c #D49257",
"u  c #D69158",
"i  c #DE995B",
"p  c #E78F42",
"a  c #ED9244",
"s  c #E99449",
"d  c #EE9949",
"f  c #F59544",
"g  c #FF9B42",
"h  c #FF9E49",
"j  c #E39652",
"k  c #E29A59",
"l  c #DDA741",
"z  c #D9A75F",
"x  c #EFAC4A",
"c  c #F4AB4D",
"v  c #E4A853",
"b  c #D59A65",
"n  c #C59C78",
"m  c #EDA468",
"M  c #838383",
"N  c #8C8C8C",
"B  c #908E8F",
"V  c #9E958C",
"C  c #949494",
"Z  c #9C9C9C",
"A  c #B99D85",
"S  c #B39B82",
"D  c #A79D94",
"F  c #B5A48E",
"G  c #AAA39D",
"H  c #B0A193",
"J  c #BDA592",
"K  c #B8B693",
"L  c #BBBB92",
"P  c #B4B89F",
"I  c #B9B99F",
"U  c #A4A4A4",
"Y  c #A9A5A0",
"T  c #A9A8A7",
"R  c #A7A7A8",
"E  c #A4A8AC",
"W  c #ABABAB",
"Q  c #BEADA0",
"!  c #B3ADAD",
"~  c #B6B3A3",
"^  c #BBB5A3",
"/  c #B5B1AE",
"(  c #BCB4AC",
")  c #ADAFB1",
"_  c #AEB1B4",
"`  c #A9B1B9",
"'  c #B3B3B3",
"]  c #B1B6B9",
"[  c #BBB7BB",
"{  c #B4B9BD",
"}  c #BBBBBB",
"|  c #C7A78B",
" . c #C3AD9B",
".. c #C3B29A",
"X. c #C4A8A1",
"o. c #B2BAC0",
"O. c #BFBFC0",
"+. c #C3C3C3",
"@. c #C8C8C7",
"#. c #C9C9C9",
"$. c None",
/* pixels */
"$.$.$.$.$.$.$.$.$.$.$.$.$.$.$.$.$.$.$.$.$.$.$.$.$.$.$.$.$.$.$.$.$.$.$.$.$.$.$.$.$.$.$.$.$.$.$.$.$.$.$.$.$.$.$.$.$.$.$.$.$.$.$.$.",
"$.$.$.$.$.$.$.$.$.$.$.$.$.$.$.$.$.$.$.$.$.$.$.$.$.$.$.$.$.$.$.$.$.$.$.$.$.$.$.$.$.$.$.$.$.$.$.$.$.$.$.$.$.$.$.$.$.$.$.$.$.$.$.$.",
"$.$.$.$.$.$.$.$.$.$.$.$.$.$.$.$.$.$.$.$.$.$.$.$.$.$.$.$.$.$.$.$.$.$.$.$.$.$.$.$.$.$.$.$.$.$.$.$.$.$.$.$.$.$.$.$.$.$.$.$.$.$.$.$.",
"$.$.$.$.$.$.$.$.$.$.$.$.$.$.$.$.$.$.$.$.$.$.$.$.$.$.$.$.$.$.$.$.$.$.$.$.$.$.$.$.$.$.$.$.$.$.$.$.$.$.$.$.$.$.$.$.$.$.$.$.$.$.$.$.",
"$.$.$.$.$.$.$.$.$.$.$.$.$.$.$.$.$.$.$.$.$.$.$.$.$.$.$.$.$.$.$.$.$.$.$.$.$.$.$.$.$.$.$.$.$.$.$.$.$.$.$.$.$.$.$.$.$.$.$.$.$.$.$.$.",
"$.$.$.$.$.$.$.$.$.$.$.$.$.$.$.$.$.$.$.$.$.$.$.$.$.$.$.$.$.$.$.$.$.$.$.$.$.$.$.$.$.$.$.$.$.$.$.$.$.$.$.$.$.$.$.$.$.$.$.$.$.$.$.$.",
"$.$.$.$.$.$.$.$.$.$.$.$.$.$.$.$.$.$.$.$.$.$.$.$.$.$.$.$.$.$.$.$.$.$.$.$.$.$.$.$.$.$.$.$.$.$.$.$.$.$.$.$.$.$.$.$.$.$.$.$.$.$.$.$.",
"$.$.$.$.$.$.$.$.$.$.$.$.$.$.$.$.$.$.$.$.$.$.$.$.$.$.} } } } $.$.$.$.$.$.$.$.$.$.$.$.$.$.$.$.$.$.$.$.$.$.$.$.$.$.$.$.$.$.$.$.$.$.",
"$.$.$.$.$.$.$.$.$.$.$.$.$.$.$.$.$.$.$.$.$.$.$.$.$.$.$.$.} [ } $.$.C $.$.$.$.$.$.$.$.$.$.$.$.$.$.$.$.$.$.$.$.$.$.$.$.$.$.$.$.$.$.",
"$.$.$.$.$.$.$.$.$.$.$.$.$.$.$.$.$.$.$.$.$.$.$.$.$.$.$.$.} [ [ } U N ' $.$.$.$.$.$.$.$.$.$.$.$.$.$.$.$.$.$.$.$.$.$.$.$.$.$.$.$.$.",
"$.$.$.$.$.$.$.$.$.$.$.$.$.$.$.$.$.$.$.$.$.$.$.$.$.$.$.$.( ' ' } Z N ' W $.$.$.$.$.$.$.$.$.$.$.$.$.$.$.$.$.$.$.$.$.$.$.$.$.$.$.$.",
"$.$.$.$.$.$.$.$.$.$.$.$.$.$.$.$.$.$.$.$.$.$.$.$.$.$.$.$.k w _ / V C ' ' $.$.$.$.$.$.$.$.$.$.$.$.$.$.$.$.$.$.$.$.$.$.$.$.$.$.$.$.",
"$.$.$.$.$.$.$.$.$.$.$.$.$.$.$.$.$.$.$.$.$.$.$.$.$.O.$.{ m a /  .u Z W ' ) $.$.$.$.$.$.$.$.$.$.$.$.$.$.$.$.$.$.$.$.$.$.$.$.$.$.$.",
"$.$.$.$.$.$.$.$.$.$.$.$.$.$.$.$.$.$.$.$.$.$.$.$.$.+.O.J v x ^ ..z E / _ W Z $.$.$.$.$.$.$.$.$.$.$.$.$.$.$.$.$.$.$.$.$.$.$.$.$.$.",
"$.$.$.$.$.$.$.$.$.$.$.$.$.$.$.$.$.$.$.$.$.$.$.$.+.@.+.s + , ~ L & S ' W W M C $.$.$.$.$.$.$.$.$.$.$.$.$.$.$.$.$.$.$.$.$.$.$.$.$.",
"$.$.$.$.$.$.$.$.$.$.$.$.$.$.$.$.$.$.$.$.$.$.$.$.O.#.{ p 2 < ~ L 3 j E ! R N C $.$.$.$.$.$.$.$.$.$.$.$.$.$.$.$.$.$.$.$.$.$.$.$.$.",
"$.$.$.$.$.$.$.$.$.$.$.$.$.$.$.$.$.$.$.$.$.$.$.$.+.@.| a 4 > ^ L 6 l A _ W Z Z $.$.$.$.$.$.$.$.$.$.$.$.$.$.$.$.$.$.$.$.$.$.$.$.$.",
"$.$.$.$.$.$.$.' } } } } $.$.$.$.$.$.$.$.$.$.$.$.$.} j h 9 > ^ L > @ j _ W U W $.$.$.$.$.$.$.$.} ' } $.$.$.$.$.$.$.$.$.$.$.$.$.$.",
"$.$.$.$.$.$.' } O.@.@.} } ' $.$.$.$.$.$.$.$.$.$.$.{ i h 9 > ^ K : 2 e E / W ' $.$.$.$.$.$.$.$.$.' } } $.$.$.$.$.$.$.$.$.$.$.$.$.",
"$.$.$.$.$.' } +.+.@.+.O.} ' ' W W $.$.' ' ' $.$.$.$.j h 9 > ^ ^ = 7 a n ' ' $.$.$.$.' ' $.$.$.$.$.} } ' $.} $.$.$.$.$.$.$.$.$.$.",
"$.$.$.$.' ' } } ' } } O.} ' ' ' W W ' ' ' ' } $.$.{ j h 7 ; P X.* 8 h i ` / W $.$.N W ' ' $.$.$.} } } [ $.' ' $.$.$.$.$.$.$.$.$.",
"$.$.$.$.' ' ' ' ) ' ' ' } } [ ' W U ' ' W W ' ' ' } A p # - ( ) 0 # g i ' W R $.B C ' ' ' ' W ' } +.+.' W W ' ' $.$.$.$.$.$.$.$.",
"$.$.$.$.$.' ' ' W W W ' ' ' ' ' W U W U U U W W W W _ r $ d Q ` F c g i _ W U ' W / ' ' _ W R W } +.} ' W U ' } } ' ' $.$.$.$.$.",
"$.$.$.$.$.$.' ' W R W ' ' ' ' W E D U W W W W U R U ' H t q W ) J f % b _ W W ' [ } } } ' ) R R ' ' ' W W W ' +.} ' W U $.$.$.$.",
"$.$.$.$.$.$.$.' W W U W ) W U U Z U U W W W ' W W W U ) D U ' R U q y G ' W W ) ' ' } } ' ' Z U W ) ' W R ' } } } ' W U $.$.$.$.",
"$.$.$.$.$.$.$.$.$.' W Z Z C Z C Z U W _ ' ' ' ' W U R T W _ ' / W R U W ' / W W W W ' ' ' ' G U W W R U T W ' W ' W U Z $.$.$.$.",
"$.$.$.$.$.$.$.W W [ ' W U Z C Z U W ' ' W ' ' ' U U W R / ' ' ' ' W U W W R R / ' W U W ' W U Z U T U W W U U W U U Z Z $.$.$.$.",
"$.$.$.$.$.$.U C N U ' ' W U C C Z R W U U U W W Z U ' W W _ ' ' / W R W R R R W ' W Z Z W U Z C Z W W ' W U Z U U C C $.$.$.$.$.",
"$.$.$.$.$.$.U M X C ' ' W Z C B C U U C C Z U Z U W ' ' W W ' } [ ' T W ) T W W W W U C U Z N C U / ' } ' W U C O o M $.$.$.$.$.",
"$.$.$.$.$.$.W U Z T ' ' U C C N N C C Z C $.Z Z G ) ' ' ' / ' ' } ' ' T ) W W ' ' ' U C N C C Z ' ' } +.} ' W Z .   O $.$.$.$.$.",
"$.$.$.$.$.$.W W ' ' ' U Z Z B N N N C $.$.$.$.Z Z _ ' ' ' ' W ' } ' ' W ) / T / ' ' W Z C C $.U W ' } +.#.} ' W M O N $.$.$.$.$.",
"$.$.$.$.$.$.$.W W W T U C O M N N C $.$.$.$.$.$.U W ) ' ' ' ' ' ' O.[ ' W ) W ) ' ' ' U Z $.$.$.U U W ' +.} } ' U C $.$.$.$.$.$.",
"$.$.$.$.$.$.$.$.Z U U $.$.O o M C $.$.$.$.$.$.W U T ) ' ' ' ' ' [ O.} ' W ) W W ' ' ' R $.$.$.$.$.U W W ' } ' ' W W $.$.$.$.$.$.",
"$.$.$.$.$.$.$.$.$.$.$.$.$.M M B $.$.$.' $.$.[ ' W T T W T W W ' ' } O.} W T T Z U ' ' / W $.$.$.$.U W U U W W W U U $.$.$.$.$.$.",
"$.$.$.$.$.$.$.$.$.$.$.$.$.$.$.$.$.$.$.[ [ ' ' ] ' _ T T T T T ) ) ' +.} _ Z G Z Z _ ' ' ' ) $.$.$.$.Z Z Z Z Z Z Z $.$.$.$.$.$.$.",
"$.$.$.$.$.$.$.$.$.$.$.$.$.$.$.$.$.$.$.$.' ' ' / ' ' W E T T E W W ' @.+.' W Z U Z W ' ' ' W Z $.$.$.$.C N N N C $.$.$.$.$.$.$.$.",
"$.$.$.$.$.$.$.$.$.$.$.$.$.$.$.$.$.$.$.$.] ) U C G ' ' W T ) T T T } @.@.} W W W Z U _ _ ' Z C $.$.$.$.$.$.$.$.$.$.$.$.$.$.$.$.$.",
"$.$.$.$.$.$.$.$.$.$.$.$.$.$.$.$.$.$.$.$.$.U C O M U _ _ W ) / T W ' +.@.} T T _ T Z G U U Z $.$.$.$.$.$.$.$.$.$.$.$.$.$.$.$.$.$.",
"$.$.$.$.$.$.$.$.$.$.$.$.$.$.$.$.$.$.$.$.E E E N w C W ' W _ ' T W ' O.@.} ' W T R C C Z C $.$.$.$.$.$.$.$.$.$.$.$.$.$.$.$.$.$.$.",
"$.$.$.$.$.$.$.$.$.$.$.$.$.$.$.$.$.$.$.C Z E E Z N C W ' W T W T T ' ' O.} ' ' W Z C C $.$.$.$.$.$.$.$.$.$.$.$.$.$.$.$.$.$.$.$.$.",
"$.$.$.$.$.$.$.$.$.$.$.$.$.$.$.$.$.$.$.N N C R R U C T ] ' W T T T ) ' ' } [ ) ' W C $.$.$.$.$.$.$.$.$.$.$.$.$.$.$.$.$.$.$.$.$.$.",
"$.$.$.$.$.$.$.$.$.$.$.$.$.$.$.$.$.$.$.} R C R T T U T ' ' ' W T E W ' ' ' / ' ' ) Z $.$.$.$.$.$.$.$.$.$.$.$.$.$.$.$.$.$.$.$.$.$.",
"$.$.$.$.$.$.$.$.$.$.$.$.$.$.$.$.$.$.[ ' [ _ R Z U U T W ) ' ' T T W ' ' } } ' ) R Z $.$.$.$.$.$.$.$.$.$.$.$.$.$.$.$.$.$.$.$.$.$.",
"$.$.$.$.$.$.$.$.$.$.$.$.$.$.$.$.$.$.$.[ ' W G Z U T T W ) W W T T T W ' ' ' ) Z M M $.$.$.$.$.$.$.$.$.$.$.$.$.$.$.$.$.$.$.$.$.$.",
"$.$.$.$.$.$.$.$.$.$.$.$.$.$.$.$.$.$.$.$.$.$.$.Z Z ) T ) } ) T / ) ) T ~ _ ' W Z o . o $.$.$.$.$.$.$.$.$.$.$.$.$.$.$.$.$.$.$.$.$.",
"$.$.$.$.$.$.$.$.$.$.$.$.$.$.$.$.$.' ' $.$.$.$.Z U W W ) ' [ ) W ' ' ) T ) ' T U Z o X N $.$.$.$.$.$.$.$.$.$.$.$.$.$.$.$.$.$.$.$.",
"$.$.$.$.$.$.$.$.$.$.$.$.$.$.$.$.' ' ' ' / $.$.W T W W ) } } ' ) W ' ' ) T U U R W U U W $.$.$.$.$.$.$.$.$.$.$.$.$.$.$.$.$.$.$.$.",
"$.$.$.$.$.$.$.$.$.$.$.$.$.$.$.' ' ' ' _ W ) W T T T W / ' O.[ / W ' ' ' ' T Z Z U ' ' ' ' $.$.$.$.$.$.$.$.$.$.$.$.$.$.$.$.$.$.$.",
"$.$.$.$.$.$.$.$.$.$.$.$.$.$.$.' ' W W ) W T W W ' W R W ' +.+.' W ' _ ' ' W W Z C U W ' ' ' $.$.$.$.$.$.$.$.$.$.$.$.$.$.$.$.$.$.",
"$.$.$.$.$.$.$.$.$.$.$.$.$.$.$.$.W W W ' G U W ' ' ' W W } +.@.} ' W U R W / ' U C C U W ' ' $.$.$.$.$.$.$.$.$.$.$.$.$.$.$.$.$.$.",
"$.$.$.$.$.$.$.$.$.$.$.$.$.$.$.$.$.U U C M C ' ] [ } [ W W } } ' ' W W W W W ' $.$.Z Z U ' ' $.$.$.$.$.$.$.$.$.$.$.$.$.$.$.$.$.$.",
"$.$.$.$.$.$.$.$.$.$.$.$.$.$.$.$.$.Z B O O C Z Z Z W ' ' ) ' ' ) W W ' ' ' ' $.$.$.$.Z W ' ' $.$.$.$.$.$.$.$.$.$.$.$.$.$.$.$.$.$.",
"$.$.$.$.$.$.$.$.$.$.$.$.$.$.$.C C C M $.N Z O X O Z ' ' ' [ W U U ) ' ' W W $.$.$.$.$.W ' $.$.$.$.$.$.$.$.$.$.$.$.$.$.$.$.$.$.$.",
"$.$.$.$.$.$.$.$.$.$.$.$.$.$.$.$.$.$.$.$.$.$.$.M Z W W ) U U U $.Z U T W W U $.$.$.$.$.' } $.$.$.$.$.$.$.$.$.$.$.$.$.$.$.$.$.$.$.",
"$.$.$.$.$.$.$.$.$.$.$.$.$.$.$.$.$.$.$.$.$.$.$.$.Z Z Z Z Z $.$.$.$.C Z Z U Z $.$.$.$.' } $.$.$.$.$.$.$.$.$.$.$.$.$.$.$.$.$.$.$.$.",
"$.$.$.$.$.$.$.$.$.$.$.$.$.$.$.$.$.$.$.$.$.$.$.$.Z Z C Z $.$.$.$.$.$.$.$.$.$.$.$.$.$.$.$.$.$.$.$.$.$.$.$.$.$.$.$.$.$.$.$.$.$.$.$.",
"$.$.$.$.$.$.$.$.$.$.$.$.$.$.$.$.$.$.$.$.$.$.$.$.$.$.$.$.$.$.$.$.$.$.$.$.$.$.$.$.$.$.$.$.$.$.$.$.$.$.$.$.$.$.$.$.$.$.$.$.$.$.$.$.",
"$.$.$.$.$.$.$.$.$.$.$.$.$.$.$.$.$.$.$.$.$.$.$.$.$.$.$.$.$.$.$.$.$.$.$.$.$.$.$.$.$.$.$.$.$.$.$.$.$.$.$.$.$.$.$.$.$.$.$.$.$.$.$.$.",
"$.$.$.$.$.$.$.$.$.$.$.$.$.$.$.$.$.$.$.$.$.$.$.$.$.$.$.$.$.$.$.$.$.$.$.$.$.$.$.$.$.$.$.$.$.$.$.$.$.$.$.$.$.$.$.$.$.$.$.$.$.$.$.$.",
"$.$.$.$.$.$.$.$.$.$.$.$.$.$.$.$.$.$.$.$.$.$.$.$.$.$.$.$.$.$.$.$.$.$.$.$.$.$.$.$.$.$.$.$.$.$.$.$.$.$.$.$.$.$.$.$.$.$.$.$.$.$.$.$.",
"$.$.$.$.$.$.$.$.$.$.$.$.$.$.$.$.$.$.$.$.$.$.$.$.$.$.$.$.$.$.$.$.$.$.$.$.$.$.$.$.$.$.$.$.$.$.$.$.$.$.$.$.$.$.$.$.$.$.$.$.$.$.$.$.",
"$.$.$.$.$.$.$.$.$.$.$.$.$.$.$.$.$.$.$.$.$.$.$.$.$.$.$.$.$.$.$.$.$.$.$.$.$.$.$.$.$.$.$.$.$.$.$.$.$.$.$.$.$.$.$.$.$.$.$.$.$.$.$.$.",
"$.$.$.$.$.$.$.$.$.$.$.$.$.$.$.$.$.$.$.$.$.$.$.$.$.$.$.$.$.$.$.$.$.$.$.$.$.$.$.$.$.$.$.$.$.$.$.$.$.$.$.$.$.$.$.$.$.$.$.$.$.$.$.$.",
"$.$.$.$.$.$.$.$.$.$.$.$.$.$.$.$.$.$.$.$.$.$.$.$.$.$.$.$.$.$.$.$.$.$.$.$.$.$.$.$.$.$.$.$.$.$.$.$.$.$.$.$.$.$.$.$.$.$.$.$.$.$.$.$."
};
