/* XPM */
static char *_647884618489[] = {
/* columns rows colors chars-per-pixel */
"64 64 110 2 ",
"   c #5B5B5B",
".  c #646464",
"X  c #6D6D6D",
"o  c #737373",
"O  c #777877",
"+  c #7C7C7C",
"@  c #807F7F",
"#  c #DEBC02",
"$  c #E7A80A",
"%  c #EAAC08",
"&  c #E1BC01",
"*  c #E3B40B",
"=  c #F1B10C",
"-  c #E3B018",
";  c #D69734",
":  c #F59D2A",
">  c #EA9B35",
",  c #E1953A",
"<  c #F59930",
"1  c #CCBC36",
"2  c #EAA224",
"3  c #EEAD2B",
"4  c #F4AE2A",
"5  c #EBBC24",
"6  c #DBCD02",
"7  c #DCD600",
"8  c #CDC81A",
"9  c #DBD11D",
"0  c #EDC405",
"q  c #E4D606",
"w  c #E3DA00",
"e  c #E9D10A",
"r  c #E4CE12",
"t  c #E6C719",
"y  c #DDCB24",
"u  c #B9A776",
"i  c #D68F5A",
"p  c #DE9F51",
"a  c #D1905D",
"s  c #D9965F",
"d  c #D89F58",
"f  c #E18F4C",
"g  c #ED9541",
"h  c #E69C45",
"j  c #E99653",
"k  c #DDA34A",
"l  c #E0AB43",
"z  c #E2B44A",
"x  c #C59A67",
"c  c #CD9669",
"v  c #CE9A6D",
"b  c #D49560",
"n  c #DF9C63",
"m  c #D59D73",
"M  c #E5A761",
"N  c #EBAA60",
"B  c #807F80",
"V  c #848484",
"C  c #8C8C8C",
"Z  c #949494",
"A  c #9C9C9C",
"S  c #A8988A",
"D  c #B69E83",
"F  c #BC9D85",
"G  c #A39C96",
"H  c #BABB83",
"J  c #A6A09A",
"K  c #A8A098",
"L  c #B0A091",
"P  c #BBA390",
"I  c #B3A69B",
"U  c #9FA0A0",
"Y  c #A5A5A5",
"T  c #ADA7A2",
"R  c #A9A8A7",
"E  c #A5AAAD",
"W  c #ABABAB",
"Q  c #B0A7A0",
"!  c #B0AAA7",
"~  c #B2AEAD",
"^  c #B5B5AC",
"/  c #B1B9AD",
"(  c #BFB8AF",
")  c #A6ADB3",
"_  c #A9ADB1",
"`  c #ACB1B4",
"'  c #B3B3B3",
"]  c #B8B7B6",
"[  c #BDBAB6",
"{  c #B3B4BC",
"}  c #B6B8BA",
"|  c #BBBBBB",
" . c #C2A287",
".. c #C2A18B",
"X. c #C0BD83",
"o. c #C7A796",
"O. c #C9A790",
"+. c #C6B394",
"@. c #C4B098",
"#. c #C3B3A3",
"$. c #C2BAB4",
"%. c #C0C0BF",
"&. c #B5BBC0",
"*. c #BDBFC2",
"=. c #C0BEC0",
"-. c #BCC0C4",
";. c #C3C3C3",
":. c #CBCBCB",
">. c gray82",
",. c None",
/* pixels */
",.,.,.,.,.,.,.,.,.,.,.,.,.,.,.,.,.,.,.,.,.,.,.,.,.,.,.,.,.,.,.,.,.,.,.,.,.,.,.,.,.,.,.,.,.,.,.,.,.,.,.,.,.,.,.,.,.,.,.,.,.,.,.,.",
",.,.,.,.,.,.,.,.,.,.,.,.,.,.,.,.,.,.,.,.,.,.,.,.,.,.,.,.,.,.,.,.,.,.,.,.,.,.,.,.,.,.,.,.,.,.,.,.,.,.,.,.,.,.,.,.,.,.,.,.,.,.,.,.",
",.,.,.,.,.,.,.,.,.,.,.,.,.,.,.,.,.,.,.,.,.,.,.,.,.,.,.,.,.,.,.,.,.,.,.,.,.,.,.,.,.,.,.,.,.,.,.,.,.,.,.,.,.,.,.,.,.,.,.,.,.,.,.,.",
",.,.,.,.,.,.,.,.,.,.,.,.,.,.,.,.,.,.,.,.,.,.,.,.,.,.,.,.,.,.,.,.,.,.,.,.,.,.,.,.,.,.,.,.,.,.,.,.,.,.,.,.,.,.,.,.,.,.,.,.,.,.,.,.",
",.,.,.,.,.,.,.,.,.,.,.,.,.,.,.,.,.,.,.,.,.,.,.,.,.,.,.,.,.,.,.,.,.,.,.,.,.,.,.,.,.,.,.,.,.,.,.,.,.,.,.,.,.,.,.,.,.,.,.,.,.,.,.,.",
",.,.,.,.,.,.,.,.,.,.,.,.,.,.,.,.,.,.,.,.,.,.,.,.,.,.,.,.,.,.,.,.,.,.,.,.,.,.,.,.,.,.,.,.,.,.,.,.,.,.,.,.,.,.,.,.,.,.,.,.,.,.,.,.",
",.,.,.,.,.,.,.,.,.,.,.,.,.,.,.,.,.,.,.,.,.,.,.,.,.,.;.| | ,.,.,.,.,.,.,.,.,.,.,.,.,.,.,.,.,.,.,.,.,.,.,.,.,.,.,.,.,.,.,.,.,.,.,.",
",.,.,.,.,.,.,.,.,.,.,.,.,.,.,.,.,.,.,.,.,.,.,.,.,.%.;.;.| | ,.,.,.,.,.,.,.,.,.,.,.,.,.,.,.,.,.,.,.,.,.,.,.,.,.,.,.,.,.,.,.,.,.,.",
",.,.,.,.,.,.,.,.,.,.,.,.,.,.,.,.,.,.,.,.,.,.,.,.,.| -.| | =.| ,.,.] ' ,.,.,.,.,.,.,.,.,.,.,.,.,.,.,.,.,.,.,.,.,.,.,.,.,.,.,.,.,.",
",.,.,.,.,.,.,.,.,.,.,.,.,.,.,.,.,.,.,.,.,.,.,.,.,.-.$.| ' | =.,.| ] W A W ,.,.,.,.,.,.,.,.,.,.,.,.,.,.,.,.,.,.,.,.,.,.,.,.,.,.,.",
",.,.,.,.,.,.,.,.,.,.,.,.,.,.,.,.,.,.,.,.,.,.,.,.,.,.-.#.n $.*.] ] W Z C W ,.,.,.,.,.,.,.,.,.,.,.,.,.,.,.,.,.,.,.,.,.,.,.,.,.,.,.",
",.,.,.,.,.,.,.,.,.,.,.,.,.,.,.,.,.,.,.,.,.,.,.,.,.,.*.@.M $.} ^ | ' W Z W ,.,.,.,.,.,.,.,.,.,.,.,.,.,.,.,.,.,.,.,.,.,.,.,.,.,.,.",
",.,.,.,.,.,.,.,.,.,.,.,.,.,.,.,.,.,.,.,.,.,.,.,.;.| { u 1 ^ Q I -.' ' W ' ,.,.,.,.,.,.,.,.,.,.,.,.,.,.,.,.,.,.,.,.,.,.,.,.,.,.,.",
",.,.,.,.,.,.,.,.,.,.,.,.,.,.,.,.,.,.,.,.,.,.,.| ;.;...> y / O.s ` ] W W ,.,.,.,.,.,.,.,.,.,.,.,.,.,.,.,.,.,.,.,.,.,.,.,.,.,.,.,.",
",.,.,.,.,.,.,.,.,.,.,.,.,.,.,.,.,.,.,.,.,.,.,.| ;.' j 4 y / +.k S _ ^ E ,.,.,.,.,.,.,.,.,.,.,.,.,.,.,.,.,.,.,.,.,.,.,.,.,.,.,.,.",
",.,.,.,.,.,.,.,.,.,.,.,.,.,.,.,.,.,.,.,.,.,.,.' } ..l 6 9 ' H * f L ' W W W ,.,.,.,.,.,.,.,.,.,.,.,.,.,.,.,.,.,.,.,.,.,.,.,.,.,.",
",.,.,.,.,.,.' ] ' _ ' ,.,.,.,.,.,.,.,.,.,.,.,.Y W g & w 9 ' X.r : a ) ' ] W W ,.,.,.,.,.,.,.,.,.,.,.,.,.,.,.,.,.,.,.,.,.,.,.,.,.",
",.,.,.,.,.W | >.:.| ] | ,.,.,.,.,.| ' ] ,.,.,.W } g 0 w 9 ' X.w # ; P ] ' ] Y Y ,.,.,.,.,.,.,.,.,.,.,.,.,.,.,.,.,.,.,.,.,.,.,.,.",
",.,.,.,.Y W } :.;.] ;.;.] ,.,.] ;.:.;.Y Z ,.,.,.| g # w 9 ' X.w 7 % m ` ' ' W A ,.,.,.,.,.] ] ' ] ,.,.,.,.,.,.,.,.,.,.,.,.,.,.,.",
",.,.,.,.Y W W W Y W ;.:.*.' ] ;.;.>.:.Y + ,.,.,.,.g 3 e 9 ^ X.w w = m _ ' W Y ,.,.,.,.,.A Z W ] ' ' C + A ] ] ,.,.,.,.,.,.,.,.,.",
",.,.,.,.W ~ W A O C } ;.;.] ' ' ] ;.>.W o + ,.,.,.F N e 8 ^ H 6 7 $ m ` ~ ` ,.,.,.,.,.W C o V W | | Z X Z ' ' _ W ,.,.,.,.,.,.,.",
",.,.,.,.,.,.W A X C ] | ;.] W R ' ;.>.:.Z + Z ~ | W h 0 z ' @.5 t < v ) W R ,.,.,.,.,.Y + . V W ;.;.R V R ] ' ' W W ,.,.,.,.,.,.",
",.,.,.,.,.,._ Y C Z | | *.] W W W } ;.| ' A A Y ' ~ ; $ h ' o.2 - a J U A A ,.,.,.,.] ' A C Y | ;.| ' A ` ' W ] W W ,.,.,.,.,.,.",
",.,.,.,.,.,.,.W Y W } ' ] W W Y R ' ' ] W W Y Y _ { F p u { ' x d G R A Z Y W ,.,.} ' ' W Y ' ' | | ' R ' ' W W ' W Y ,.,.,.,.,.",
",.,.,.,.,.,.,.,.,.' | | ' ' Y A Y ' ' _ Y Y W Y W _ I b I } &. .c E R E Y R E ' | | | W W W ' ' ' _ W W } | W W ' W A ,.,.,.,.,.",
",.,.,.,.,.,.] ] ,.| :.:.| ' W A Z R W Y Y W W W Y W W J W ' | [ T ' W R ~ W R ` | | | ' W W ' ' W R R ' *.| ^ Y W W Y ,.,.,.,.,.",
",.,.,.,.,.' ] ' ] | ;.>.;.} ] Y Z Z J A W | ;.' W W ~ W W ` ' | ;.} W ~ ' W R R _ ' ] } ] W W ' W Y W ] :.| ~ Y U W A ,.,.,.,.,.",
",.,.,.,.' ' ' ' ' ' ] ] | | ] W Z C Z A Y W -.} ~ E R ' ^ W ` ' ;.;.] ' ' W R R R R ] | } ' W W W W W ' | | ` U A W A ,.,.,.,.,.",
",.,.,.,.' ' W W ' ' W W W W W W C + + C Z Y R R E Y R ' ' W R ` } | ~ ` ' ' W Y Y W | ] ~ R W ' ] ' W W ] ' W Y Y Y Z ,.,.,.,.,.",
",.,.,.,.] ' Y W ' ,.,.,.W W ' Y B . . X O Z R R R R R ` ' ~ R W ' } ` W ' ` Y A W ] | W E E W _ ' W Y E W W Y A Z Z Z ,.,.,.,.,.",
",.,.,.,.,.] W ,.,.,.,.,.,.Y W Z o X + V C Z A Y R Y W ` ' ' W R ^ ] ] ~ W R A Z G _ W R Z @ A W W Y A Y W Y A Z C Z Z ,.,.,.,.,.",
",.,.,.,.,.,.,.,.,.,.,.,.,.Z A Z C Z U _ ' W Y Y R E ~ W ' ' ' W W } | ] W Y A C Z Z A Y A o X Z G Z C A A A Z C Z ,.,.,.,.,.,.,.",
",.,.,.,.,.,.,.,.,.,.,.,.,.C Z Z ,.W ' ' ' ~ ' W R ~ ' W W W W W W ] | -.' W J Z C Z ,.,.' Y C Z ,.Z Z Z Z Z Z Z ,.,.,.,.,.,.,.,.",
",.,.,.,.,.,.,.,.,.,.,.,.,.Z C ,.,.' ] ` Y Y W W W _ ] ' Y W W W W W } ;.] ' W U Z ,.,.,.,.W ] ,.,.,.,.,.,.,.,.,.,.,.,.,.,.,.,.,.",
",.,.,.,.,.,.,.,.,.,.,.,.,.,.,.,.,.,.' ' A C A R R R ' ' W Y W Y Y W ' | | ] ` R Y ,.,.,.,.,.,.,.,.,.,.,.,.,.,.,.,.,.,.,.,.,.,.,.",
",.,.,.,.,.,.,.,.,.,.,.,.,.,.,.,.,.,.' ' Y B + A R R W W W W Y R R R W ' ' ] ] ` W ,.W W W ,.,.,.,.,.,.,.,.,.,.,.,.,.,.,.,.,.,.,.",
",.,.,.,.,.,.,.,.,.,.,.,.,.,.,.,.,.W ] ] ' A C Y R R R R W W W W R R W W Z Z W ` U Z _ ' ] W ,.,.,.,.,.,.,.,.,.,.,.,.,.,.,.,.,.,.",
",.,.,.,.,.,.,.,.,.,.,.,.,.,.,.,.,.W R Z Y ` ' W E R R W W _ W Y Y W ' W A B + Z O O G { ] W Y ,.,.,.,.,.,.,.,.,.,.,.,.,.,.,.,.,.",
",.,.,.,.,.,.,.,.,.,.,.,.,.,.,.,.,.' A X O Y W ' ' W E R R W ' Y U R ~ ' Y V X o X + V U _ G Z ,.,.,.,.,.,.,.,.,.,.,.,.,.,.,.,.,.",
",.,.,.,.,.,.,.,.,.,.,.,.,.,.,.,.,.,.,.Z X V Y W ' ' W E R W W ' W U Y W Y Z C + o o O A Y Z ,.,.,.,.,.,.,.,.,.,.,.,.,.,.,.,.,.,.",
",.,.,.,.,.,.,.,.,.,.,.,.,.,.,.,.,.,.,.,.C @ A ~ ] ] ` W W Y W ' ` W Y Z C C V V V + C Z Z Z ,.,.,.,.,.,.,.,.,.,.,.,.,.,.,.,.,.,.",
",.,.,.,.,.,.,.,.,.,.,.,.,.,.,.,.,.,.,.,.E A U W } ] ] ' W W W W ] ' W Y Z V @ O + O + Z ,.,.,.,.,.,.,.,.,.,.,.,.,.,.,.,.,.,.,.,.",
",.,.,.,.,.,.,.,.,.,.,.,.,.,.,.,.,.,.,.W U A A Z Y ' } *.;.| W W _ ] ' W A B o o O . ,.,.,.,.,.,.,.,.,.,.,.,.,.,.,.,.,.,.,.,.,.,.",
",.,.,.,.,.,.,.,.,.,.,.,.,.,.' ' ' ' ' Y C O O V U W ' $.:.:.] W W W ' W Y V X . + Z ,.,.,.,.,.,.,.,.,.,.,.,.,.,.,.,.,.,.,.,.,.,.",
",.,.,.,.,.,.,.,.,.,.,.,.' ' W W ' ' ] A X o V C Y W ' ] ;.:.:.| ^ E W E U Z o   C Y R W ,.,.,.,.,.,.,.,.,.,.,.,.,.,.,.,.,.,.,.,.",
",.,.,.,.,.,.,.,.,.,.,.W W R Z Z Y ' ] W B Z W A W W W ` } | ;.;.' W E U Z C o . Z A V E W ,.,.,.,.,.,.,.,.,.,.,.,.,.,.,.,.,.,.,.",
",.,.,.,.,.,.,.,.,.,.,.E R Z V o V R W W Z R ] ~ ] ' ' ' W ' ] ;.] ' W G C C B o O V Y ' ~ W ,.,.,.,.,.,.,.,.,.,.,.,.,.,.,.,.,.,.",
",.,.,.,.,.,.,.,.,.,.,.R W Z o . O Y W ` ~ ` ' ' ] | -.| ] ~ W } | ' ' W Y A C Z A Y ] | ' W ,.,.,.,.,.,.,.,.,.,.,.,.,.,.,.,.,.,.",
",.,.,.,.,.,.,.,.,.,.,.,.Y Y V O C Y W R R R W ' ' | :.:.| ' E ~ ] ' ] ' R A Z Y W ] | | W Y W ,.,.,.,.,.,.,.,.,.,.,.,.,.,.,.,.,.",
",.,.,.,.,.,.,.,.,.,.,.,.,.Z Z Z ,.W E G Z C A _ _ ' $.:.;.' ~ Y Y W _ ` E Z B A W W ' W W Y Y ,.,.,.,.,.,.,.,.,.,.,.,.,.,.,.,.,.",
",.,.,.,.,.,.,.,.,.,.,.,.,.,.,.,.Y W A V . X V A Y ' | *.;.} ' Y A Y R Z C O o Z Y R Y Y A + C ,.,.,.,.,.,.,.,.,.,.,.,.,.,.,.,.,.",
",.,.,.,.,.,.,.,.,.,.,.,.,.,.,.,.A Z C X   X V A ~ ] ` ' ] } ' ' W Z C . . V V G ` W Y A C X C ,.,.,.,.,.,.,.,.,.,.,.,.,.,.,.,.,.",
",.,.,.,.,.,.,.,.,.,.,.,.,.,.,.,.,.,.V O o A | ,.,.' R W ' ] ` W G V o X O A Z } ;.' W U + o Z ,.,.,.,.,.,.,.,.,.,.,.,.,.,.,.,.,.",
",.,.,.,.,.,.,.,.,.,.,.,.,.,.,.W ,.,.,.,.,.] ,.,.,.,.W E W W R C X X o + ,.Y Y ] | ~ Y A @ V ,.,.,.,.,.,.,.,.,.,.,.,.,.,.,.,.,.,.",
",.,.,.,.,.,.,.,.,.,.,.,.,.,.,.,.,.,.,.,.,.' ,.,.,.,.Y U R W Y +   X B ,.,.,.W W W Y Y ,.,.,.,.,.,.,.,.,.,.,.,.,.,.,.,.,.,.,.,.,.",
",.,.,.,.,.,.,.,.,.,.,.,.,.,.,.,.,.,.,.,.,.' ' ,.,.,.,.U G U A V O B ,.,.,.,.,.,.,.,.,.,.,.,.,.,.,.,.,.,.,.,.,.,.,.,.,.,.,.,.,.,.",
",.,.,.,.,.,.,.,.,.,.,.,.,.,.,.,.,.,.,.,.,.,.} ,.,.,.,.,.Z A Z Z Z ,.,.,.,.,.,.,.,.,.,.,.,.,.,.,.,.,.,.,.,.,.,.,.,.,.,.,.,.,.,.,.",
",.,.,.,.,.,.,.,.,.,.,.,.,.,.,.,.,.,.,.,.,.,.,.,.,.,.,.,.,.,.,.,.,.,.,.,.,.,.,.,.,.,.,.,.,.,.,.,.,.,.,.,.,.,.,.,.,.,.,.,.,.,.,.,.",
",.,.,.,.,.,.,.,.,.,.,.,.,.,.,.,.,.,.,.,.,.,.,.,.,.,.,.,.,.,.,.,.,.,.,.,.,.,.,.,.,.,.,.,.,.,.,.,.,.,.,.,.,.,.,.,.,.,.,.,.,.,.,.,.",
",.,.,.,.,.,.,.,.,.,.,.,.,.,.,.,.,.,.,.,.,.,.,.,.,.,.,.,.,.,.,.,.,.,.,.,.,.,.,.,.,.,.,.,.,.,.,.,.,.,.,.,.,.,.,.,.,.,.,.,.,.,.,.,.",
",.,.,.,.,.,.,.,.,.,.,.,.,.,.,.,.,.,.,.,.,.,.,.,.,.,.,.,.,.,.,.,.,.,.,.,.,.,.,.,.,.,.,.,.,.,.,.,.,.,.,.,.,.,.,.,.,.,.,.,.,.,.,.,.",
",.,.,.,.,.,.,.,.,.,.,.,.,.,.,.,.,.,.,.,.,.,.,.,.,.,.,.,.,.,.,.,.,.,.,.,.,.,.,.,.,.,.,.,.,.,.,.,.,.,.,.,.,.,.,.,.,.,.,.,.,.,.,.,.",
",.,.,.,.,.,.,.,.,.,.,.,.,.,.,.,.,.,.,.,.,.,.,.,.,.,.,.,.,.,.,.,.,.,.,.,.,.,.,.,.,.,.,.,.,.,.,.,.,.,.,.,.,.,.,.,.,.,.,.,.,.,.,.,.",
",.,.,.,.,.,.,.,.,.,.,.,.,.,.,.,.,.,.,.,.,.,.,.,.,.,.,.,.,.,.,.,.,.,.,.,.,.,.,.,.,.,.,.,.,.,.,.,.,.,.,.,.,.,.,.,.,.,.,.,.,.,.,.,."
};
