/* XPM */
static char *_647344192435[] = {
/* columns rows colors chars-per-pixel */
"64 64 216 2 ",
"   c #1E3617",
".  c #1D3915",
"X  c #1F3618",
"o  c #1F3919",
"O  c #232A1D",
"+  c #213519",
"@  c #213A19",
"#  c #203A17",
"$  c #251D2D",
"%  c #2C162F",
"&  c #3D0D3B",
"*  c #3A1939",
"=  c #2B2526",
"-  c #2B2628",
";  c #31292B",
":  c #313A2A",
">  c #2C2535",
",  c #2D2836",
"<  c #2E2938",
"1  c #332A3B",
"2  c #362539",
"3  c #3F3436",
"4  c #7B3619",
"5  c #41143D",
"6  c #5D153D",
"7  c #590D3F",
"8  c #651B34",
"9  c #611539",
"0  c #601633",
"q  c #651D2E",
"w  c #422F3D",
"e  c #473F3D",
"r  c #6A252C",
"t  c #732B24",
"y  c #1B4111",
"u  c #23441B",
"i  c #224A1A",
"p  c #234716",
"a  c #26531B",
"s  c #2A5B1B",
"d  c #26541B",
"f  c #30571E",
"g  c #2A6717",
"h  c #32671E",
"j  c #36741E",
"k  c #294824",
"l  c #344528",
"z  c #2B5424",
"x  c #2C5D22",
"c  c #335E28",
"v  c #3C4932",
"b  c #2D6622",
"n  c #316A21",
"m  c #37642A",
"M  c #357424",
"N  c #367A23",
"B  c #3A7E25",
"V  c #495739",
"C  c #40483E",
"Z  c #436B30",
"A  c #3B1A41",
"S  c #3F0042",
"D  c #3A2E42",
"F  c #3D3145",
"G  c #3A3444",
"H  c #2F3242",
"J  c #430C42",
"K  c #4D004D",
"L  c #460449",
"P  c #50014F",
"I  c #580A46",
"U  c #481A4B",
"Y  c #561846",
"T  c #4D0151",
"R  c #4C085B",
"E  c #520252",
"W  c #560A54",
"Q  c #5A0B56",
"!  c #5E0C5B",
"~  c #550657",
"^  c #4F1456",
"/  c #591659",
"(  c #610D5D",
")  c #62125C",
"_  c #691F5F",
"`  c #651843",
"'  c #462848",
"]  c #43334A",
"[  c #463F4F",
"{  c #473643",
"}  c #4E2B54",
"|  c #58235A",
" . c #4A3652",
".. c #4C3D53",
"X. c #53355B",
"o. c #553D5C",
"O. c #573454",
"+. c #54304C",
"@. c #643357",
"#. c #5D0362",
"$. c #651361",
"%. c #6B1B64",
"&. c #6D1A6B",
"*. c #6A1567",
"=. c #731D6C",
"-. c #6F1C71",
";. c #771D73",
":. c #600D60",
">. c #5A3961",
",. c #6A2566",
"<. c #75236A",
"1. c #74266A",
"2. c #792473",
"3. c #7A2677",
"4. c #6D3A6E",
"5. c #464050",
"6. c #4D4254",
"7. c #454A58",
"8. c #55435C",
"9. c #534D5D",
"0. c #544159",
"q. c #4D4641",
"w. c #526D43",
"e. c #75785C",
"r. c #666A55",
"t. c #5B4362",
"y. c #5D4B62",
"u. c #5A5263",
"i. c #654C6B",
"p. c #624A67",
"a. c #6A536D",
"s. c #63576B",
"d. c #7C5C6B",
"f. c #6E5472",
"g. c #795E7B",
"h. c #775978",
"j. c #7A4674",
"k. c #656171",
"l. c #6A6975",
"z. c #74657B",
"x. c #6E706C",
"c. c #813D13",
"v. c #8D4C02",
"b. c #894708",
"n. c #935300",
"m. c #832A7D",
"M. c #812379",
"N. c #8A357F",
"B. c #8A457D",
"V. c #846B7A",
"C. c #3B8224",
"Z. c #3E8A24",
"A. c #348B19",
"S. c #438B2B",
"D. c #46962A",
"F. c #478E36",
"G. c #4B9634",
"H. c #528839",
"J. c #4AA229",
"K. c #53A736",
"L. c #58B638",
"P. c #4EAA30",
"I. c #5CC93B",
"U. c #60CC3D",
"Y. c #5D9244",
"T. c #67934B",
"R. c #64BD44",
"E. c #68C747",
"W. c #73D451",
"Q. c #98827F",
"!. c #81A165",
"~. c #7B7786",
"^. c #7F6181",
"/. c #8A2D84",
"(. c #882B84",
"). c #8C3484",
"_. c #8F338A",
"`. c #95398D",
"'. c #983A94",
"]. c #952F8D",
"[. c #A43B9A",
"{. c #AB3DA6",
"}. c #9C4199",
"|. c #8D528A",
" X c #A4449B",
".X c #A64398",
"XX c #A2458F",
"oX c #8B6C8C",
"OX c #8A6386",
"+X c #85768C",
"@X c #937293",
"#X c #967A98",
"$X c #8D7090",
"%X c #A1738E",
"&X c #AD47A5",
"*X c #B34CA4",
"=X c #B44BA9",
"-X c #BD55B5",
";X c #C256AF",
":X c #C253B4",
">X c #C759BB",
",X c #D263BC",
"<X c #D75CC3",
"1X c #D863C4",
"2X c #D763C6",
"3X c #E169CB",
"4X c #EA72D2",
"5X c #EE6FD5",
"6X c #82818E",
"7X c #868292",
"8X c #898595",
"9X c #95829C",
"0X c #A6908A",
"qX c #9F8BA5",
"wX c #AF97B4",
"eX c None",
/* pixels */
"eXeXeXeXeXeXeXeXeXeXeXeXeXeXeXeXeXeXeXeXeXeXeXeXeXeXeXeXeXeXeXeXeXeXeXeXeXeXeXeXeXeXeXeXeXeXeXeXeXeXeXeXeXeXeXeXeXeXeXeXeXeXeXeX",
"eXeXeXeXeXeXeXeXeXeXeXeXeXeXeXeXeXeXeXeXeXeXeXeXeXeXeXeXeXeXeXeXeXeXeXeXeXeXeXeXeXeXeXeXeXeXeXeXeXeXeXeXeXeXeXeXeXeXeXeXeXeXeXeX",
"eXeXeXeXeXeXeXeXeXeXeXeXeXeXeXeXeXeXeXeXeXeXeXeXeXeXeXeXeXeXeXeXeXeXeXeXeXeXeXeXeXeXeXeXeXeXeXeXeXeXeXeXeXeXeXeXeXeXeXeXeXeXeXeX",
"eXeXeXeXeXeXeXeXeXeXeXeXeXeXeXeXeXeXeXeXeXeXeXeXeXeXeXeXeXeXeXeXeXeXeXeXeXeXeXeXeXeXeXeXeXeXeXeXeXeXeXeXeXeXeXeXeXeXeXeXeXeXeXeX",
"eXeXeXeXeXeXeXeXeXeXeXeXeXeXeXeXeXeXeXeXeXeXeXeXeXeXeXK ) =.&.P eXeXeXeXeXeXeXeXeXeXeXeXeXeXeXeXeXeXeXeXeXeXeXeXeXeXeXeXeXeXeXeX",
"eXeXeXeXeXeXeXeXeXeXeXeXeXeXeXeXeXeXeXeXeXeXeXeXeXeXeXK 2.[..X/.&.L eXeXeXeXeXeXeXeXeXeXeXeXeXeXeXeXeXeXeXeXeXeXeXeXeXeXeXeXeXeX",
"eXeXeXeXeXeXeXeXeXeXeXeXeXeXeXeXeXeXeXeXeXeXeXeXeXeXeXeXeXeXE m.=X=X;.eXeXeXeXeXeXeXeXeXeXeXeXeXeXeXeXeXeXeXeXeXeXeXeXeXeXeXeXeX",
"eXeXeXeXeXeXeXeXeXeXeXeXeXeXeXeXeXeXeXeXeXeXeXeXeXeXeXeXeXeXeXL m.;X;.m.;.eXeXeXeXeXeXeXeXeXeXeXeXeXeXeXeXeXeXeXeXeXeXeXeXeXeXeX",
"eXeXeXeXeXeXeXeXeXeXeXeXeXeXeXeXeXeXeXeXeXeXeXeXeXeXeXeXeXeXeXK ( _.;X4X,Xe.!.].<.( eXeXeXeXeXeXeXeXeXeXeXeXeXeXeXeXeXeXeXeXeXeX",
"eXeXeXeXeXeXeXeXeXeXeXeXeXeXeXeXeXeXeXeXeXeXeXeXeXeXeXeXeXeXeXeXP m.2._.XXV G.%X>X1X[.eXeXeXeXeXeXeXeXeXeXeXeXeXeXeXeXeXeXeXeXeX",
"eXeXeXeXeXeXeXeXeXeXeXeXeXeXeXeXeXeXeXeXeXeXeXeXeXeXeXeXeXeXeXeXT W K E w g j V.{.0X0X/.eXeXeXeXeXeXeXeXeXeXeXeXeXeXeXeXeXeXeXeX",
"eXeXeXeXeXeXeXeXeXeXeXeXeXeXeXeXeXeXeXeXeXeXeXeXeXeXeXeXeXeX6 K K K P E @.d a @.( f U.OX#.eXeXeXeXeXeXeXeXeXeXeXeXeXeXeXeXeXeXeX",
"eXeXeXeXeXeXeXeXeXeXeXeXeXeXeXeXeXeXeXeXeXeXeXeXc.4 c.t 6 r 9 ! Q ( P L U h a w l @ B V.#.eXeXeXeXeXeXeXeXeXeXeXeXeXeXeXeXeXeXeX",
"eXeXeXeXeXeXeXeXeXeXeXeXeXeXeXeXeXeXeXeXeXeX4 c.6 Y Y K #._.-X3X1X:X&XM.E Y.C.5 c x.C u eXeXeXeXeXeXeXeXeXeXeXeXeXeXeXeXeXeXeXeX",
"eXeXeXeXeXeXeXeXeXeXeXeXeXeXeXeXeXeXeXI 4 9 q Y eXeXR %. X-X1X%Xr.r.e.B.(.V s w Y.w.V a eXeXeXeXeXeXeXeXeXeXeXeXeXeXeXeXeXeXeXeX",
"eXeXeXeXeXeXeXeXeXeXeXeXeXeXeXeXeX9 t b.n.I P t ^ ) .X1X3X2Xf.s A.L.P.G.e % p x G.D.C.m eXeXeXeXeXeXeXeXeXeXeXeXeXeXeXeXeXeXeXeX",
"eXeXeXeXeXeXeXeXeXeXeXeXeXeXeXeX9 b.n.v.9 T E 6 1. X1X4X4X0Xh x R.W.W.L.s o u d Z x.m eXeXeXeXeXeXeXeXeXeXeXeXeXeXeXeXeXeXeXeXeX",
"eXeXeXeXeXeXeXeXeXeXeXeXeXeXeX4 v.n.v.9 T T T E N. X X*X<XT.g z Z.L.K.C.z u @ a S.x.eXeXeXeXeXeXeXeXeXeXeXeXeXeXeXeXeXeXeXeXeXeX",
"eXeXeXeXeXeXeXeXeXeXeXeXeXeXeX8 n.v.9 T P P K E ! ) Q 2._.q.u F.K.G.B l - X eXX M g eXeXeXeXeXeXeXeXeXeXeXeXeXeXeXeXeXeXeXeXeXeX",
"eXeXeXeXeXeXeXeXeXeXeXeXeXeXeXP t 8 T T P T P T K K K Q E & u K.L.W.N & * . eXeX= w eXeXeXeXeXeXeXeXeXeXeXeXeXeXeXeXeXeXeXeXeXeX",
"eXeXeXeXeXeXeXeXeXeXeXeXeXeXeXeXT T P K P K T q I T P %.~ - n C.C.F.: eXeXX o + K m.3.3.XX).1.eXeXeXeXeXeXeXeXeXeXeXeXeXeXeXeXeX",
"eXeXeXeXeXeXeXeXeXeXeXeXeXeXeXeXeXE K E P E E t c.P T E 5 z S.R.G.: S eXeXo o = W ) %.%.%.)./ ) <.eXeXeXeXeXeXeXeXeXeXeXeXeXeXeX",
"eXeXeXeXeXeXeXeXeXeXeXeXeXeXeXeXeXeXE K T E P K t c.8 K = x B D.L.+.[._.eX. y J E K E K eX%.1./ ^ W eXeXeXeXeXeXeXeXeXeXeXeXeXeX",
"eXeXeXeXeXeXeXeXeXeXeXeXeXeXeXeXeXeXeXK K E $.*.P 7 I K + a C.N j j.:X*X/./ eXeXT T eXeXeXeXeXeXeXT eXeXeXeXeXeXeXeXeXeXeXeXeXeX",
"eXeXeXeXeXeXeXeXeXeXeXeXeXeXeXeXeXeXeXeXP K ( m.! R T K 2 p i s v &X=X&X].=X3.L eXW ( eXeXeXeXeXeXeXeXeXeXeXeXeXeXeXeXeXeXeXeXeX",
"eXeXeXeXeXeXeXeXeXeXeXeXeXeXeXeXeXeXeXeXP P =.'.)._.$.K P w l + ,.].M.=.%.}.=.! _.;X>X`.2.eXeXeXeXeXeXeXeXeXeXeXeXeXeXeXeXeXeXeX",
"eXeXeXeXeXeXeXeXeXeXeXeXeXeXeXeXeXeXeXeXP ~ 2.m.].'./._ ) P ; u Q Q K W ( ~ T =.}.,X>X*X;X;.eXeXeXeXeXeXeXeXeXeXeXeXeXeXeXeXeXeX",
"eXeXeXeXeXeXeXeXeXeXeXeXeXeXeXeXeXeXeXeXP ~ ) ) ).|.d.H.V ; . + + O k + ; e w.' K %.}.).&.Q eXeXeXeXeXeXeXeXeXeXeXeXeXeXeXeXeXeX",
"eXeXeXeXeXeXeXeXeXeXeXeXeXeXeXeXeXeXeXeXT K K ) B.Y.U.F.p .   . # . j h # s L.Z % eX/ Q eXeXeXeXeXeXeXeXeXeXeXeXeXeXeXeXeXeXeXeX",
"eXeXeXeXeXeXeXeXeXeXeXeXeXeXeXeXeXeXeXeXeXE P 2 M J.E.G.c m u   # + . u + + # # . eXeXeXeXeXeXeXeXeXeXeXeXeXeXeXeXeXeXeXeXeXeXeX",
"eXeXeXeXeXeXeXeXeXeXeXeXeXeXeXeXeXeXeXeXeXT E = y j D.U.W.W.Z.s o eX    # + # + + eXeXeXeXeXeXeXeXeXeXeXeXeXeXeXeXeXeXeXeXeXeXeX",
"eXeXeXeXeXeXeXeXeXeXeXeXeXeXeXeXeXeXeXeXeXeXT * . @ h S.Z.K.E.K.Z.eXeX# + # # . + eXeXeXeXeXeXeXeXeXeXeXeXeXeXeXeXeXeXeXeXeXeXeX",
"eXeXeXeXeXeXeXeXeXeXeXeXeXeXeXeXeXeXeXeXeXeXeXeX+   o i x M S.P.N eXeX# + # #   + eXeXeXeXeXeXeXeXeXeXeXeXeXeXeXeXeXeXeXeXeXeXeX",
"eXeXeXeXeXeXeXeXeXeXeXeXeXeXeXeXeXeXeXeXeXeXeXeXeXeXo . z n n p o ; # # # +     eXeXeXeXeXeXeXeXeXeXeXeXeXeXeXeXeXeXeXeXeXeXeXeX",
"eXeXeXeXeXeXeXeXeXeXeXeXeXeXeXeXeXeXeXeXeXeXeXeXeXeXk M M C.x   . 5 5 = # # X * eXeXeXeXeXeXeXeXeXeXeXeXeXeXeXeXeXeXeXeXeXeXeXeX",
"eXeXeXeXeXeXeXeXeXeXeXeXeXeXeXeXeXeXeXeXeXeXeXeXeXK m Z.x b b . + | ( K 5 - J %.~ eXeXeXeXeXeXeXeXeXeXeXeXeXeXeXeXeXeXeXeXeXeXeX",
"eXeXeXeXeXeXeXeXeXeXeXeXeXeXeXeXeXeXeXeXeXeXeXeX) ! z b u x z . * ! Q K E ) <.%.eXeXeXeXeXeXeXeXeXeXeXeXeXeXeXeXeXeXeXeXeXeXeXeX",
"eXeXeXeXeXeXeXeXeXeXeXeXeXeXeXeXeXeXeXeXeXeXeXeXm.1X,.O . a y . eXK K K ~ %.Q P eXeXeXeXeXeXeXeXeXeXeXeXeXeXeXeXeXeXeXeXeXeXeXeX",
"eXeXeXeXeXeXeXeXeXeXeXeXeXeXeXeXeXeXeXeXeXeXeXeX-.<X1X.X/ 5 5 eXeXT P E P P P eXeXeXeXeXeXeXeXeXeXeXeXeXeXeXeXeXeXeXeXeXeXeXeXeX",
"eXeXeXeXeXeXeXeXeXeXeXeXeXeXeXeXeXeXeXeXeXeXeXT T 3. X*X].&.E eXeXT E K W ) ) eXeXeXeXeXeXeXeXeXeXeXeXeXeXeXeXeXeXeXeXeXeXeXeXeX",
"eXeXeXeXeXeXeXeXeXeXeXeXeXeXeXeXeXeXeXeXeXeXeX<.<.K 1.*.W P P eXeXK E K ~ ) eXeXeXeXu.9.eXeXeXeXeXeXeXeXeXeXeXeXeXeXeXeXeXeXeXeX",
"eXeXeXeXeXeXeXeXeXeXeXeXeXeXeXeXeXeXeXeXeXeXeX2.*X=.) %.K eXeXeXeXE E E E eXeX6.H 7.6XD eXeXeXeXeXeXeXeXeXeXeXeXeXeXeXeXeXeXeXeX",
"eXeXeXeXeXeXeXeXeXeXeXeXeXeXeXeXeXeXeXeXeXeXeXK ).1X`.~ eXeX, , < A A * * 1 , 6X[ l.u.> eXeXeXeXeXeXeXeXeXeXeXeXeXeXeXeXeXeXeXeX",
"eXeXeXeXeXeXeXeXeXeXeXeXeXeXeXeXeXeXeXeXeXeX-.2.Q *.=.L eX, , > , > , > > > > 8X[ G , , eXeXeXeXeXeXeXeXeXeXeXeXeXeXeXeXeXeXeXeX",
"eXeXeXeXeXeXeXeXeXeXeXeXeXeXD 8.f.y.] y.6.| *.) K T 4.f.a.a.f.f.6.s...i.a.a.0.7X5.$ < < eXeXeXeXeXeXeXeXeXeXeXeXeXeXeXeXeXeXeXeX",
"eXeXeXeXeXeXeXeXeXeXeXeXeXeXa.wXwXi.z.qXo.1._.M.^ X.i.i.p.i.i.p.7.8Xu.+XwX#XF 7X5.> , 2 eXeXeXeXeXeXeXeXeXeXeXeXeXeXeXeXeXeXeXeX",
"eXeXeXeXeXeXeXeXeXeXeXeXeX] z.l.k.5.#X~.* (.}.M.| F F >.>.X./ ' s.6X~.9.l.y.0.8X5.> > < eXeXeXeXeXeXeXeXeXeXeXeXeXeXeXeXeXeXeXeX",
"eXeXeXeXeXeXeXeXeXeXeXeXeX1 ] $ $ , D < } &.(.J A } >.>.} 4.].J z.k.l.> $ D y.7X[ > < < eXeXeXeXeXeXeXeXeXeXeXeXeXeXeXeXeXeXeXeX",
"eXeXeXeXeXeXeXeXeXeXeXeXeX< , , 1 , > ..j.T E ' g.,.:X'.Q '.3.X.7X$ > , < < 1 8X[ > , , eXeXeXeXeXeXeXeXeXeXeXeXeXeXeXeXeXeXeXeX",
"eXeXeXeXeXeXeXeXeXeXeXeXeXeX1 ] D D 1 f.$XOXU i.oX,.'.<X`.3.K +X9.D F F F 1 , 8X[ > < 1 eXeXeXeXeXeXeXeXeXeXeXeXeXeXeXeXeXeXeXeX",
"eXeXeXeXeXeXeXeXeXeXeXeXeXeXeX] ] ] D ..$Xg. .g.^.S $.-.&.| ' +X6.o.t.>.>.[ > +X[ > < eXeXeXeXeXeXeXeXeXeXeXeXeXeXeXeXeXeXeXeXeX",
"eXeXeXeXeXeXeXeXeXeXeXeXeXeXeXeXeXeXeXeXg.h.] y.u.F >.X.X.8.D  .D 1 1 1 1 1 1 G 2 > < eXeXeXeXeXeXeXeXeXeXeXeXeXeXeXeXeXeXeXeXeX",
"eXeXeXeXeXeXeXeXeXeXeXeXeXeXeXeXeXeXeXeX0.oXt.]  .8.t.t.8. .t.H eXeX, , , , eXeX] 1 , eXeXeXeXeXeXeXeXeXeXeXeXeXeXeXeXeXeXeXeXeX",
"eXeXeXeXeXeXeXeXeXeXeXeXeXeXeXeXeXeXeXeXi.@X^.t.t.>.t.>.X.u.s.eXeXeXeXeXeXeXeXeX] ] , eXeXeXeXeXeXeXeXeXeXeXeXeXeXeXeXeXeXeXeXeX",
"eXeXeXeXeXeXeXeXeXeXeXeXeXeXeXeXeXeXeX] oX@X$XOXa.>.t.y...7X9.eXeXeXeXeXeXeXeXeXeXD 1 eXeXeXeXeXeXeXeXeXeXeXeXeXeXeXeXeXeXeXeXeX",
"eXeXeXeXeXeXeXeXeXeXeXeXeXeXeXeXeXeXeX1 s.oX@X@X$XoX$Xh.8.k.5.eXeXeXeXeXeXeXeXeXeXeXeXeXeXeXeXeXeXeXeXeXeXeXeXeXeXeXeXeXeXeXeXeX",
"eXeXeXeXeXeXeXeXeXeXeXeXeXeXeXeXeXeXeXeX> ] a.$X@XoX8.D > eXeXeXeXeXeXeXeXeXeXeXeXeXeXeXeXeXeXeXeXeXeXeXeXeXeXeXeXeXeXeXeXeXeXeX",
"eXeXeXeXeXeXeXeXeXeXeXeXeXeXeXeXeXeXeXeXeXeX> y.h...- eXeXeXeXeXeXeXeXeXeXeXeXeXeXeXeXeXeXeXeXeXeXeXeXeXeXeXeXeXeXeXeXeXeXeXeXeX",
"eXeXeXeXeXeXeXeXeXeXeXeXeXeXeXeXeXeXeXeXeXeXeX< > eXeXeXeXeXeXeXeXeXeXeXeXeXeXeXeXeXeXeXeXeXeXeXeXeXeXeXeXeXeXeXeXeXeXeXeXeXeXeX",
"eXeXeXeXeXeXeXeXeXeXeXeXeXeXeXeXeXeXeXeXeXeXeXeXeXeXeXeXeXeXeXeXeXeXeXeXeXeXeXeXeXeXeXeXeXeXeXeXeXeXeXeXeXeXeXeXeXeXeXeXeXeXeXeX",
"eXeXeXeXeXeXeXeXeXeXeXeXeXeXeXeXeXeXeXeXeXeXeXeXeXeXeXeXeXeXeXeXeXeXeXeXeXeXeXeXeXeXeXeXeXeXeXeXeXeXeXeXeXeXeXeXeXeXeXeXeXeXeXeX",
"eXeXeXeXeXeXeXeXeXeXeXeXeXeXeXeXeXeXeXeXeXeXeXeXeXeXeXeXeXeXeXeXeXeXeXeXeXeXeXeXeXeXeXeXeXeXeXeXeXeXeXeXeXeXeXeXeXeXeXeXeXeXeXeX",
"eXeXeXeXeXeXeXeXeXeXeXeXeXeXeXeXeXeXeXeXeXeXeXeXeXeXeXeXeXeXeXeXeXeXeXeXeXeXeXeXeXeXeXeXeXeXeXeXeXeXeXeXeXeXeXeXeXeXeXeXeXeXeXeX",
"eXeXeXeXeXeXeXeXeXeXeXeXeXeXeXeXeXeXeXeXeXeXeXeXeXeXeXeXeXeXeXeXeXeXeXeXeXeXeXeXeXeXeXeXeXeXeXeXeXeXeXeXeXeXeXeXeXeXeXeXeXeXeXeX"
};
